<svg class="github-svg" width="29" height="28" viewBox="0 0 29 28" fill="none" xmlns="http://www.w3.org/2000/svg">
<path fill-rule="evenodd" clip-rule="evenodd" d="M14 2.25871e-05C10.6763 0.000469887 7.46112 1.1834 4.92968 3.33722C2.39824 5.49103 0.715643 8.47522 0.182883 11.756C-0.349877 15.0367 0.301952 18.4 2.02177 21.2441C3.74158 24.0883 6.41719 26.2279 9.56998 27.28C10.27 27.41 10.57 26.98 10.57 26.61V24.23C6.67998 25.07 5.85998 22.35 5.85998 22.35C5.58643 21.4929 5.0107 20.7643 4.23998 20.3C2.96998 19.44 4.33998 19.45 4.33998 19.45C4.78358 19.5127 5.207 19.6759 5.57789 19.9272C5.94878 20.1785 6.25733 20.5113 6.47998 20.9C6.86732 21.5948 7.51471 22.1072 8.27981 22.3248C9.04491 22.5423 9.86507 22.4471 10.56 22.06C10.6164 21.3505 10.9292 20.6858 11.44 20.19C8.33998 19.83 5.06998 18.63 5.06998 13.27C5.04731 11.8779 5.5632 10.5309 6.50998 9.51002C6.08144 8.30422 6.13154 6.98 6.64998 5.81002C6.64998 5.81002 7.81998 5.43002 10.5 7.24002C12.7915 6.61497 15.2085 6.61497 17.5 7.24002C20.17 5.43002 21.34 5.81002 21.34 5.81002C21.8584 6.98 21.9085 8.30422 21.48 9.51002C22.4268 10.5309 22.9426 11.8779 22.92 13.27C22.92 18.65 19.65 19.83 16.53 20.18C16.8642 20.5188 17.1219 20.9252 17.2858 21.372C17.4497 21.8188 17.5159 22.2955 17.48 22.77V26.61C17.48 27.07 17.73 27.42 18.48 27.28C21.6369 26.2265 24.3153 24.0829 26.0348 21.2335C27.7544 18.3841 28.4026 15.0153 27.8633 11.7312C27.324 8.44714 25.6324 5.4626 23.0918 3.31279C20.5513 1.16298 17.328 -0.0114749 14 2.25871e-05Z" fill="#D96B6B"/>
</svg>
