<svg width="769" height="769" viewBox="0 0 769 769" fill="none" xmlns="http://www.w3.org/2000/svg">
<mask id="mask0_724_392" style="mask-type:alpha" maskUnits="userSpaceOnUse" x="13" y="26" width="743" height="743">
<circle cx="384.5" cy="397.5" r="371.5" fill="#44B1B1"/>
</mask>
<g mask="url(#mask0_724_392)">
<circle cx="384.5" cy="384.5" r="384.5" fill="#D96B6B"/>
<path d="M294.5 499.84L329.5 420.34L472.5 345.84L565.5 562.34L383 769.34H372.5L294.5 499.84Z" fill="url(#paint0_linear_724_392)"/>
<path d="M321 508.84C316 488.34 321 451.84 321 451.84C321 451.84 262 488.34 202 499.84C177.585 504.519 156.496 532.061 135.5 561.84C110.637 597.102 114.671 623.361 101.5 662.84C87.1179 705.95 65 773.34 65 773.34C259.333 773.673 699 781.8 703 781C707 780.2 695.5 563 686.5 542.5C677.5 522 620 501.84 591.5 490.34C563 478.84 545 459 530.5 436.34C530.5 436.34 514.885 528.583 491.5 586.84C460.429 664.245 375 769.34 375 769.34C375 769.34 345.754 610.333 321 508.84Z" fill="#D7D7D9"/>
<path d="M576 481.84L560 569.84L526.5 579.34L537 614.84L374 773.34" stroke="#BFB8B8"/>
<path d="M301.363 471.84L286.778 547.475L310.711 565.544L291.216 590.772L372.67 768.827" stroke="#BFB8B8"/>
<path d="M320 498.84C324.6 478.903 322 449.34 322 449.34L449.5 329.84L454 387.34C454 387.34 441.446 437.328 447.5 453.34C453.553 469.351 451.946 486.328 458 502.34C464.053 518.351 443.933 548.696 449.5 577.84C454.48 603.915 479.5 638.84 479.5 638.84C479.5 638.84 506.771 565.847 525.5 536.84C534.262 523.268 550 542.84 550 542.84V488.84L608 496C608 496 568.084 476.463 559 467C541.253 448.513 536.511 446.372 531.764 428.84C525.64 406.223 532.752 385.75 531.764 362.34C530.432 330.776 522.945 293.34 510.5 268.34C498.054 243.34 496.5 218.84 470 173.84C443.5 128.84 424.068 125.911 387.5 114.34C359.389 105.445 334.628 106.34 324 114.34C318.259 118.661 300.5 131.34 300.5 131.34C300.5 131.34 275.465 134.648 260.5 140.34C244.563 146.401 236.651 152.329 222.5 161.84C209.338 170.686 200.568 181.491 195 196.34C185.999 220.34 190.849 228.296 195 249.84C199.362 272.478 217.5 304.84 217.5 304.84L232 334.84L256.5 380.34C256.5 380.34 255 397.34 255 416.84C255 428.165 262.119 453.299 255 461.34C244.916 472.728 233.278 478.77 227.5 492.84C222.456 505.122 216.515 512.599 217.5 525.84C219.033 546.462 231.5 591.34 231.5 591.34L247 540.84C247 540.84 239.548 569.393 241 587.84C242.401 605.648 253.5 631.84 253.5 631.84C253.5 631.84 258.716 603.978 266.5 587.84C276.595 566.908 288.895 559.31 303 540.84C314.424 525.88 315.767 517.181 320 498.84Z" fill="#AB8770"/>
<ellipse cx="268" cy="396.84" rx="21.5" ry="26" fill="#784242"/>
<path d="M271.499 173.34C271.499 173.34 288.852 156.341 302.999 151.34C319.571 145.481 347.999 150.34 347.999 150.34C347.999 150.34 395.553 165.355 418 189.34C438.527 211.273 455.999 259.34 455.999 259.34C455.999 259.34 462 243.34 468 243.34C476.972 244.491 482.499 260.84 482.499 260.84C482.499 260.84 483.975 281.055 482.499 294.84C481.634 302.915 481.278 308.15 477.5 315.34C474.096 321.819 471.569 329.836 466 330.34C460.431 330.843 452.999 326.34 452.999 326.34C452.999 326.34 457.021 346.44 455.999 359.34C455.451 366.252 452.999 376.84 452.999 376.84C452.999 376.84 438.809 400.911 426.5 414.34C413.14 428.915 387.499 445.84 387.499 445.84C387.499 445.84 369.434 456.732 356.5 457.84C344.022 458.908 324.999 451.84 324.999 451.84C324.999 451.84 293.283 434.682 279 416.84C268.466 403.68 265.109 395.978 257.5 380.84C252.127 370.151 246.124 365.241 242.499 353.84C240.317 346.978 239.506 342.97 238.499 335.84C236.695 323.079 238.499 302.84 238.499 302.84C238.499 302.84 230.663 280.84 229.999 275.34C228.971 266.84 233.404 253.167 233.999 238.84C234.363 230.061 233.017 226.178 233.999 216.34C235.474 201.562 237.691 188.653 249.999 180.34C257.934 174.98 271.499 173.34 271.499 173.34Z" fill="#D89F82"/>
<path d="M336 250.34C336 250.34 330.444 246.148 331.501 240.34C332.501 234.84 342.894 231.343 353 227.84C363.214 224.299 369.194 223.133 380 222.84C387.509 222.636 400 225.84 400 225.84L404.5 232.34C404.5 232.34 394.363 228.097 387.5 227.84C379.5 227.54 375.078 229.756 367.5 232.34C354.09 236.912 336 250.34 336 250.34Z" fill="#6A483A"/>
<path d="M274.119 268.585C274.119 268.585 277.267 262.378 273.765 257.625C270.449 253.125 259.577 254.553 248.959 255.849C238.229 257.159 229.999 260.967 230 272.84C230 280.846 230 268.585 237.914 266.265C251.509 262.278 274.119 268.585 274.119 268.585Z" fill="#6A483A"/>
<path d="M334 136.84C325.733 134.028 304.5 136.84 304.5 136.84C304.5 136.84 322.142 123.373 334 123.34C354.296 123.283 368.381 131.075 384.5 147.34L384.515 147.355C398.091 161.053 405.44 168.468 415.5 189.34C428.618 216.556 428.676 234.975 442.5 261.84C446.7 270.002 457.82 277.126 461 289.84C463.321 299.122 456.5 317.34 456.5 317.34C456.5 317.34 459.119 300.958 453 292.34C444.907 280.942 433.019 275.863 422.5 266.34C401.049 246.92 400.671 220.431 384.5 196.84C366.037 169.904 362.995 146.7 334 136.84Z" fill="#B68D74"/>
<path d="M293.5 382.34L302 378.34L307.5 386.34L304.5 389.84L293.5 382.34Z" fill="#653B3B"/>
<path d="M370.5 367.34L379 371.34L387 360.84L381.5 359.84L370.5 367.34Z" fill="#653B3B"/>
<path d="M375 365.34C348.027 359.263 305.5 378.84 305.5 378.84C305.5 378.84 302.108 378.186 302 380.84C301.904 383.189 302.289 385.727 304 387.34C309.975 392.971 323 396.34 323 396.34L367 380.84C367 380.84 382.5 368.073 379 366.34C377.557 365.625 376.571 365.694 375 365.34Z" fill="#D8B1B1"/>
<path d="M315.5 369.34C305.49 370.914 293 382.34 293 382.34C293 382.34 317.801 380.553 334.5 377.34C355.935 373.215 387.5 359.84 387.5 359.84C387.5 359.84 357.5 357.34 342 362.34C337.179 363.895 330 369.34 330 369.34C330 369.34 321.094 368.46 315.5 369.34Z" fill="#B65252"/>
<path d="M313.5 398.34C304.166 394.745 293.5 382.34 293.5 382.34C293.5 382.34 305.16 389.242 313.5 390.34C322.289 391.496 328.344 390.251 337 388.34C350.39 385.383 357.64 382.613 369 375.34C376.938 370.258 387.5 359.84 387.5 359.84C387.5 359.84 376.719 375.848 367.5 383.84C362.749 387.959 359.981 390.258 354.5 393.34C347.069 397.518 342.475 399.921 334 400.84C325.982 401.709 321.026 401.238 313.5 398.34Z" fill="#A94949"/>
<ellipse cx="334.928" cy="333.462" rx="9.24795" ry="2" transform="rotate(-17.0411 334.928 333.462)" fill="#564040"/>
<path d="M304.126 342.247C303.863 343.4 301.377 343.816 298.575 343.176C295.772 342.535 293.713 341.081 293.977 339.928C294.24 338.775 296.726 338.359 299.529 338.999C302.332 339.64 301.5 340.34 304.126 342.247Z" fill="#564040"/>
<ellipse cx="470" cy="377.84" rx="21.5" ry="26" fill="#784242"/>
<ellipse cx="467" cy="337.84" rx="11.5" ry="14" fill="#784242"/>
</g>
<defs>
<linearGradient id="paint0_linear_724_392" x1="391" y1="355.34" x2="429.5" y2="488.34" gradientUnits="userSpaceOnUse">
<stop stop-color="#BF9179"/>
<stop offset="1" stop-color="#D89F82"/>
</linearGradient>
</defs>
</svg>
