<svg width="35" height="40" viewBox="0 0 35 40" fill="none" xmlns="http://www.w3.org/2000/svg">
<path d="M31.9241 4.15048L8.66473 0.0432501C7.91858 -0.088055 7.15082 0.0823662 6.53029 0.517037C5.90976 0.951708 5.48728 1.61504 5.35574 2.36115L0.043131 32.5403C-0.0218473 32.9101 -0.0133348 33.289 0.0681818 33.6554C0.149698 34.0218 0.302621 34.3686 0.518211 34.6759C0.733802 34.9832 1.00783 35.245 1.32465 35.4463C1.64146 35.6477 1.99485 35.7846 2.36461 35.8493L25.624 39.9566C25.9939 40.0218 26.3729 40.0135 26.7396 39.9321C27.1062 39.8507 27.4532 39.6978 27.7607 39.4822C28.0682 39.2666 28.3302 38.9925 28.5316 38.6755C28.7331 38.3586 28.8701 38.005 28.9348 37.6351L34.2474 7.4559C34.3775 6.7095 34.2059 5.94197 33.7702 5.32211C33.3346 4.70224 32.6705 4.2808 31.9241 4.15048ZM18.481 20.6347C18.4227 20.9652 18.2499 21.2646 17.9929 21.4805C17.736 21.6963 17.4112 21.8148 17.0756 21.8151C16.9918 21.8151 16.9082 21.8079 16.8256 21.7937L9.41475 20.4847C9.06255 20.3981 8.75649 20.1808 8.55864 19.8768C8.36079 19.5728 8.28596 19.205 8.34934 18.8478C8.41273 18.4907 8.60956 18.1711 8.89994 17.9538C9.19031 17.7364 9.55248 17.6377 9.91297 17.6775L17.3203 18.9794C17.5052 19.0117 17.682 19.0802 17.8405 19.1809C17.999 19.2817 18.136 19.4127 18.2438 19.5664C18.3516 19.7202 18.4281 19.8936 18.4688 20.077C18.5095 20.2603 18.5136 20.4498 18.481 20.6347ZM26.874 16.3168C26.8158 16.647 26.6433 16.9461 26.3866 17.1619C26.13 17.3777 25.8057 17.4964 25.4704 17.4972C25.386 17.4973 25.3017 17.4896 25.2186 17.474L10.3969 14.8578C10.0237 14.7918 9.69203 14.5802 9.47486 14.2695C9.25768 13.9589 9.17279 13.5748 9.23885 13.2016C9.30492 12.8283 9.51654 12.4967 9.82715 12.2795C10.1378 12.0623 10.5219 11.9774 10.8951 12.0435L25.7169 14.6614C25.902 14.6936 26.079 14.7619 26.2376 14.8625C26.3963 14.9632 26.5336 15.0941 26.6416 15.2479C26.7496 15.4017 26.8261 15.5753 26.867 15.7587C26.9078 15.9421 26.912 16.1317 26.8794 16.3168H26.874ZM27.8651 10.6881C27.8068 11.0186 27.634 11.318 27.3771 11.5338C27.1201 11.7497 26.7953 11.8681 26.4597 11.8685C26.376 11.8684 26.2923 11.8612 26.2097 11.8471L11.388 9.22915C11.199 9.20134 11.0175 9.13589 10.8542 9.03669C10.6909 8.93749 10.5492 8.80656 10.4375 8.65163C10.3257 8.49669 10.2461 8.32092 10.2035 8.1347C10.1608 7.94847 10.156 7.75559 10.1892 7.56746C10.2224 7.37932 10.293 7.19976 10.3968 7.03939C10.5006 6.87902 10.6356 6.74111 10.7936 6.6338C10.9517 6.5265 11.1297 6.45199 11.317 6.41468C11.5044 6.37737 11.6973 6.37802 11.8844 6.41659L26.7062 9.03272C26.8915 9.06466 27.0686 9.13286 27.2275 9.23341C27.3864 9.33397 27.5238 9.46489 27.632 9.61869C27.7402 9.77248 27.8169 9.94611 27.8578 10.1296C27.8988 10.3131 27.9031 10.5029 27.8705 10.6881H27.8651Z" fill="#D96B6B"/>
</svg>
