<svg width="2692" height="3589" viewBox="0 0 2692 3589" fill="none" xmlns="http://www.w3.org/2000/svg">
<rect width="2692" height="3589" fill="#C277DC" fill-opacity="0.63"/>
<path d="M2365.5 3039C2365.5 3039 2359.29 3070.28 2365.5 3096.5C2371.58 3122.16 2389.08 3143.86 2395.5 3168.5C2403.25 3198.22 2401.05 3222.58 2427.5 3244C2447.68 3260.34 2457.15 3261.25 2489 3268.5C2538.75 3279.83 2610 3258 2610 3258L2604.5 3192C2604.5 3192 2577.33 3149.42 2563 3119C2549.03 3089.33 2527.5 3032 2527.5 3032L2438.5 2978.5L2365.5 3039Z" fill="black"/>
<path d="M1652.5 2874.5C1635 2802 1579 2702 1579 2702L1737.5 2691C1737.5 2691 1768.41 2791.96 1797 2853C1809.48 2879.65 1819.47 2893.5 1835 2918.5C1852.15 2946.1 1871.83 2966.32 1881.5 2997C1887.07 3014.67 1890.08 3022.25 1887.5 3036.5C1886.2 3043.67 1875.5 3051 1875.5 3051C1838.83 3059.17 1771 3075.8 1769 3077C1767 3078.2 1684.17 3011.5 1643 2978C1643 2978 1654.92 2955.74 1658.5 2942.5C1665.81 2915.48 1656.36 2890.5 1652.5 2874.5Z" fill="#8E5331"/>
<path d="M2345.5 2921.5C2334.5 2863.5 2312 2676.5 2312 2676.5L2427 2598L2518 2603.5L2529.5 2625.5C2529.5 2625.5 2526.78 2656.62 2524.5 2676.5C2516.74 2744.21 2497.68 2780.4 2495 2848.5C2493.22 2893.82 2499.5 2917 2500.5 2964.5C2505.51 2985.33 2518 3016.5 2518 3016.5L2529.5 3036.5H2524.5C2524.5 3036.5 2474.67 2991.17 2438 2997C2410.46 3001.38 2394.85 3013.9 2378.5 3036.5C2360.62 3061.21 2368.5 3105.5 2368.5 3105.5C2368.5 3105.5 2346.07 3108.54 2338 3105.5C2322.39 3099.62 2317.33 3092.81 2312 3077C2307.04 3062.29 2308.94 3052.41 2311.83 3037.36L2312 3036.5C2316.33 3013.95 2322.15 2998.89 2330.5 2977.5C2338.5 2957 2351.2 2951.53 2345.5 2921.5Z" fill="#8E5331"/>
<path d="M2425.5 2594.5L2311 2675.5L2331.5 2831.5L2496.5 2822L2523 2675.5L2532 2621.5L2516 2599L2425.5 2594.5Z" fill="url(#paint0_linear_46_190)"/>
<path d="M2375 2947.5C2370.5 2915 2313.5 2679 2313.5 2679C2313.5 2679 2349 2929.5 2343 2947.5C2337.74 2963.29 2339.13 2964.74 2332.5 2980C2320.65 3007.26 2308 3053.5 2312 3070C2315.77 3085.56 2346 3090 2346 3090C2346 3090 2365.4 3034.62 2370.5 3025C2378.15 3010.58 2383.5 2997 2383.5 2987.5C2383.5 2978 2377.94 2968.76 2375 2947.5Z" fill="#A36847"/>
<path d="M2452 3207C2448.5 3210.57 2438.94 3235.04 2448.5 3247C2452.5 3252 2476 3251 2501.5 3253C2511.33 3253.77 2517.61 3253.76 2526.5 3249.5C2533.02 3246.38 2541 3238 2541 3238C2541 3238 2564.5 3256 2588.5 3238C2592.55 3234.96 2600 3244 2600 3244V3207C2600 3207 2585.73 3196.44 2575.5 3195C2569.7 3194.19 2560.5 3197 2560.5 3197C2560.5 3197 2552.5 3193.5 2545.5 3190.5C2542 3189 2530.27 3185.1 2523.5 3189C2516.53 3193.02 2508.5 3207 2508.5 3207C2508.5 3207 2494.79 3201.18 2485.5 3199.5C2469.84 3196.67 2461.39 3197.43 2452 3207Z" fill="#8E5331"/>
<path d="M1908.5 3111C1907.75 3084.36 1896 3051 1896 3051C1896 3051 1859.35 3052.82 1835.5 3057C1809.14 3061.62 1770 3075.5 1770 3075.5C1770 3075.5 1729.24 3042.78 1703.5 3022C1680.56 3003.48 1645 2975.5 1645 2975.5C1645 2975.5 1624.43 2995.61 1613 3010C1590.86 3037.88 1591.02 3066.19 1562.5 3087.5C1544.11 3101.24 1513 3111 1513 3111L1535 3137.5C1535 3137.5 1551.19 3148.65 1562.5 3157C1571.39 3163.56 1587.5 3173 1587.5 3173H1645C1645 3173 1684.5 3153 1730.5 3123.5C1751.75 3109.87 1781.5 3100 1781.5 3100C1781.5 3100 1775.5 3122.64 1774 3137.5C1772.46 3152.85 1774 3177 1774 3177L1903.5 3173C1903.5 3173 1909.18 3135.28 1908.5 3111Z" fill="black"/>
<path d="M2322.5 3093.5L2369.5 3103C2369.5 3103 2388.93 3139.27 2395.5 3164.5C2402.67 3192.03 2425 3233.5 2425 3233.5L2339 3229C2339 3229 2331.67 3189.82 2328.5 3164.5C2325.04 3136.89 2322.5 3093.5 2322.5 3093.5Z" fill="black"/>
<path d="M2372 3063C2375.32 3050.78 2383 3036.5 2383 3036.5L2394.5 3021.5C2394.5 3021.5 2404.53 3038.36 2408 3048C2414.09 3064.9 2405.51 3076.21 2408 3094C2411.31 3117.67 2426.38 3128.13 2427.5 3152C2428.81 3179.78 2408 3207 2408 3207C2408 3207 2404.97 3181.17 2394.5 3156C2386.9 3137.73 2379.33 3132.19 2374.5 3113C2370.4 3096.72 2367.6 3079.21 2372 3063Z" fill="#857F7F" fill-opacity="0.26"/>
<path d="M1895 1592L1730 1677C1730 1677 1724.74 1687.96 1725.5 1697C1726.46 1708.45 1739.5 1723 1739.5 1723C1739.5 1723 1733.56 1728.27 1732.5 1733C1731.16 1738.98 1739.5 1743.5 1739.5 1743.5C1739.5 1743.5 1737.5 1763.77 1739.5 1776.5C1740.72 1784.27 1744.5 1796 1744.5 1796C1744.5 1796 1734.89 1816.08 1737 1830C1738.49 1839.85 1744.5 1852.5 1744.5 1852.5L1732.5 1857C1732.5 1857 1720.7 1868.37 1713 1875.5C1684.12 1902.23 1665.15 1913.72 1636 1940.5C1606.61 1967.5 1563.5 2013 1563.5 2013L1484 2096.5L1434.5 2125L1413.5 2166C1413.5 2166 1412.89 2199.55 1413.5 2222C1416.08 2316.85 1432 2469 1432 2469C1432 2469 1444.42 2489.96 1444 2506.5C1443.75 2516.5 1437.14 2552.75 1444 2579.5C1454 2618.5 1504 2757 1504 2757H1607C1607 2757 1599.53 2739.81 1593.5 2727.5C1589.19 2718.72 1580 2703 1580 2703L1737.5 2692.5L1749.5 2729.5L1757.5 2731C1757.5 2731 1749.9 2705.4 1745 2689C1729.17 2636.03 1719.95 2606.43 1704 2553.5C1697.35 2531.44 1690.73 2519.74 1687 2497C1686.01 2490.98 1685 2481.5 1685 2481.5C1685 2481.5 1683.42 2458.58 1680.5 2444C1678.38 2433.4 1677.77 2427.93 1673.5 2418C1670.81 2411.74 1666.5 2401.5 1666.5 2401.5C1666.5 2401.5 1667.05 2390.97 1664.5 2385C1662.65 2380.66 1660.75 2378.57 1657.6 2375.11L1657.5 2375C1651.35 2368.23 1646.82 2364.44 1638 2362C1629.33 2359.61 1615 2363 1615 2363V2360.5C1615 2360.5 1619.38 2358.95 1621.5 2357C1622.58 2356 1624.03 2346.34 1624.5 2339C1625.2 2328.03 1619 2312 1619 2312C1619 2312 1631.76 2305.43 1639.5 2300.5C1653.57 2291.54 1673 2274 1673 2274C1673 2274 1689.33 2269.86 1698.5 2264.5C1731 2245.5 1844.72 2183.07 1931 2119C2010.65 2059.86 2124 1953 2124 1953C2124 1953 2153.6 1970.92 2169 1986.5C2184.13 2001.81 2201.5 2031 2201.5 2031C2201.5 2031 2193.94 2046.37 2192 2057C2189.93 2068.33 2190.55 2075.07 2192 2086.5C2193.45 2097.93 2236.5 2154.5 2238 2165.5C2239.5 2176.5 2229.64 2209.3 2228 2232C2224.96 2274 2250.86 2312.15 2253 2370.5C2253.62 2387.28 2252.36 2396.72 2253 2413.5C2253.64 2430.28 2270.15 2509.67 2282 2571.5C2288.23 2604 2291.58 2642 2296.5 2655.5C2299.98 2665.04 2307.5 2682 2307.5 2682C2307.5 2682 2415.5 2605.75 2426 2604C2436.5 2602.25 2507.98 2601.14 2515.5 2607.5C2522 2613 2521.53 2619.67 2524.5 2629C2526.57 2635.5 2524.5 2678.5 2524.5 2678.5C2524.5 2678.5 2547.65 2679.81 2557.5 2671C2562.42 2666.6 2563.8 2662.78 2567 2657C2570.2 2651.22 2567.1 2600.67 2565.5 2564C2564.73 2546.5 2562.45 2515.57 2560.5 2483C2558.36 2447.14 2557.5 2423.93 2557.5 2388C2557.5 2351.29 2559.57 2330.65 2557.5 2294C2553.62 2225.25 2529 2143 2529 2120C2529 2088.6 2547.79 2073.47 2544 2041C2540.18 2008.26 2523.83 1996.15 2510.5 1966C2496.39 1934.09 2495.14 1914.2 2483 1881C2469.2 1843.25 2457.39 1823.75 2442.5 1785.5C2431.64 1757.59 2424.5 1721 2416 1711.5C2407.5 1702 2386.26 1639.23 2349 1596.5C2301.74 1542.32 2260.87 1530.41 2202 1482.5C2175.37 1460.83 2125 1422 2125 1422L1982.5 1523L1895 1592Z" fill="black"/>
<path d="M2409.5 2448.5C2396.65 2377.28 2392 2264 2392 2264C2392 2264 2397.32 2482.77 2392 2507.5C2386.68 2532.23 2375 2579.5 2375 2579.5L2363.5 2631L2441.5 2579.5C2441.5 2579.5 2418.85 2500.33 2409.5 2448.5Z" fill="#857E7E" fill-opacity="0.26"/>
<path d="M2519.5 2113.5L2479.5 1989.5L2529 2069.5L2519.5 2113.5Z" fill="#857E7E" fill-opacity="0.26"/>
<path d="M1442.5 981.5C1435.17 961.953 1434 927.5 1434 927.5C1434 927.5 1464.35 954.875 1490.5 961.5C1510.56 966.584 1520 960.321 1540 955C1563.76 948.678 1563.48 940.182 1582 924C1595.16 912.5 1625 880.5 1625 880.5C1625 880.5 1621.21 920.61 1621.5 939C1621.89 964.185 1630 992.38 1635 998C1644.93 1009.16 1669 1015.5 1669 1015.5V1070V1139L1619 1313L1541.5 1393.5H1500.5L1459.5 1390.5L1424.5 1344.5L1397.5 1299.5C1397.5 1299.5 1404.89 1300.34 1409.5 1299.5C1419 1297.77 1427.93 1271.11 1433 1250.5C1440.5 1220 1455.76 1157.59 1472 1098.5C1478.29 1075.61 1481.5 1048.5 1481.5 1038.5C1481.5 1031.14 1476.86 1027.96 1475 1022C1470 1006 1449.25 999.504 1442.5 981.5Z" fill="#C27C52"/>
<path d="M1558 1344.5C1568.5 1354.25 1587 1361.5 1587 1361.5L1563 1388.5L1538.5 1419.5C1538.5 1419.5 1547.43 1375.62 1542.5 1347.5C1537.75 1320.42 1514.5 1256 1514.5 1256C1514.5 1256 1547.5 1334.75 1558 1344.5Z" fill="url(#paint1_linear_46_190)" fill-opacity="0.25"/>
<path d="M1556 2039.5C1554.55 2024.53 1558.56 2013.58 1558 2007.5C1557.44 2001.42 1556.23 1995.6 1556 1989.5C1555.68 1980.9 1557.33 1959.68 1558 1951.05L1558 1951C1561.97 1900 1559.26 1890.14 1558 1839C1556.8 1790.34 1552 1736.5 1552 1714.5C1552 1679.15 1545.18 1661.26 1535.5 1625.5C1529.14 1602.02 1522.53 1585.44 1516 1562C1511.47 1545.76 1512.21 1542.73 1505 1533C1493.76 1517.84 1477.47 1518.92 1462.5 1510C1450.99 1503.14 1443.07 1498.4 1438 1486C1433.5 1475 1415.13 1424.64 1397 1383C1384.62 1354.57 1380.01 1320.62 1361.5 1296.5C1349.37 1280.7 1328.5 1274.5 1328.5 1274.5C1328.5 1274.5 1324.47 1334.14 1328.5 1372C1332.26 1407.3 1338.63 1426.66 1347 1461C1358.88 1509.76 1373.04 1533.59 1388 1581.5C1391.7 1593.35 1394.33 1599.68 1397 1612C1406.65 1656.54 1405.76 1682.82 1417.5 1727.5C1423.11 1748.83 1425.03 1762.58 1432 1783.5C1448 1831.5 1476.73 1890.79 1489 1963.5C1491.04 1975.56 1492.96 1982.28 1493.5 1994.5C1494.01 2006.02 1493.5 2017 1492 2024C1490.5 2031 1437.4 2082.7 1433 2085.5C1428.6 2088.3 1418.5 2107.83 1415.5 2115C1412.5 2122.17 1400.5 2133 1400.5 2133L1415.5 2223.5C1415.5 2223.5 1424.3 2208.61 1423 2198.5C1422.28 2192.92 1419.29 2190.89 1418 2185C1415.82 2175.04 1418.91 2169.33 1423 2160C1433.39 2136.31 1457 2115 1467 2110.5C1474.93 2106.93 1489 2107 1489 2107C1489 2107 1489.46 2115.25 1489 2120.5C1487.56 2136.94 1470.59 2143.4 1474 2160C1475.49 2167.27 1478 2175 1479.5 2177C1481 2179 1489 2185 1489 2185C1489 2185 1499.35 2167.88 1505 2157C1511.38 2144.72 1512.13 2138.54 1518 2126C1522.68 2115.99 1526.72 2110.24 1533 2102C1543.75 2087.9 1553.52 2082.53 1556 2066C1557.56 2055.6 1557.05 2050.31 1556.05 2040L1556 2039.5Z" fill="#C27C52"/>
<path d="M1494 2178.5C1497.32 2173.08 1501 2163 1501 2163C1501 2163 1492.18 2162.37 1487 2165.5C1481.31 2168.93 1482.05 2173.1 1481.5 2180.5C1481.07 2186.29 1482.5 2190.5 1482.5 2190.5C1482.5 2190.5 1489.59 2185.71 1494 2178.5Z" fill="#C63838"/>
<path d="M1700.5 945C1710.39 931.14 1733.5 916.5 1733.5 916.5C1733.5 916.5 1715.29 924.235 1705.5 932C1699.76 936.547 1696.74 939.422 1692 945C1680.88 958.093 1677.58 968.085 1672.27 984.196L1672 985C1668.42 995.841 1667.24 1002.22 1665.5 1013.5C1661.74 1037.81 1657.5 1061 1657.5 1083C1657.5 1095.5 1652.71 1111.92 1649.5 1124C1643.56 1146.34 1641.5 1171 1641.5 1171L1621 1241.5C1621 1241.5 1610.62 1282.71 1598 1306.5C1587.74 1325.83 1583.31 1342.03 1569.5 1359C1557.21 1374.11 1550.09 1381.76 1532 1389C1516.23 1395.31 1488.5 1389 1488.5 1389C1488.5 1389 1472.32 1384.69 1463 1378.5C1438.38 1362.17 1431.1 1353.4 1416 1328C1410.15 1318.16 1397.5 1295 1397.5 1295H1371H1358.5L1380 1352.5C1380 1352.5 1417 1458.5 1442 1493C1464.98 1524.71 1488.11 1515.52 1515.5 1543.5C1523.33 1551.5 1535.5 1565.77 1541 1572C1562.95 1596.88 1572.38 1617.38 1591.5 1644.5C1613 1674.99 1634.5 1719.5 1634.5 1719.5L1673.5 1710.5C1673.5 1710.5 1698.38 1696.29 1714.5 1687.5C1746.7 1669.94 1764.92 1660.34 1798 1644.5C1883.26 1603.67 2023.5 1556.5 2023.5 1556.5L1991.5 1501L1884 1335.5L1795 1207.5C1795 1207.5 1778.64 1202.05 1770.5 1196.5C1757.22 1187.45 1746.19 1188.35 1733.5 1178.5C1719.91 1167.96 1715.51 1160.4 1705.5 1144.5C1692.31 1123.54 1681.5 1083 1681.5 1083C1681.5 1083 1677.41 1053.18 1678 1034C1678.56 1015.7 1679.45 1005.24 1684 987.5C1688.42 970.254 1690.16 959.491 1700.5 945Z" fill="#161616"/>
<path d="M1719 927.5C1725.39 922.734 1729.17 920.137 1736.5 917C1750.64 910.946 1759.9 910.079 1775.5 911.5C1782.5 912.138 1795.12 914.386 1806.5 919.5C1821.17 926.094 1828.17 931.175 1841 942C1853.52 952.562 1860.88 959.744 1870.5 973C1882.91 990.106 1886.68 1001.83 1899 1019C1906.22 1029.06 1918.5 1044 1918.5 1044C1918.5 1044 1943.67 1071.03 1956 1090C1967.85 1108.23 1972.44 1119.47 1982 1139C1995.46 1166.5 2014.43 1206.53 2030 1252.5C2039.69 1281.13 2041.54 1298.29 2051 1327C2055 1339.15 2058.99 1367.99 2074 1389C2083.87 1402.82 2093.46 1406.44 2105 1419.5C2122.56 1439.37 2128.95 1453.89 2142 1477C2161.17 1510.94 2180.82 1555.95 2185.5 1566.5C2214.59 1632.03 2219.83 1653.09 2230.5 1670.5C2241.17 1687.91 2259 1712.5 2259 1712.5C2259 1712.5 2263.1 1726.46 2270.5 1734C2276.04 1739.64 2288.5 1747.5 2288.5 1747.5C2288.5 1747.5 2308.8 1743.99 2321 1747.5C2326.3 1749.02 2334 1753 2334 1753C2334 1753 2350.01 1748.58 2360.5 1753C2369.03 1756.59 2372.81 1760.61 2379.5 1767C2383 1770.35 2410.01 1785.35 2425.5 1803.5C2431.13 1810.1 2436.85 1814.18 2441.5 1821.5C2447.78 1831.38 2450.2 1837.56 2455.5 1848C2457.48 1851.89 2457.97 1854.44 2460.5 1858C2463.22 1861.82 2469 1866.5 2469 1866.5V1876H2458L2460.5 1885.5L2471 1898.5L2478.5 1907.5L2469 1916V1922L2452 1930.5C2452 1930.5 2429.3 1921.33 2420 1911C2415.5 1906 2404.03 1901.57 2396 1890C2390.67 1882.32 2383 1869 2383 1869C2383 1869 2372.93 1862.73 2367 1858C2360.3 1852.66 2351 1843 2351 1843L2317.5 1816C2317.5 1816 2330 1838 2335 1843C2338.31 1846.31 2339.7 1851.73 2343.5 1856.5C2349.2 1863.64 2352.53 1868.78 2358 1876C2361.35 1880.42 2362.27 1883.04 2365.5 1887C2373.79 1897.15 2378.5 1907.5 2383 1915C2387.16 1921.94 2383 1936.5 2383 1936.5C2383 1936.5 2371.51 1934.8 2363.5 1930.5C2355.45 1926.19 2350.62 1918.26 2345 1911C2340.83 1905.61 2338.8 1903.47 2335 1898.5C2331.18 1893.51 2329.82 1890.39 2325.5 1885.5C2319.38 1878.56 2317.29 1874.01 2310 1869C2304.82 1865.44 2301.5 1861.5 2297 1858C2291 1853.33 2291.01 1850.94 2286 1848C2279.55 1844.21 2274.31 1845.67 2267.5 1843C2260.42 1840.22 2250.5 1834 2250.5 1834L2246.5 1843C2246.5 1843 2252.16 1848.03 2256 1851C2266.81 1859.36 2267.76 1865.5 2270.5 1869C2276.04 1876.09 2280 1877 2282.5 1885.5C2285.08 1894.26 2288.5 1907.5 2288.5 1907.5L2230.5 1876C2230.5 1876 2215.08 1868.77 2207 1866.5C2198.92 1864.23 2184 1855.5 2175.5 1843C2168.8 1833.15 2171 1810 2171 1810C2171 1810 2168.46 1802.88 2166 1799.5C2157.25 1787.5 2156.69 1773 2153 1766C2147.7 1755.95 2123.45 1718.14 2118.5 1708C2113.55 1697.86 2070.36 1643.16 2043 1601C2028.8 1579.12 2022.73 1565.68 2009 1543.5C1977.88 1493.21 1936.31 1441 1923.5 1418.5C1914.51 1402.71 1911.2 1392.87 1901.5 1377.5C1894.62 1366.6 1890.37 1361.88 1882.5 1350.5C1872.97 1336.71 1867.71 1327.78 1859 1312.5C1849.4 1295.67 1839.78 1281.64 1830.5 1270C1802.68 1235.1 1763.5 1192 1763.5 1192C1763.5 1192 1747.04 1186.71 1737.5 1180.5C1725.57 1172.74 1720.67 1166.11 1711.5 1154.5C1695.59 1134.35 1690.11 1119.43 1684 1094.5C1680.47 1080.1 1679.1 1071.79 1678 1057C1676.34 1034.77 1676.87 1021.9 1681 1000C1684.8 979.854 1685.41 966.908 1697 950C1703.95 939.865 1709.15 934.85 1719 927.5Z" fill="#C27C52"/>
<path d="M2275.5 1893.5C2268.13 1890.93 2258.5 1891.5 2258.5 1891.5L2292.5 1913.5C2292.5 1913.5 2287.02 1897.52 2275.5 1893.5Z" fill="#C63838"/>
<path d="M2364 1931C2370.19 1936.02 2383.5 1937 2383.5 1937C2383.5 1937 2386.53 1924.48 2383.5 1917.5C2381.51 1912.91 2379.69 1910.24 2375.5 1907.5C2372.86 1905.77 2371.14 1904.82 2368 1904.5C2363.76 1904.06 2360.41 1904.39 2357.5 1907.5C2354.75 1910.44 2354.71 1913.49 2355 1917.5C2355.46 1923.82 2359.08 1927.01 2364 1931Z" fill="#C63838"/>
<path d="M2458.5 1929.5C2455.84 1930.67 2451.5 1931 2451.5 1931C2451.5 1931 2445.17 1926.87 2442.5 1923C2440.21 1919.69 2439.41 1917.37 2440.5 1913.5C2441.6 1909.59 2443 1908.24 2447 1907.5C2448.73 1907.18 2449.74 1907.44 2451.5 1907.5C2456.03 1907.66 2463 1909 2463 1909C2463 1909 2459.85 1904.31 2461 1901.5C2462.06 1898.89 2462.24 1899.57 2465 1899C2470.83 1897.8 2480 1908.5 2480 1908.5C2480 1908.5 2477.59 1912.37 2476.5 1913.5C2474.61 1915.46 2471 1915 2471 1915C2471 1915 2472.13 1918.59 2471 1921.5C2469.1 1926.4 2463.31 1927.38 2458.5 1929.5Z" fill="#C63838"/>
<path d="M2455.5 1869.5C2455.5 1869.5 2453.58 1865.65 2454.5 1863.5C2455.36 1861.5 2456.26 1861.5 2458.4 1861.5L2458.5 1861.5C2461 1861.5 2463 1865 2463 1865C2463 1865 2466 1871.5 2466 1873.5C2466 1875.5 2465.97 1876.46 2464 1877.5C2461.76 1878.69 2460.79 1877.59 2458.5 1876.5C2457.5 1876.02 2455.5 1869.5 2455.5 1869.5Z" fill="#C63838"/>
<path d="M1417.09 847.969C1405.04 847.028 1394.12 860.984 1392.71 879.141C1391.29 897.298 1399.91 912.78 1411.96 913.721C1417.88 914.184 1423.53 911.05 1427.91 905.589" stroke="#9C9797" stroke-width="10" stroke-linecap="round"/>
<path d="M1417.08 848.034C1405.03 847.093 1394.11 861.049 1392.69 879.206C1391.27 897.363 1399.89 912.845 1411.94 913.787C1417.86 914.249 1423.51 911.115 1427.89 905.654" stroke="url(#paint2_radial_46_190)" stroke-width="10" stroke-linecap="round"/>
<path d="M1517.5 601C1528.1 599.264 1546.5 601 1546.5 601C1546.5 601 1564.86 596.504 1579 601C1590 604.497 1610.93 621.492 1623 639.5C1635.9 658.748 1638.88 671.135 1644 695C1649.66 721.346 1648.61 739.077 1647.5 766C1646.7 785.363 1646.34 795.918 1644 815.5C1640.72 842.985 1633.5 873 1627.5 884.5C1622.02 895 1611.06 902.603 1600 914C1591.44 922.825 1587.83 928.988 1578.5 937C1558.23 954.412 1544.04 964.93 1517.5 968C1504.29 969.528 1497.01 969.118 1483.5 966C1461.6 960.945 1437.1 939.5 1434.5 935.5C1431.25 930.5 1427.97 923.144 1424 914.5L1423.87 914.22C1419.49 904.66 1416.4 897.936 1412 889.5C1402.99 872.236 1406.5 851.262 1406.5 843.5L1406.5 810C1406.5 805.964 1405.21 778 1410.5 766C1413.01 760.299 1419 752.5 1419 752.5V730.5C1419 730.5 1422.68 711.425 1427.5 699C1433.55 683.397 1437.37 674.686 1447 661C1456.5 647.5 1482.42 606.747 1517.5 601Z" fill="#D18B61"/>
<path d="M1575.5 602C1564.1 599.307 1546.5 604 1546.5 604C1546.5 604 1533.97 601.592 1526.5 602C1519.08 602.405 1515.02 601.537 1508 604C1500.67 606.575 1495.93 610.479 1490 615.5C1483.5 621 1478.32 623.601 1471.5 630.5C1460.6 641.526 1455.87 647.45 1447.5 660.5C1440.7 671.101 1437.68 677.521 1432.5 689C1428.82 697.154 1427.17 702.433 1424.51 710.963L1424.5 711C1421.92 719.273 1418 731.5 1418 731.5V752C1418 752 1415.82 757.212 1414 760.5C1412.48 763.256 1411.67 766.078 1410.5 769C1408.52 773.946 1407.89 779.245 1407 784.5C1405.97 790.579 1405.77 790.466 1404.5 796.5C1402.11 807.902 1401.01 814.39 1397.5 825.5C1393.7 837.533 1391.5 844.398 1385.5 855.5C1380.94 863.934 1377.93 868.465 1372 876C1364.4 885.66 1350 898.5 1350 898.5C1350 898.5 1365.47 873.198 1372 855.5C1376.21 844.075 1378.89 837.569 1380.5 825.5C1382 814.275 1379.75 807.801 1380.5 796.5L1380.52 796.156C1382.05 773.091 1382.97 759.159 1392.5 738C1400.4 720.469 1410.79 714.096 1420.5 697.5C1431.53 678.654 1434.09 666.464 1446.5 648.5C1458.98 630.436 1475.5 612.5 1483.5 606.5C1488.28 602.918 1498.95 590.699 1514 588.5C1518.5 587.842 1529 585.673 1537 586C1544.44 586.304 1547.88 586.371 1556 587.5C1567.68 589.124 1575.35 590.406 1586.5 596C1603.94 604.748 1614.01 613.115 1626 628.5C1634.87 639.884 1638.77 645.874 1644.5 660.5C1646.66 666 1651.82 677.957 1654 688C1657.06 702.117 1655.74 710.696 1660 724.5C1662.99 734.203 1665.84 739.243 1670 748.5C1675.39 760.5 1682.29 783.239 1684 807C1685.12 822.581 1684 847 1684 847C1684 847 1691.3 832.248 1699 825.5C1705.58 819.737 1718.5 814.5 1718.5 814.5C1718.5 814.5 1721.17 829.065 1722 838.5C1723.29 853.088 1723.4 861.423 1722 876C1721.15 884.852 1718.5 898.5 1718.5 898.5C1718.5 898.5 1730.5 901.47 1730.5 907C1730.5 911.5 1722 920.5 1722 920.5C1722 920.5 1715.1 923.835 1711 926.5C1705.99 929.755 1703.33 931.883 1699 936C1692.15 942.511 1688.93 946.936 1684 955C1678.43 964.098 1676.39 969.888 1673 980C1668.19 994.34 1665.5 1018 1665.5 1018C1665.5 1018 1653.98 1013.1 1647.5 1009.5C1638.81 1004.67 1635.51 1000.78 1630 992.5C1619.51 976.725 1623.5 965.384 1622 946.5C1620.17 923.532 1618.8 897.019 1622 887.5C1625.2 877.981 1630.15 873.966 1633.5 864.5C1637.94 851.972 1637.47 844.134 1639.5 831C1644.54 798.435 1647.69 779.952 1647.5 747C1647.41 731.945 1648.09 723.442 1645.5 708.5C1642.37 690.459 1639.72 679.721 1633.5 662.5C1628.87 649.674 1625.11 642.575 1616.5 632C1603.97 616.614 1594.81 606.56 1575.5 602Z" fill="#DBB468"/>
<path d="M1530.5 580.5C1516.95 584.273 1500.5 592 1500.5 592C1500.5 592 1530.66 585.848 1550 587.5C1563.32 588.638 1571.23 589.211 1583.5 594.5C1596.24 599.988 1601.93 605.035 1612.5 615C1622.18 624.123 1628.37 631.27 1635.5 642.5C1646.23 659.403 1648.47 671.123 1653.5 690.5C1657.58 706.222 1654.81 716.287 1660.5 731.5C1663.96 740.742 1668.17 744.904 1672 754C1679.73 772.379 1682.24 783.691 1684.5 803.5C1686.43 820.378 1684.5 847 1684.5 847C1684.5 847 1692.21 832.548 1700.5 826C1707.5 820.467 1720.5 815.5 1720.5 815.5C1720.5 815.5 1724.36 802.74 1723.5 794.5C1722.59 785.771 1715.5 773.5 1715.5 773.5C1715.5 773.5 1727.5 742.5 1727.5 735C1727.5 731.046 1722.99 729.694 1720.5 726C1713.96 716.28 1713.63 709.035 1708.5 698.5C1696.57 673.991 1681.21 648.206 1672 639C1660.5 627.5 1646.17 607.032 1623.5 594.5C1611.09 587.64 1605.09 582.266 1590.5 578C1581 575.221 1551.57 574.632 1530.5 580.5Z" fill="#821313"/>
<path d="M1699.5 816L1715.5 774C1715.5 774 1719.54 781.115 1720.5 786C1723.23 799.925 1699.5 816 1699.5 816Z" fill="url(#paint3_linear_46_190)" fill-opacity="0.33"/>
<path d="M1656.55 847.592C1644.65 849.697 1637.57 865.942 1640.74 883.876C1643.91 901.81 1656.14 914.642 1668.04 912.537C1673.89 911.502 1678.57 907.055 1681.44 900.67" stroke="#9C9797" stroke-width="10" stroke-linecap="round"/>
<path d="M1656.55 847.659C1644.65 849.764 1637.57 866.009 1640.74 883.943C1643.91 901.877 1656.14 914.709 1668.04 912.604C1673.89 911.57 1678.57 907.122 1681.44 900.738" stroke="url(#paint4_radial_46_190)" stroke-width="10" stroke-linecap="round"/>
<ellipse cx="1577.5" cy="753.5" rx="45.5" ry="34.5" fill="#242222"/>
<path d="M1620.5 753.5C1620.5 762.075 1615.92 770.02 1608.16 775.903C1600.4 781.788 1589.57 785.5 1577.5 785.5C1565.43 785.5 1554.6 781.788 1546.84 775.903C1539.08 770.02 1534.5 762.075 1534.5 753.5C1534.5 744.925 1539.08 736.98 1546.84 731.097C1554.6 725.212 1565.43 721.5 1577.5 721.5C1589.57 721.5 1600.4 725.212 1608.16 731.097C1615.92 736.98 1620.5 744.925 1620.5 753.5Z" stroke="#B96C12" stroke-width="5"/>
<path d="M1486.5 739.5C1486.5 739.5 1502.65 730.8 1512.5 731.5C1523.13 732.255 1536.5 744.5 1536.5 744.5" stroke="#B96C12" stroke-width="7"/>
<ellipse cx="1444.62" cy="744.346" rx="45.5" ry="34.5" transform="rotate(3.67604 1444.62 744.346)" fill="#242222"/>
<path d="M1487.53 747.103C1486.98 755.661 1481.9 763.296 1473.78 768.669C1465.66 774.044 1454.61 777.054 1442.57 776.28C1430.52 775.507 1419.95 771.107 1412.58 764.737C1405.22 758.369 1401.16 750.147 1401.71 741.589C1402.26 733.032 1407.33 725.397 1415.45 720.023C1423.58 714.648 1434.63 711.638 1446.67 712.412C1458.71 713.186 1469.29 717.585 1476.65 723.955C1484.02 730.324 1488.08 738.546 1487.53 747.103Z" stroke="#B96C12" stroke-width="5"/>
<path d="M1621 756L1647.5 773" stroke="#B96C12" stroke-width="7" stroke-linecap="round"/>
<path d="M1544 715C1544 715 1542.6 700 1544 696.5C1545 694 1566 693 1575.5 693C1592.55 693 1613.5 699 1622 706.5C1627.05 710.955 1632.5 731 1632.5 731C1632.5 731 1627.14 716.021 1622 712.5C1616.86 708.979 1601.69 703.926 1590.12 704C1578.74 704.072 1544 715 1544 715Z" fill="#481D1D" fill-opacity="0.88"/>
<path d="M1494.77 712.275C1494.77 712.275 1497.97 697.553 1497 693.91C1496.31 691.308 1469.5 686.5 1460 686.5C1447.5 686.5 1436.5 690 1431 692.5L1429 697.5C1434.52 694.624 1442.89 694.328 1454.36 695.795C1465.65 697.24 1494.77 712.275 1494.77 712.275Z" fill="#481D1D" fill-opacity="0.88"/>
<path d="M1475 824.5C1469.41 832.032 1462.5 846.5 1462.5 846.5C1462.5 846.5 1479.95 829.5 1486 829.5C1492.05 829.5 1494.95 831.5 1501 831.5C1507.05 831.5 1509.35 829.856 1514.5 831C1523.5 833 1546.5 853.5 1546.5 853.5C1546.5 853.5 1539.39 838.919 1533 830.5C1526.82 822.358 1519 813.878 1515 814C1509.15 814.178 1505 818 1501.5 818C1498 818 1489.5 813.177 1486 814C1482.5 814.823 1478.96 819.158 1475 824.5Z" fill="#862828"/>
<path d="M1475.5 824.594C1469.91 832.126 1463 846.594 1463 846.594C1463 846.594 1480.45 829.594 1486.5 829.594C1492.55 829.594 1495.45 831.594 1501.5 831.594C1507.55 831.594 1509.85 829.951 1515 831.094C1524 833.094 1547 853.594 1547 853.594C1547 853.594 1539.89 839.013 1533.5 830.594C1527.32 822.452 1519.5 813.973 1515.5 814.094C1509.65 814.273 1505.5 818.094 1502 818.094C1498.5 818.094 1490 813.272 1486.5 814.094C1483 814.917 1479.46 819.253 1475.5 824.594Z" fill="url(#paint5_linear_46_190)"/>
<path d="M1475.5 858.536C1468.5 852.303 1462.5 846 1462.5 846C1462.5 846 1474.71 841.241 1480.5 843C1486.29 844.758 1491.8 849.473 1497.59 851.231C1503.38 852.99 1507.24 846.099 1512.5 846.5C1521.69 847.201 1546 853 1546 853C1546 853 1534.36 858.822 1525.8 865.022C1517.52 871.018 1511.25 866.479 1507.46 865.2C1501.91 863.331 1501.24 863.312 1497.89 862.295C1494.54 861.279 1493.78 860.34 1490.67 858.536C1487.56 856.732 1480.85 863.295 1475.5 858.536Z" fill="#862828"/>
<path d="M1478 833C1470.03 838.312 1463 846 1463 846L1483.5 841L1507.5 842L1532.5 850.5L1546 853C1546 853 1522 832.336 1516.5 831C1514.38 830.485 1513.17 830.225 1511 830C1505.94 829.476 1503.09 831.016 1498 831C1493.1 830.985 1489.51 828.821 1485 829.5C1482.98 829.804 1482.5 830 1478 833Z" fill="#2D1616"/>
<path d="M1478.33 836.113C1473.34 838.824 1467.7 842.585 1466 848C1464.71 852.098 1463.78 856.728 1463.33 861C1462.3 870.705 1461.5 876.113 1463.33 881.613C1465.47 888.034 1467.33 891.113 1471.83 896.113C1474.81 899.426 1477.45 902.272 1481.83 903.113C1488.68 904.43 1494.18 900.914 1500.33 897.613C1508.33 893.317 1519.83 869.113 1523.33 865.113C1528.65 859.038 1541 851 1541 851C1541 851 1528.62 841.35 1518.33 838.113C1514.17 836.802 1511.7 836.076 1507.33 836.113C1503.16 836.148 1499.34 838.113 1496.83 838.113C1494.32 838.113 1489.33 834.261 1487.83 834.113C1484.01 833.735 1481.7 834.281 1478.33 836.113Z" fill="#A35353"/>
<path d="M1478.09 836.113C1473.1 838.824 1467.46 842.585 1465.76 848C1464.47 852.098 1463.54 856.728 1463.09 861C1462.06 870.705 1461.26 876.113 1463.09 881.613C1465.23 888.034 1467.09 891.113 1471.59 896.113C1474.57 899.426 1477.21 902.272 1481.59 903.113C1488.44 904.43 1493.94 900.914 1500.09 897.613C1508.09 893.317 1519.59 869.113 1523.09 865.113C1528.41 859.038 1540.76 851 1540.76 851C1540.76 851 1528.38 841.35 1518.09 838.113C1513.93 836.802 1511.46 836.076 1507.09 836.113C1502.92 836.148 1499.1 838.113 1496.59 838.113C1494.08 838.113 1489.09 834.261 1487.59 834.113C1483.77 833.735 1481.46 834.281 1478.09 836.113Z" fill="url(#paint6_linear_46_190)"/>
<path d="M1629 734C1624.17 677.052 1607.83 621.5 1600.5 614.5C1596.09 610.288 1587.5 602.5 1587.5 602.5L1610.5 616C1610.5 616 1634.53 676.912 1639.5 734C1644.19 787.91 1619.53 816.145 1610.5 869.5C1602.74 915.326 1595 987.5 1595 987.5C1595 987.5 1596.03 913.151 1602 866C1608.61 813.8 1633.44 786.429 1629 734Z" fill="#DBB468"/>
<path d="M560 2852C569.023 2818.03 569.5 2762.5 569.5 2762.5L631.5 2789C631.5 2789 630.149 2824.69 631.5 2847.5C633.722 2884.99 639.91 2905.52 646.5 2942.5C653.172 2979.94 665.5 3038 665.5 3038L518.5 2942.5C518.5 2942.5 550.019 2889.58 560 2852Z" fill="#975F35"/>
<path d="M304 2907.5C309.881 2879.21 304 2833.5 304 2833.5V2794.5L458 2770.5C458 2770.5 455.588 2809.5 461 2833.5C465.845 2854.99 473.633 2870.62 481 2885C492.194 2906.84 500.223 2920.51 507.5 2925.5C514.777 2930.49 544.506 2943.12 551.5 2948.5C558 2953.5 563 2960.5 563 2960.5L387.499 3054L280 3035.5C280 3035.5 266.382 3022.01 266 3006.5C265.479 2985.37 289.5 2950 289.5 2950C289.5 2950 300.43 2924.67 304 2907.5Z" fill="#A86B3E"/>
<path d="M547.5 3047.5C537.625 3056.95 523 3071 523 3071C523 3071 544.829 3079.48 557 3081C569.981 3082.62 590.5 3081 590.5 3081C590.5 3081 596.802 3063.29 594.5 3053C591.812 3040.98 576 3026 576 3026C576 3026 556.989 3038.42 547.5 3047.5Z" fill="#A86B3E"/>
<path fill-rule="evenodd" clip-rule="evenodd" d="M277 3032L387 3050.5C387 3050.5 434.116 3014.44 464 2994C495.954 2972.15 549 2943 549 2943C549 2943 574.067 2968.83 592.5 2982.5C602.048 2989.58 609.961 2993.9 618.152 2998.37C624.754 3001.97 631.536 3005.68 639.5 3011C646.615 3015.76 657.5 3023.5 657.5 3023.5L670.5 3032C659.926 3058.03 656.455 3061.86 643.023 3076.67C639.942 3080.07 636.336 3084.04 632 3089C618.324 3104.63 607.781 3109.34 597.532 3113.91C590.368 3117.11 583.347 3120.24 575.5 3127C571.265 3130.65 566.529 3133.98 561.845 3137.28C553.55 3143.12 545.415 3148.85 540.5 3156C528.678 3173.2 539 3202 539 3202H491C491 3202 484.096 3176.78 481.5 3159.5C479.208 3144.25 476 3118.5 476 3118.5L421.5 3107L416.5 3202H269C269 3202 259.112 3157.35 255 3128C251.857 3105.57 251.519 3089 253 3079C253.413 3076.21 253.687 3073.22 253.968 3070.16C254.885 3060.14 255.872 3049.38 262 3042.5C267.124 3036.75 277 3032 277 3032ZM592.5 3050.5C588.723 3038.63 578 3029 578 3029C578 3029 560.449 3039.07 550.25 3047C539.614 3055.27 525 3070.5 525 3070.5C525 3070.5 542.974 3077.03 556 3079C568.411 3080.87 587.5 3079 587.5 3079C587.5 3079 597.058 3064.83 592.5 3050.5Z" fill="#0D0C0C"/>
<path d="M528 770L563.5 726.5L717 735.5C717 735.5 704.083 755.318 701.5 769C699.11 781.664 701.5 802 701.5 802L689 849.5L706.5 876.5L710 906C710 906 706.892 911.566 706.5 915.5C705.96 920.92 709.286 924.101 710 929.5C710.768 935.307 711.774 935.873 710.145 941.5C704.5 961 696.645 995 696.645 995L547.5 854.5C547.5 854.5 549.043 835.204 547.5 823C544.734 801.12 528 770 528 770Z" fill="#DC8C52"/>
<path d="M528 768.5L563.5 725L717 734C717 734 704.083 753.818 701.5 767.5C699.11 780.164 701.5 800.5 701.5 800.5L689 848L706.5 875L710 904.5C710 904.5 706.892 910.066 706.5 914C705.96 919.42 709.286 922.601 710 928C710.768 933.807 711.774 934.373 710.145 940C704.5 959.5 696.645 993.5 696.645 993.5L547.5 853C547.5 853 549.043 833.704 547.5 821.5C544.734 799.62 528 768.5 528 768.5Z" fill="url(#paint7_linear_46_190)"/>
<path d="M562 823C562 823 604.401 838.206 632.5 837.5C679.5 836.319 695 823 695 823M562 834.5C562 834.5 604.401 849.706 632.5 849C679.5 847.819 695 834.5 695 834.5" stroke="black" stroke-width="8"/>
<path d="M484 535.5C486.5 526.5 491.887 509.577 510.5 496.5C522.249 488.245 529.155 483.308 543 479.5C562.296 474.193 574.43 473.432 593.5 479.5C615.5 486.5 632.957 497.833 654.5 519C686.236 550.181 717 598 717 612.5C722 624 720.533 642.632 724.5 666.5C726.716 679.835 732.489 694.564 731 708C729.498 721.557 724.5 728.5 717 740C704.5 745 678.445 738.702 652 742.5C624.513 746.447 581 761 566.5 761C552 761 534.724 695.31 494.5 687.5C494.5 687.5 469.212 674.81 470.5 631.5C471.601 594.484 474.379 570.134 484 535.5Z" fill="#E79D68"/>
<path d="M495.5 513.5C509.616 490.454 540 483 540 483C540 483 581.875 475.427 606 484.5C627.322 492.519 658.5 523.5 658.5 523.5C658.5 523.5 634.776 486.206 617 475C598.309 463.216 584.356 456.907 563 464C552.721 467.414 540 475 540 475C540 475 528.457 469.803 521.5 472C512 475 489.937 487.453 476 502C458.717 520.039 449 555 449 555C449 555 437.104 555.563 433 561C430.356 564.502 429.5 573.5 429.5 573.5L411 578C411 578 380.723 588.225 368 606C355.882 622.929 351.738 641.243 348 664C339.624 714.999 389.5 795.5 389.5 795.5L350.5 864.5C350.5 864.5 354.24 874.923 360 880C365.76 885.077 380 890.5 380 890.5L352.5 885C352.5 885 357.849 898.758 364.5 904.5C370.917 910.04 383.5 915 383.5 915C383.5 915 420.064 854.854 458 857.5C470.202 858.351 474.257 857.334 489 862.5C499.202 866.075 511.568 875.446 523 875.5C531.432 875.54 539.167 866.71 547.5 868C560.307 869.983 576 885 576 885L579.25 869.25C579.25 869.25 582.935 860 582.5 853.5C579.25 805 549.526 806.881 530 769L485 725C485 725 473.351 674.48 471 641.5C469.237 616.764 473.745 602.084 477 577.5C479.91 555.528 483.923 532.4 495.5 513.5Z" fill="#271911"/>
<path d="M720 631.5C719 620.5 716.007 616.791 711 606C705.009 593.088 694.5 573.5 694.5 573.5C694.5 573.5 713.394 583.535 723 593C740.168 609.916 745.49 624.738 751 648C756.125 669.635 751.382 684.77 751 707C750.508 735.678 731.451 750.766 736.5 779C738.228 788.666 743.805 793.182 744 803C744.287 817.432 731.231 822.669 729.5 837C727.668 852.171 738.943 860.415 736.5 875.5C733.565 893.625 711 915 711 915C711 915 688.668 884.607 686.5 859C684.633 836.951 689.68 824.596 694.5 803C698.472 785.204 702.5 757 702.5 757C702.5 757 716.064 739.563 721.5 728.5C726.116 719.107 728.109 690.342 726.5 680C723 657.5 721 642.5 720 631.5Z" fill="#271911"/>
<path d="M433.5 559C428.619 563.423 429.5 573.5 429.5 573.5L452 603.5L449 555C449 555 438.043 554.883 433.5 559Z" fill="#B84A4A"/>
<path d="M635 587.5V555.5C635 555.5 622.711 564.851 613.5 566C604.781 567.087 591 566 591 566L598.5 595C598.5 595 608.337 579.387 617 578.5C624.818 577.7 635 587.5 635 587.5Z" fill="#242121"/>
<path d="M501 655L465.5 658C465.5 658 474.068 635.375 481 622C487.932 608.625 501 589.5 501 589.5L510 608C510 608 503.486 618.228 501 625.5C498.746 632.095 497.5 643 497.5 643L501 655Z" fill="#181717"/>
<path d="M495.498 588.945C494.113 585.091 496.318 580.875 500.274 579.816L571.05 560.857C573.801 560.12 576.686 560.046 579.47 560.642L586.408 562.124C594.235 563.797 600.017 570.438 600.598 578.42L601.949 596.985C602.479 604.272 598.557 611.161 591.846 614.049C581.088 618.677 564.447 625.055 551.364 626.571C541.265 627.742 527.809 626.651 518.612 625.584C512.137 624.832 506.791 620.356 504.585 614.221L495.498 588.945Z" fill="#242121"/>
<path d="M725.322 538.843C724.814 534.779 720.94 532.018 716.932 532.863L645.238 547.985C642.452 548.573 639.846 549.813 637.632 551.603L632.117 556.065C626.467 560.636 622.824 568.096 624.518 574.955C624.864 576.358 625.635 577.605 626.495 578.766L636.225 591.904C637.159 593.165 638.259 594.293 639.442 595.324C644.005 599.302 649.583 604.856 656 604.449C667.688 603.708 680.178 602.245 692.531 597.677C702.067 594.151 713.573 587.089 721.291 581.975C726.725 578.375 729.467 571.963 728.658 565.495L725.322 538.843Z" fill="#242121"/>
<path d="M651 630C651 630 654.09 628.926 656 626.5C658.843 622.889 657.871 617.589 655 614C653 611.5 652.48 611.65 650 607.5C648.194 604.478 648 604 645.5 601C639.615 593.938 635.5 592.5 635.5 592.5L625 583" stroke="#B57F4E" stroke-width="3"/>
<path d="M649.902 618.323C651.78 620.711 652.07 623.615 650.551 624.81C649.031 626.005 646.277 625.038 644.4 622.65C642.522 620.263 642.232 617.358 643.751 616.163C645.271 614.969 648.025 615.936 649.902 618.323Z" fill="#65351A"/>
<path d="M628.087 625.88C627.088 629.183 624.872 631.436 623.139 630.911C621.405 630.387 620.81 627.284 621.809 623.981C622.808 620.678 625.023 618.425 626.757 618.949C628.49 619.474 629.086 622.576 628.087 625.88Z" fill="#65351A"/>
<path d="M618.5 670C609.5 680.5 603.5 694.5 603.5 694.5C603.5 694.5 627.127 675.441 645.5 672.5C659.639 670.236 683.5 676 683.5 676C683.5 676 674.829 666 670.5 662C665.481 657.362 662 654 658 654C653.5 654 649.5 658 645.5 660C640 658 635.187 657 632 658C628.013 659.251 621.22 666.827 618.5 670Z" fill="#CE7671"/>
<path d="M642.5 672.5C625.894 675.922 603.5 694.5 603.5 694.5C616.265 692.36 683.5 676 683.5 676C683.5 676 657.843 669.339 642.5 672.5Z" fill="#E2918D"/>
<path d="M511.5 551.5C519.219 527.782 504.067 514.5 506.5 506C507.947 500.945 521 490 521 490L504.5 491.5L493.5 511.5C493.5 511.5 503.991 539.23 500 559.5C496.727 576.123 481 598.5 481 598.5C481 598.5 504.781 572.147 511.5 551.5Z" fill="#271911"/>
<path d="M560.5 1108.5C531.5 1126.87 514.354 1136.01 483 1150C479.886 1151.39 475 1153.5 475 1153.5C475 1153.5 471.18 1171.82 468.5 1183.5C466.256 1193.29 460 1199.5 460 1204.5C460 1208.35 464.5 1223 464.5 1223C464.5 1223 488.397 1210.09 511.5 1208.5C529.071 1207.29 560.5 1215.5 560.5 1215.5H578.5C578.5 1215.5 588.208 1212.7 593 1211.5C612.759 1206.56 641.5 1208.5 641.5 1208.5L683 1226.5L726.5 1246.5C726.5 1246.5 737.653 1217.89 740.5 1204.5C743.305 1191.31 746.5 1170.5 746.5 1170.5C746.5 1170.5 734.086 1172.36 726.5 1170.5C718.781 1168.61 708.5 1161 708.5 1161C708.5 1161 692.924 1148.3 687.5 1136.5C681.447 1123.33 681.295 1114.37 683 1099.5C683.917 1091.5 686 1078.5 686 1078.5C686 1078.5 688.026 1069.39 688.5 1067.5C690 1061.5 690.835 1052.27 693 1038.5C696.229 1017.96 698 985.5 698 985.5L681 973.5C681 973.5 665.085 961.45 655.5 953C638.408 937.932 630.914 927.307 615 911C601.596 897.264 595.845 887.528 580.5 876C570.272 868.316 552.5 859 552.5 859L541.5 862.5C541.5 862.5 564.085 875.201 577 885.5C590.71 896.433 596.689 904.513 609 917C631.503 939.824 663.697 969.5 665 977C666.303 984.5 667.151 994.4 664 1007.5C659.818 1024.89 652.546 1032.94 641.5 1047C634 1056.55 594.05 1087.24 560.5 1108.5Z" fill="#222121"/>
<path d="M531.5 1233.5C496.146 1222.91 449 1233.5 449 1233.5C449 1233.5 460.441 1225.06 467 1220C481.585 1208.75 495.817 1208.45 514 1205.5C539.27 1201.4 550.4 1211.5 576 1211.5C605 1201.5 621.105 1203.17 650 1211.5C679.5 1220 727.5 1244 727.5 1244C727.5 1244 725 1264 717 1287C715.5 1311.5 704 1346.5 704 1346.5C704 1346.5 663.351 1300.81 632.5 1280.5C601.649 1260.19 566.883 1244.1 531.5 1233.5Z" fill="#DC8C52"/>
<path d="M531.5 1233.98C496.146 1223.39 449 1233.98 449 1233.98C449 1233.98 460.441 1225.54 467 1220.48C481.585 1209.23 495.817 1208.93 514 1205.98C539.27 1201.88 550.4 1211.98 576 1211.98C605 1201.98 621.105 1203.65 650 1211.98C679.5 1220.48 727.5 1244.48 727.5 1244.48C727.5 1244.48 725 1264.48 717 1287.48C715.5 1311.98 704 1346.98 704 1346.98C704 1346.98 663.351 1301.29 632.5 1280.98C601.649 1260.67 566.883 1244.57 531.5 1233.98Z" fill="url(#paint8_linear_46_190)"/>
<path d="M591 1092C552.044 1121.04 482 1152 482 1152C482 1152 474.135 1181.5 466 1197C455.836 1216.36 446.894 1225.32 433.5 1243C420.404 1260.29 395 1283 395 1283L351.5 1326.5C344.448 1333.55 338.319 1340.25 328.5 1342C320.811 1343.37 307.5 1337 307.5 1337C293 1328 285.124 1318.62 274 1304C254.455 1278.32 254.536 1261.5 244 1227C236.502 1202.45 235.712 1186.75 232 1161C228.155 1134.33 228.5 1092 228.5 1092C228.5 1092 241.882 950.068 239 933.5C236.118 916.932 239 890 239 884C228.5 859 217.728 849 216.5 831C214.915 807.765 216.5 786.5 216.5 786.5C216.5 786.5 209.998 757.059 216.5 746.5C222.749 736.353 239 722.5 239 722.5C239 722.5 250.536 707.784 262 707.5C269.771 707.307 278.5 711 278.5 711C278.5 711 292 691 306 679C318.5 675.5 335.5 681 335.5 681C335.5 681 338.81 673.176 342.5 670.5C348.5 666.149 360.551 663.323 366 665C372.5 667 378 679 378 679C378 679 369.364 683.73 363.5 686C356.872 688.566 346 691 346 691C346 691 347.31 694.666 348.5 699.5C351.027 709.763 346 729 346 729L339.5 763C339.5 763 335.824 787.221 342.5 800.5C350.255 815.924 378 831 378 831C378 831 399.5 817.5 415.5 824C425.045 820.76 428.203 814.817 437.5 810.5C448.55 805.369 454.5 801.5 462 804.5C469.906 807.662 470.5 817.5 470.5 817.5C470.5 817.5 452.61 824.281 442.5 831C433.504 836.978 430.212 842.614 421.5 849C404.593 861.393 380.5 873 374 874C370.668 874.513 361 873 361 873C361 873 354.343 870.079 351.5 871.5C348.5 873 344.036 876.224 338 879.5C331.685 882.927 322.5 884 322.5 884C322.5 884 316 904.894 316 916.5C316 936 316.295 947.921 318 966C320.273 990.101 331.5 1070.5 331.5 1070.5C331.5 1070.5 334.5 1040 346 976.5C349.199 958.838 354.759 949.177 363.5 933.5C373.484 915.593 380.734 906.226 395 891.5C406.377 879.756 412.032 872.134 427 864.5C440.763 857.481 449.017 853.5 466.5 853.5C477 853.5 492.742 861.576 508.5 864.5C522.707 867.137 529.879 864.5 545.5 864.5C560 864.5 609.5 914.5 609.5 914.5L661.5 971C661.5 971 670.306 987.649 666.5 1003C662.548 1018.94 657.371 1028.04 646.5 1040C626.5 1062 615.285 1073.9 591 1092Z" fill="#DC8C52"/>
<path d="M331 1070.5C331 1070.5 345.31 1111 358.5 1135C365.13 1147.06 373.271 1152.49 380 1164.5C386.531 1176.16 390.5 1196.5 390.5 1196.5" stroke="#A46E40" stroke-opacity="0.85" stroke-width="6" stroke-linecap="round"/>
<path d="M510.5 1059.5C512.184 1038.93 504.5 1007 504.5 1007C504.5 1007 523.054 1020.72 530.5 1033C536.236 1042.46 541.747 1048.51 540.5 1059.5C539.535 1068 530.5 1079 530.5 1079L482.5 1152C482.5 1152 487.755 1131.52 491.5 1118.5C498.191 1095.24 508.525 1083.63 510.5 1059.5Z" fill="url(#paint9_linear_46_190)"/>
<path d="M339.5 779.5C338.695 766.877 340.5 759.5 342.5 747.5C343.11 743.841 345.5 734 345.5 734C345.5 734 339 738 332 738C325 738 320 727.5 320 727.5C320 727.5 321 753.5 320 762.5C318.98 771.679 322.638 777.649 327.5 785.5C332.542 793.641 343 801.5 343 801.5C343 801.5 340.073 788.483 339.5 779.5Z" fill="url(#paint10_linear_46_190)"/>
<path d="M323.5 739C323.648 738.975 319.5 729 318.5 724C317.432 718.659 319 710.5 319 710.5M282 724L290 739C290 739 290 751.19 290 759C290 763.296 290 770 290 770C290 770 288.845 775.681 290 779C291.143 782.283 295.5 786 295.5 786M248.5 728C251.624 732.296 248.5 735.5 256.5 739L258.5 758C258.5 758 255.248 765.727 256.5 770C257.752 774.273 263.5 779 263.5 779" stroke="#7E512E" stroke-opacity="0.74" stroke-width="3" stroke-linecap="round"/>
<path d="M275.166 775.344C275.166 781.974 275.166 784.262 271.187 787.948C270.16 788.9 268.59 788.957 267.464 788.123C262.858 784.711 261 781.989 261 775.344C261 767.839 261.754 762.8 267.549 762.8C273.344 762.8 275.166 767.839 275.166 775.344Z" fill="#53332F"/>
<path d="M308.472 780.758C308.472 787.895 308.472 790.273 303.807 794.297C302.788 795.176 301.295 795.231 300.189 794.462C294.87 790.762 292.732 787.908 292.732 780.758C292.732 772.822 293.57 767.495 300.009 767.495C306.448 767.495 308.472 772.822 308.472 780.758Z" fill="#53332F"/>
<path d="M341 723.755C341 731.227 341 733.669 335.88 737.916C334.868 738.755 333.417 738.808 332.325 738.074C326.534 734.185 324.211 731.239 324.211 723.755C324.211 715.525 325.104 710 331.973 710C338.841 710 341 715.525 341 723.755Z" fill="#53332F"/>
<path d="M350.5 666.5C350.5 666.5 360.324 663.323 366 664C372.327 664.754 381 670.422 381 670.422L371.5 670.422C371.5 670.422 366.901 670.828 364 670.422C360.767 669.97 356 668 356 668L350.5 666.5Z" fill="#53332F"/>
<path d="M452.026 825.019C452.026 825.019 462.253 823.604 467.069 820.525C472.438 817.093 477.78 808.216 477.78 808.216L469.227 812.35C469.227 812.35 464.909 813.986 462.474 815.614C459.76 817.427 456.325 821.275 456.325 821.275L452.026 825.019Z" fill="#53332F"/>
<path d="M673.5 2231.5C664 2217 645.5 2195 645.5 2195L537 2063L515.5 1664L617.5 1502.5L647.5 1519L631 1571.5V1601.5C631 1601.5 644.061 1617.28 647.5 1629.5C651.151 1642.47 662.5 1653.03 662.5 1666.5C662.5 1681.93 662.642 1706.15 662.5 1729C661.967 1814.95 643.179 1899.5 647.5 1948.5C651.821 1997.5 685.5 2142.5 685.5 2142.5C685.5 2142.5 703.33 2192.02 703.5 2225C703.606 2245.47 706.034 2258.64 697 2277C690.632 2289.94 676.439 2306 673.5 2312.5C667.895 2395.47 654.152 2492.31 640.5 2580C627.5 2663.5 627.5 2789.5 627.5 2789.5C627.5 2789.5 609.509 2780.71 597.5 2777C585.491 2773.29 566 2770.5 566 2770.5C566 2770.5 589.17 2520 602.5 2462.5C628 2352.5 645.773 2373.81 673.5 2312.5C673.5 2283.6 666.5 2265.5 673.5 2231.5Z" fill="#0B0B0B"/>
<path d="M281 1722.5C281 1722.5 256.748 1706.38 244 1693C212.584 1660.03 200.313 1631.88 196.5 1586.5C193.14 1546.51 206.5 1508.5 227 1476.5C250 1447 299.366 1372.78 319.5 1350C357.5 1307 454 1229.5 454 1229.5C454 1229.5 512.428 1221.01 566.5 1240.5C652.5 1271.5 706 1342.5 706 1342.5C706 1342.5 692.012 1415.3 675 1464C646.731 1544.92 700.91 1576.5 693.5 1593.5C686.445 1609.69 661.938 1658.55 648.5 1704.5C633 1757.5 582.971 1902.46 557 2016.5C542.874 2078.53 529 2112.5 505.5 2164.5C498.26 2186.5 474.5 2228 460 2263.5C460 2298 467.505 2340.8 469.5 2390.5C471.495 2440.2 461.236 2558.05 460 2665.5C459.382 2719.19 460 2801.5 460 2801.5C460 2801.5 414.449 2806.95 383.5 2813C352.551 2819.05 301.5 2834 301.5 2834C301.5 2834 265.798 2737.13 242.5 2639.5C232 2595.5 200.5 2420 232 2306.5C252.897 2231.21 281 2112.5 281 2112.5C281 2112.5 274 2035.5 269.028 2009.67C263.893 1982.99 281 1722.5 281 1722.5Z" fill="#1A1A1A"/>
<path d="M498 1252C498 1252 476.216 1280.97 464.5 1317C452.784 1353.03 453.5 1383.93 453.5 1432.5C453.5 1525 474.406 1578.44 472 1671.5C469.101 1783.62 458.749 1846.05 433 1954.5C415.985 2026.16 395.931 2063.67 375 2134.5C353.911 2205.86 340.915 2245.87 334.5 2320C325.5 2424 329.182 2456.33 334.5 2540C340.947 2641.43 378.5 2804 378.5 2804M537.5 1262C537.5 1262 524.716 1280.97 513 1317C501.284 1353.03 498.3 1384.07 502 1432.5C507.5 1504.5 517.906 1583.44 515.5 1676.5C512.601 1788.62 502.249 1851.05 476.5 1959.5C459.485 2031.16 439.431 2068.67 418.5 2139.5C397.411 2210.86 390.915 2253.87 384.5 2328C382.034 2356.5 383.182 2456.33 388.5 2540C394.947 2641.43 419 2798 419 2798M572 1278.5C572 1278.5 568.216 1280.97 556.5 1317C544.784 1353.03 537.325 1384.2 542.5 1432.5C548.5 1488.5 561.406 1578.44 559 1671.5C556.101 1783.62 544.249 1846.05 518.5 1954.5C511.14 1985.5 462.4 2108.84 456 2129C446 2160.5 423 2253.5 426.5 2320C428.05 2349.46 425.182 2450.83 430.5 2534.5C436.947 2635.93 450 2793 450 2793" stroke="#EBEBEB" stroke-width="18" stroke-linecap="square"/>
<rect x="333" y="693.427" width="213.757" height="144.192" rx="18" transform="rotate(-18.6699 333 693.427)" fill="#777373"/>
<rect x="335" y="693.427" width="213.757" height="144.192" rx="18" transform="rotate(-18.6699 335 693.427)" fill="url(#paint11_radial_46_190)"/>
<path d="M513.5 711C520.584 730.462 519 759.891 472 777C425 794.11 404.585 771.462 397.5 752.001C390.415 732.539 397.5 704.836 441 689C487.5 672.073 506.415 691.539 513.5 711Z" fill="#353434"/>
<path d="M489.349 720.896C493.31 731.78 492.424 748.237 466.141 757.805C439.857 767.374 428.44 754.708 424.478 743.825C420.516 732.941 424.478 717.449 448.805 708.593C474.809 699.127 485.387 710.013 489.349 720.896Z" fill="black"/>
<rect x="484.017" y="651.469" width="44" height="17.7852" rx="2" transform="rotate(-19.1867 484.017 651.469)" fill="#D5D2D2"/>
<path d="M350 806C353.336 790.683 359.5 767 359.5 767L362 776.5C362 776.5 357.167 794.36 355 806C350.055 832.56 350.43 863 349 883C347.57 903 343.01 947.832 342 989.5C341.408 1013.9 341.263 1048.5 340 1052C338.195 1057 330.5 1074 330.5 1074C330.5 1074 323.446 1057 322.5 1052C322.027 1049.5 322.321 1035.54 322.5 1025C323.386 972.801 328.838 943.713 336 892C340.668 858.295 342.758 839.248 350 806Z" fill="black"/>
<path d="M651 1808.5C652.914 1750.3 656.5 1659.5 656.5 1659.5L662 1627.5L668.5 1609L705 1595L839 1566.5L882 1510.5L931.5 1501.5L1142 1613L1330 1698C1330 1698 1360 1724.56 1360 1747C1360 1775 1384.8 1893.68 1393.5 1988.5C1397.99 2037.42 1397.56 2065.08 1402 2114C1414.32 2249.78 1447 2370.5 1455.5 2459C1459.88 2504.6 1440.61 2562.9 1447 2576C1453.39 2589.1 1460.68 2594.2 1468.5 2606.5C1487.5 2636.38 1538.79 2799 1529 2839C1521.76 2868.59 1500.42 2895 1499 2911C1497.93 2923 1516.07 2953.91 1513 2982C1509.36 3015.33 1485.63 3027.05 1474 3058.5C1471.71 3064.7 1468.5 3074.5 1468.5 3074.5L1447 3038L1426.5 2982H1361.5L1327 3052C1327 3052 1333.55 3175.94 1278 3205.5C1249.35 3220.74 1227.95 3214.87 1195.5 3215.5C1189.25 3215.62 1185.67 3216.47 1179.5 3215.5C1169.5 3213.93 1170.66 3155.34 1169.5 3116.5C1169.01 3100.11 1169.5 3090.9 1169.5 3074.5C1169.5 3060.25 1172.58 3051.92 1169.5 3038C1167.47 3028.83 1163.97 3024.41 1161 3015.5C1144.26 2965.25 1155.73 2932.9 1148 2880.5C1139.71 2824.32 1129.98 2793.72 1119 2738C1111.01 2697.42 1104.17 2675.03 1099 2634C1092.72 2584.16 1093 2505.5 1093 2505.5C1093 2505.5 1089.32 2433.13 1093 2387C1094.63 2366.62 1094.13 2354.91 1093 2334.5C1091.8 2312.84 1087.35 2302.65 1086 2281C1085.51 2273.2 1086.13 2268.81 1086 2261C1084.96 2199.59 1073.46 2165.93 1062.5 2105.5C1052.32 2049.36 1041.69 2018.82 1032.5 1962.5C1024.16 1911.44 1016.5 1831 1016.5 1831H1005C1005 1831 1006.86 1844.31 1005 1852.5C1001.5 1867.85 988.593 1871 980.5 1884.5C965.511 1909.5 974.293 1984.45 970.5 2048.5C967.09 2106.1 976.42 2140.13 962 2196C956.645 2216.75 948.242 2226.9 944.5 2248C940.101 2272.8 946.695 2287.41 944.5 2312.5C942.077 2340.2 934.332 2354.84 931.5 2382.5C925.154 2444.48 937.584 2479.58 944.5 2541.5C950.122 2591.83 961.683 2619.36 962 2670C962.241 2708.43 952.14 2729.58 953 2768C953.995 2812.45 970.095 2836.04 970.5 2880.5C970.804 2913.86 959.709 2932.22 962 2965.5C963.36 2985.26 970.5 3015.5 970.5 3015.5C970.5 3015.5 974.359 3051.78 970.5 3074.5C966.912 3095.62 974.189 3129.68 953 3126.5C945.216 3125.33 941.396 3121.71 935.5 3116.5C930.291 3111.89 930.919 3105.17 924.5 3102.5C919.452 3100.4 910.5 3102.5 910.5 3102.5L906.5 3126.5L863 3052L771 2965.5L678.5 3038L670.5 3032L663 3027.5C663 3027.5 641.536 2938.53 634 2880.5C629.002 2842.02 626.823 2820.28 625.5 2781.5C623.749 2730.15 624.935 2701.13 630 2650C633.188 2617.82 636.902 2600.01 641.5 2568C649.024 2515.63 648.173 2486.03 654.5 2433.5C660.199 2386.18 673 2312.5 673 2312.5C673 2312.5 688 2281 688 2272.5C688 2265 693.168 2256.16 695.5 2248C700.705 2229.79 697.556 2231.33 695.5 2212.5C692.786 2187.64 689.568 2189.83 680 2150C670.432 2110.17 666.568 2088.33 657 2048.5C657 2048.5 650.159 1986.11 647 1945.5C642.85 1892.14 649.24 1862 651 1808.5Z" fill="#171717"/>
<path d="M1296.5 2505C1296.5 2505 1222.8 2438.25 1193.5 2401.5C1166 2367 1162.46 2323.09 1143 2298C1124.96 2274.73 1095.33 2249.66 1091 2247.5C1084.89 2244.45 1087.5 2258.53 1087.5 2264C1087.5 2271.5 1086.41 2275.73 1087.5 2287C1088.88 2301.34 1092.66 2315.22 1094.5 2329.5C1096.22 2342.88 1096.5 2351 1096.5 2351C1096.5 2351 1142.06 2371.82 1157 2391.5C1218.5 2472.5 1296.5 2505 1296.5 2505Z" fill="#292929" fill-opacity="0.4"/>
<path d="M1466 2605C1460.04 2596.03 1445.5 2574.5 1445.5 2574.5C1445.5 2574.5 1439.99 2617.38 1433 2632C1422 2655 1413.21 2668.12 1398 2687.5C1382.03 2707.84 1344 2740 1344 2740C1344 2740 1400.54 2705.44 1422 2687.5C1444.69 2668.53 1476 2625 1476 2625C1476 2625 1472.35 2614.54 1466 2605Z" fill="#555555" fill-opacity="0.11"/>
<path d="M954 2737L886 2669C886 2669 895.38 2725.55 914 2756C924.644 2773.41 956 2802.5 956 2802.5C956 2802.5 952.372 2782.48 952 2769.5C951.636 2756.79 954 2737 954 2737Z" fill="#373636" fill-opacity="0.62"/>
<path d="M671 2985.5C671 2985.5 683.579 2986.74 694 2979.5C702.05 2973.9 703.287 2966.99 712 2962.5C716.226 2960.32 719.336 2960.8 723.5 2958.5C729.909 2954.96 732.128 2950.96 737 2945.5C744.465 2937.13 747.094 2931.81 756 2925C767.099 2916.51 774.342 2912.04 788 2915C799.757 2917.55 802.892 2924.45 809.5 2934.5C818.948 2948.87 815 2974.5 815 2974.5C815 2974.5 824.641 2972.98 830.5 2974.5C840.688 2977.15 851 2992 851 2992C851 2992 864.997 3011.99 875.5 3023.5C881.641 3030.23 886.499 3032.74 892 3040C906.362 3058.97 909 3098.5 909 3098.5C909 3098.5 908.047 3108.63 909 3115C909.686 3119.59 911.075 3121.95 912 3126.5C916.288 3147.58 916.5 3179.1 909 3185.5C903.085 3190.54 898.087 3188.49 891 3190C865.892 3195.34 851.079 3193.35 825.5 3195.5C809.293 3196.86 799.554 3194.25 784 3199C773.475 3202.22 768.806 3207.14 758.5 3211C736.731 3219.15 723.166 3220.08 700 3222C667.833 3224.67 649.671 3219.61 617.5 3217C593.254 3215.03 579.587 3207.6 555.5 3211C550.381 3211.72 542.5 3213.5 542.5 3213.5C542.5 3213.5 533.031 3195.79 533 3183.5C532.977 3174.5 533.898 3169.01 538 3161C541.044 3155.05 543.99 3152.43 548.5 3147.5C554.479 3140.97 565.5 3132.5 565.5 3132.5C565.5 3132.5 567.679 3127.77 570 3125.5C572.994 3122.57 579.5 3120.5 579.5 3120.5C579.5 3120.5 600.769 3114.5 609.5 3104.5C633.5 3077 634 3074.5 651 3061.5C662.529 3052.68 671 3034.5 671 3034.5V3011.5C671 3011.5 666 3006.5 666 3001.5C666 2992.86 671 2985.5 671 2985.5Z" fill="#D1CFCF"/>
<path d="M814.5 3122C787.465 3104.79 737 3095 737 3095C737 3095 799.434 3091.68 831 3111.5C847.96 3122.15 868 3147 868 3147H845.5C845.5 3147 827.619 3130.35 814.5 3122Z" fill="#CBC5C5"/>
<path d="M533.5 3176.5C535.5 3176.5 561.583 3168.42 579 3167C596.417 3165.58 619.535 3180.27 647.5 3184.5C673.951 3188.5 689.996 3190.78 716 3184.5C736.39 3179.58 744.415 3166.53 765 3162.5C782.438 3159.09 792.731 3162.5 810.5 3162.5C832.955 3162.5 845.634 3164.5 868 3162.5C886.129 3160.88 915 3155 915 3155" stroke="#938F8F" stroke-width="5"/>
<path d="M1299.5 3016.5C1324 2988 1327.5 2942.5 1327.5 2942.5L1371 2936.5C1371 2936.5 1384.42 2953.48 1394.5 2961C1404.58 2968.52 1437 2971.5 1437 2971.5C1437 2971.5 1441 2987.03 1443.5 2997C1446.28 3008.12 1444.5 3020.5 1449 3029.5C1453.5 3038.5 1467.09 3057.49 1479 3073.5C1479 3073.5 1519 3124.22 1526 3129.5C1540.64 3140.54 1551.11 3143.52 1565 3155.5C1575.74 3164.76 1584 3171 1587.5 3184C1588.62 3188.15 1590 3184.5 1596.5 3195.5C1600.82 3202.8 1601 3227 1601 3236C1601 3245 1592.96 3245.96 1584 3250C1575.04 3254.04 1554.5 3245.5 1533.5 3245.5C1492.81 3245.5 1484.11 3254.08 1443.5 3256.5C1410.46 3258.47 1372.17 3257.83 1359 3250C1345.83 3242.17 1312.5 3233 1312.5 3233H1277.5C1267 3233 1245.52 3239.79 1227 3233C1214.19 3228.3 1204 3212.5 1204 3212.5C1204 3212.5 1208.16 3203.82 1215 3198C1227.97 3186.97 1239.44 3185.36 1250 3172C1263.89 3154.41 1262.77 3139.29 1268 3117.5C1275.85 3084.83 1277.5 3032 1277.5 3032C1277.5 3032 1293.01 3024.05 1299.5 3016.5Z" fill="#DEDDDD"/>
<path d="M1227.5 3192.5C1237.65 3192.5 1236.85 3191.5 1247 3191.5C1254.81 3191.5 1269.32 3198.07 1277 3199.5C1288.85 3201.71 1297.74 3201.21 1309 3205.5C1320.68 3209.95 1327.5 3213.11 1340 3213.5C1354.2 3213.94 1356.4 3215.3 1370.5 3213.5C1389.29 3211.11 1406.7 3214.08 1424.5 3213.5C1441.87 3212.93 1451.24 3207.55 1468.5 3205.5C1493.59 3202.53 1510.47 3195.92 1535.5 3192.5C1557.56 3189.49 1595 3205.5 1595 3205.5" stroke="#938F8F" stroke-width="5"/>
<path d="M1330 3046.5C1323.14 3057.87 1307.5 3072 1307.5 3072L1414 3146.5C1414 3146.5 1367.22 3106.88 1353.5 3072C1344.78 3049.83 1342.5 3012 1342.5 3012C1342.5 3012 1337.4 3034.23 1330 3046.5Z" fill="#CBC5C5" fill-opacity="0.73"/>
<path d="M1061.5 512.5C1057.42 534.83 1053 570 1053 570L1067 581.5L1070.5 570L1103.5 456.5L1167 410.5H1218L1278 463L1296 536V575L1300 588.5L1281 689.5L1255.5 716L1249.5 730.5L1233 766.5V824.5L1249.5 845.5C1249.5 845.5 1272.21 838.382 1286 832C1300.68 825.206 1308.93 821.037 1322 811.5C1332.73 803.671 1340.28 800.149 1347.5 789C1353.27 780.078 1357 772 1357 763.5C1357 756.5 1356.87 732.68 1354 713.5C1351.13 694.32 1335.06 636 1326.5 618.5C1325.54 616.539 1321.02 605.953 1321 604C1320.77 577.239 1315.03 548 1312.5 536C1309.59 522.19 1309.1 515.471 1306.5 501.5C1305.67 497.019 1305 489 1305 489C1305 489 1295.23 468.863 1288 456.5C1285.34 451.962 1283.64 450.043 1281 445C1274.64 432.862 1269.67 425.679 1259.5 416.5C1249.72 407.681 1243.24 404.07 1232 397C1218.4 388.444 1207.4 388.304 1195.5 377.5C1191.92 374.25 1189.5 370.794 1186.5 369.5C1184.5 368.637 1174.66 372.374 1167 375.5C1148.79 382.929 1139.35 389.067 1123 400C1109.69 408.902 1097.53 410.949 1090.5 425C1087 432 1076.07 450.197 1070.5 469.5C1065.75 485.985 1064.58 495.623 1061.5 512.5Z" fill="#15110E"/>
<path d="M1071.8 621.559C1066.59 644.446 1058.02 660.959 1046.95 658.441C1034 655.498 1028.8 630.387 1034 607.5C1039.2 584.613 1047.77 568.1 1058.85 570.618C1069.92 573.135 1077 598.672 1071.8 621.559Z" fill="#B6795C"/>
<path d="M1313.15 658C1313.15 682.33 1299.74 697.524 1288.64 695.107C1275.67 692.282 1270.24 667.22 1275.23 644.286C1280.23 621.352 1293.81 605.83 1293.81 587.83C1304.91 590.247 1313.15 631.33 1313.15 658Z" fill="#B6795C"/>
<path d="M1124.5 426.5C1147.2 410.427 1163.21 399.977 1191 401C1207.62 401.612 1217.03 405.251 1232 412.5C1254.42 423.358 1263.57 434.522 1277 455.5C1288.25 473.079 1293.95 483.205 1297.5 505C1301.5 529.568 1295.29 545.61 1295.5 570.5C1295.61 583.8 1297.23 589.508 1297.5 604.5C1298.21 644.444 1268.5 705.5 1268.5 705.5C1268.5 705.5 1243.56 749.287 1238.5 782C1235.82 799.367 1233.5 825.5 1233.5 825.5L1164 827L1032.5 782C1032.5 782 1054.1 759 1058.5 745.5C1065.5 724 1062.5 701 1062.5 701C1062.5 701 1058.5 678.051 1058.5 667.5C1058.5 655 1067 566 1067 566C1072.35 533.729 1070.43 507 1081.5 483.5C1089.75 466 1101.55 442.754 1124.5 426.5Z" fill="#CF8A68"/>
<path d="M1234.5 825C1234.5 825 1284.5 895.5 1295.5 903.5C1307.19 911.999 1314.73 894.331 1332.5 903.5C1340.11 907.424 1362.35 910.881 1370.5 913.5C1379.05 916.249 1378.77 916.896 1387.5 919C1405.5 923.339 1417.9 929.329 1428.5 945.5C1437.06 958.565 1436.63 967.469 1445 982C1457.95 1004.48 1489 1022.5 1489 1037.5C1489 1052.5 1460.17 1142.76 1445 1211C1439.89 1233.99 1436.5 1247.5 1432.5 1270C1430.05 1283.77 1425.49 1292.73 1411.5 1299C1400.63 1303.87 1391.77 1304.3 1380 1302.5C1360.46 1299.51 1346.6 1297.3 1333.5 1282.5C1331.34 1280.06 1330.65 1277.88 1330.47 1276.42C1330.34 1284.03 1329.94 1312.82 1330.5 1335.5C1331.31 1368.27 1326.02 1387.74 1325 1420.5C1324.55 1434.94 1325.77 1443.07 1325 1457.5C1323.69 1481.93 1316.95 1495.05 1316 1519.5C1314.41 1560.48 1322.86 1583.21 1330.5 1623.5C1339.01 1668.35 1358.5 1737 1358.5 1737L1362 1763.5C1362 1763.5 1357.03 1744.22 1350.5 1733.5C1346.8 1727.43 1344.22 1724.32 1339.5 1719C1324.98 1702.63 1312.69 1697.52 1293.5 1687C1262.04 1669.75 1240.72 1668.27 1206.5 1657.5C1191.12 1652.66 1182.59 1649.61 1167 1645.5C1145.97 1639.95 1133.4 1640.02 1112.5 1634C1105.62 1632.02 1101.76 1630.88 1095 1628.5C1075 1621.47 978 1548.5 978 1548.5C978 1548.5 956.897 1529.35 940 1525L939.102 1524.77C925.384 1521.23 915.346 1518.64 902.5 1525C893.834 1529.29 890.512 1534.43 884.5 1542C875.813 1552.94 878.2 1563.94 868.5 1574C860.525 1582.27 856.039 1583.27 843.5 1589.5C824.01 1599.18 807.067 1599.09 785.5 1602C770.198 1604.06 761.604 1605.3 746.5 1608.5C728.105 1612.4 718.731 1622.66 700 1621C693.439 1620.42 689.378 1620.47 683.5 1617.5C678.547 1615 675.359 1613.26 672.5 1608.5C670.109 1604.52 669.5 1597 669.5 1597C669.5 1597 668.76 1617.8 667 1631C663.838 1654.71 652.5 1690.5 652.5 1690.5C652.5 1690.5 653.399 1668.53 652.5 1654.5C651.91 1645.29 652.154 1639.97 650 1631C646.23 1615.29 637.205 1609.11 631.5 1594C629.319 1588.22 626.5 1579 626.5 1579C626.5 1579 645.788 1533.14 657.5 1503.5C664.882 1484.82 669.396 1474.47 676 1455.5C688.987 1418.19 703 1358 703 1358L708 1327C708 1327 713.25 1307.73 714 1298C716.288 1268.32 725.068 1255.44 732 1226.5C736.808 1206.42 747 1171 747 1171C747 1171 735.306 1172.3 728 1171C711.096 1168 701.121 1160.72 691.5 1146.5C683.428 1134.57 682.147 1125.39 681.5 1111C680.959 1098.97 686 1080.5 686 1080.5L691.5 1040.5L698.5 994.5C698.5 994.5 710.007 933.487 724 896.5C730.714 878.754 733.436 868.085 743.5 852C751.749 838.815 760.609 834.402 768.5 821C773.953 811.74 775.716 806.718 782 798C791.364 785.01 797.883 778.845 812.5 771C827.397 763.005 837.6 760.47 854.5 760C878.711 759.327 890.258 766.167 913 774.5C924.269 778.629 928.792 786.359 940.5 789C956.5 792.609 967.188 787.716 983.5 786C1003.05 783.944 1032.5 774.5 1032.5 774.5C1032.5 774.5 1093.53 794.979 1132 804.5C1172.54 814.533 1234.5 825 1234.5 825Z" fill="#FEFEFE"/>
<path d="M747.5 997C745.062 975.278 765.5 944 765.5 944C765.5 944 748.002 961.763 739.5 975.5C731.73 988.054 727.717 999.532 722 1007C716.283 1014.47 711.349 1019.26 706 1027C698.936 1037.21 698.521 1043.25 696.5 1055.5C693.831 1071.68 691 1083.1 691 1099.5C691 1118 700.908 1136.14 712.5 1146.5C723.098 1155.97 747.5 1152.5 747.5 1152.5C747.5 1152.5 739.5 1105 739.5 1086C739.5 1067 743.462 1061.01 752 1057C761.727 1052.43 773.5 1055.5 773.5 1055.5C773.5 1055.5 760.166 1034.67 754.5 1020C751.117 1011.24 748.547 1006.33 747.5 997Z" fill="url(#paint12_linear_46_190)"/>
<path d="M802 919.5C825.37 907.882 868 909 868 909C868 909 913.866 916.016 944.5 928C973.192 939.224 999.013 952.976 1024 971C1054.5 993 1127.83 1033.1 1145.5 1044.5C1161 1054.5 1183.4 1067.03 1205 1081C1242.93 1105.54 1306 1138.5 1306 1138.5C1306 1138.5 1287.7 1146.24 1276.5 1148.5C1265.91 1150.64 1259.64 1153.38 1249 1151.5C1232 1148.5 1205.3 1139.73 1176.5 1132C1131.51 1119.92 1105.41 1115.44 1059 1111.5C1014.44 1107.72 988.58 1119.01 944.5 1111.5C913.802 1106.27 897.113 1100.05 868 1089C841.455 1078.92 814.357 1062.8 803.5 1061.5C792.643 1060.2 773.5 1055.5 773.5 1055.5C773.5 1055.5 746.5 1017.5 746.5 993C746.5 974.943 751.989 962.683 762.5 948C773.808 932.204 784.605 928.148 802 919.5Z" fill="#C78566"/>
<path d="M801.592 921.529C824.962 909.911 867.5 909 867.5 909C867.5 909 916.365 917.516 947 929.5C975.692 940.724 991.547 952.39 1018.09 968.029C1069.68 998.422 1127.42 1035.13 1145.09 1046.53C1160.59 1056.53 1182.99 1069.06 1204.59 1083.03C1242.52 1107.57 1304 1139.5 1304 1139.5C1304 1139.5 1287.29 1148.27 1276.09 1150.53C1265.5 1152.67 1259.23 1155.41 1248.59 1153.53C1231.59 1150.53 1204.9 1141.76 1176.09 1134.03C1131.11 1121.95 1105 1117.46 1058.59 1113.53C1014.04 1109.75 988.171 1121.04 944.092 1113.53C913.394 1108.3 896.704 1102.08 867.592 1091.03C841.047 1080.95 814.857 1061.8 804 1060.5C793.143 1059.2 775.5 1056.5 775.5 1056.5C775.5 1056.5 746.562 1019.81 748.5 992.5C749.778 974.488 753.989 967.183 764.5 952.5C775.808 936.704 784.196 930.177 801.592 921.529Z" fill="url(#paint13_linear_46_190)"/>
<path d="M1394.5 1159C1383.05 1157.06 1369.5 1149 1369.5 1149C1369.5 1149 1364.6 1163.48 1364 1169.5C1362.91 1180.5 1366.05 1177.6 1358 1191C1353.48 1198.53 1352 1220.5 1342.5 1227.5C1335.75 1232.48 1350.11 1240.71 1347 1248.5C1344.49 1254.8 1335.81 1253.47 1334 1260V1268.5C1334 1268.5 1350.99 1281.91 1364 1285C1380.64 1288.95 1407.5 1280 1407.5 1280L1415 1255.5L1435 1191L1461.5 1100C1461.5 1100 1454.23 1122.64 1446.5 1135L1446.21 1135.46C1438.51 1147.78 1435.13 1153.18 1421.5 1159C1411.26 1163.37 1405.47 1160.86 1394.5 1159Z" fill="url(#paint14_linear_46_190)"/>
<path d="M1364 973.5C1390.65 982.256 1402.03 987.206 1425 999C1443.5 1008.5 1448.49 1016.87 1457 1033C1463.81 1045.9 1466.26 1054.43 1467 1069C1467.61 1081 1465.84 1087.83 1463 1099.5C1457.63 1121.56 1445.35 1143.6 1437 1150.5C1428.65 1157.4 1424.11 1162.84 1413.5 1165C1402.89 1167.16 1389.07 1159.44 1373.5 1155.5C1339.23 1146.83 1318.63 1145.24 1286.5 1130.5C1273 1124.31 1265.95 1119.78 1253 1112.5C1207.25 1086.79 1170 1060.12 1142.5 1043.5C1129.69 1035.76 1118.17 1028.62 1105 1021.5C1082.87 1009.53 1055 996.178 1049 992.5C1040.18 987.095 1031.37 980.377 1023.14 974.103L1023 974C1009.81 963.945 1000.58 960.546 988.5 952.5C969.631 939.931 941 929 941 929C941 929 972.525 907.863 995.5 901.5C1013.87 896.412 1025.24 892.649 1044 896C1058 898.5 1106.67 917.474 1147.5 929C1188.34 940.528 1211.32 944.562 1253 952.5C1294.23 960.352 1323.99 960.354 1364 973.5Z" fill="#C78566"/>
<ellipse cx="1163.17" cy="533.808" rx="6.04554" ry="8.968" transform="rotate(36.063 1163.17 533.808)" fill="#432307"/>
<ellipse cx="1194.77" cy="537.026" rx="6.04554" ry="8.968" transform="rotate(-11.9635 1194.77 537.026)" fill="#432307"/>
<path d="M1152.5 455C1144.59 450.5 1124.53 446.371 1109 450.5C1095.96 453.968 1087.48 463.038 1083.5 471C1082 474 1080.77 485.794 1081.5 492C1082.44 500 1082.91 506.947 1091.5 516C1100.61 525.601 1110.78 525.867 1124 526.5C1139.05 527.22 1147.89 523.695 1158.5 513C1169.46 501.953 1173.32 486 1171.5 478C1168.86 466.409 1162.83 460.876 1152.5 455Z" fill="#774646"/>
<path d="M1152.22 455.201C1144.3 450.701 1124.25 446.572 1108.72 450.701C1095.67 454.169 1087.2 463.239 1083.22 471.201C1081.72 474.201 1080.49 485.995 1081.22 492.201C1082.15 500.201 1082.63 507.148 1091.22 516.201C1100.32 525.803 1110.5 526.068 1123.72 526.701C1138.77 527.421 1147.6 523.896 1158.22 513.201C1169.18 502.154 1173.04 486.201 1171.22 478.201C1168.58 466.61 1162.55 461.077 1152.22 455.201Z" fill="url(#paint15_radial_46_190)"/>
<path d="M1152.5 456.5C1144.59 452 1124.53 447.871 1109 452C1095.96 455.468 1087.48 465.239 1083.5 473.201C1082 476.201 1080.77 487.995 1081.5 494.201C1082.44 502.201 1082.91 509.148 1091.5 518.201C1100.61 527.803 1110.78 528.069 1124 528.701C1139.05 529.421 1147.89 525.896 1158.5 515.201C1169.46 504.154 1173.32 488.201 1171.5 480.201C1168.86 468.61 1162.83 462.376 1152.5 456.5Z" fill="#774646"/>
<path d="M1152.22 457.402C1144.3 452.902 1124.25 448.773 1108.72 452.902C1095.67 456.37 1087.2 465.44 1083.22 473.402C1081.72 476.402 1080.49 488.196 1081.22 494.402C1082.15 502.402 1082.63 509.349 1091.22 518.402C1100.32 528.004 1110.5 528.27 1123.72 528.902C1138.77 529.622 1147.6 526.097 1158.22 515.402C1169.18 504.355 1173.04 488.402 1171.22 480.402C1168.58 468.811 1162.55 463.278 1152.22 457.402Z" fill="#B17979"/>
<path d="M1152.5 456.5C1144.59 452 1124.53 447.871 1109 452C1095.96 455.468 1087.48 465.239 1083.5 473.201C1082 476.201 1080.77 487.995 1081.5 494.201C1082.44 502.201 1082.91 509.148 1091.5 518.201C1100.61 527.803 1110.78 528.069 1124 528.701C1139.05 529.421 1147.89 525.896 1158.5 515.201C1169.46 504.154 1173.32 488.201 1171.5 480.201C1168.86 468.61 1162.83 462.376 1152.5 456.5Z" stroke="#D7B192" stroke-width="3"/>
<path d="M1152.22 457.402C1144.3 452.902 1124.25 448.773 1108.72 452.902C1095.67 456.37 1087.2 465.44 1083.22 473.402C1081.72 476.402 1080.49 488.196 1081.22 494.402C1082.15 502.402 1082.63 509.349 1091.22 518.402C1100.32 528.004 1110.5 528.27 1123.72 528.902C1138.77 529.622 1147.6 526.097 1158.22 515.402C1169.18 504.355 1173.04 488.402 1171.22 480.402C1168.58 468.811 1162.55 463.278 1152.22 457.402Z" stroke="#D7B192" stroke-width="3"/>
<path d="M1274.5 530.791C1266.59 535.291 1246.53 539.42 1231 535.291C1217.96 531.823 1209.48 522.753 1205.5 514.791C1204 511.791 1202.77 499.997 1203.5 493.791C1204.44 485.791 1204.91 478.844 1213.5 469.791C1222.61 460.19 1232.78 459.924 1246 459.291C1261.05 458.571 1269.89 462.096 1280.5 472.791C1291.46 483.838 1295.32 499.791 1293.5 507.791C1290.86 519.382 1284.83 524.915 1274.5 530.791Z" fill="#774646"/>
<path d="M1274.22 530.59C1266.3 535.09 1246.25 539.219 1230.72 535.09C1217.67 531.622 1209.2 522.552 1205.22 514.59C1203.72 511.59 1202.49 499.796 1203.22 493.59C1204.15 485.59 1204.63 478.643 1213.22 469.59C1222.32 459.989 1232.5 459.723 1245.72 459.09C1260.77 458.37 1269.6 461.895 1280.22 472.59C1291.18 483.637 1295.04 499.59 1293.22 507.59C1290.58 519.181 1284.55 524.714 1274.22 530.59Z" fill="url(#paint16_radial_46_190)"/>
<path d="M1274.5 530.791C1266.59 535.291 1246.53 539.42 1231 535.291C1217.96 531.823 1209.48 522.753 1205.5 514.791C1204 511.791 1202.77 499.997 1203.5 493.791C1204.44 485.791 1204.91 478.844 1213.5 469.791C1222.61 460.19 1232.78 459.924 1246 459.291C1261.05 458.571 1269.89 462.096 1280.5 472.791C1291.46 483.838 1295.32 499.791 1293.5 507.791C1290.86 519.382 1284.83 524.915 1274.5 530.791Z" fill="#774646"/>
<path d="M1274.22 530.59C1266.3 535.09 1246.25 539.219 1230.72 535.09C1217.67 531.622 1209.2 522.552 1205.22 514.59C1203.72 511.59 1202.49 499.796 1203.22 493.59C1204.15 485.59 1204.63 478.643 1213.22 469.59C1222.32 459.989 1232.5 459.723 1245.72 459.09C1260.77 458.37 1269.6 461.895 1280.22 472.59C1291.18 483.637 1295.04 499.59 1293.22 507.59C1290.58 519.181 1284.55 524.714 1274.22 530.59Z" fill="url(#paint17_radial_46_190)"/>
<path d="M1274.5 530.791C1266.59 535.291 1246.53 539.42 1231 535.291C1217.96 531.823 1209.48 522.753 1205.5 514.791C1204 511.791 1202.77 499.997 1203.5 493.791C1204.44 485.791 1204.91 478.844 1213.5 469.791C1222.61 460.19 1232.78 459.924 1246 459.291C1261.05 458.571 1269.89 462.096 1280.5 472.791C1291.46 483.838 1295.32 499.791 1293.5 507.791C1290.86 519.382 1284.83 524.915 1274.5 530.791Z" stroke="#D7B192" stroke-width="3"/>
<path d="M1274.22 530.59C1266.3 535.09 1246.25 539.219 1230.72 535.09C1217.67 531.622 1209.2 522.552 1205.22 514.59C1203.72 511.59 1202.49 499.796 1203.22 493.59C1204.15 485.59 1204.63 478.643 1213.22 469.59C1222.32 459.989 1232.5 459.723 1245.72 459.09C1260.77 458.37 1269.6 461.895 1280.22 472.59C1291.18 483.637 1295.04 499.59 1293.22 507.59C1290.58 519.181 1284.55 524.714 1274.22 530.59Z" stroke="#D7B192" stroke-width="3"/>
<path d="M1172.5 489C1172.5 489 1181.94 482.308 1189 483.5C1195.89 484.664 1202.5 493 1202.5 493M1082.5 473H1074M1292 489H1305" stroke="#D7B192" stroke-width="5" stroke-linecap="round"/>
<path d="M1129 564.5C1134.85 558.605 1148.5 543.029 1153.5 542.5C1158.5 541.971 1168.7 547.122 1177.5 549C1184.57 550.509 1195.5 545.469 1199 547C1203.5 548.968 1207.41 559.458 1214 567.5C1220.59 575.542 1224.63 588.553 1238 596.5C1243.89 600 1250.84 608.734 1262 608C1271.12 607.4 1276.71 605.518 1284 600C1297.69 589.638 1298.5 566 1298.5 566C1298.5 566 1299.76 586.654 1300 600C1300.57 631.362 1293.15 648.998 1284 679C1277.25 701.127 1256 734 1256 734C1256 734 1226.82 739.826 1202 738.5C1183.91 737.533 1171.5 728.006 1153.5 726C1129.82 723.362 1115.8 734.945 1093.5 726C1065.87 714.916 1053.5 696.27 1053.5 666.5C1053.5 631.5 1065 564.038 1065 564.038C1065 564.038 1063.22 569.852 1067 573C1073 578 1079.48 585.187 1093.5 588C1103.5 590.006 1113.13 580.503 1129 564.5Z" fill="#80400A"/>
<path d="M1129.5 564.038C1135.35 558.143 1149 542.566 1154 542.038C1159 541.509 1169.2 546.66 1178 548.538C1185.07 550.047 1196 545.007 1199.5 546.538C1204 548.506 1207.91 558.996 1214.5 567.038C1221.09 575.08 1225.13 588.091 1238.5 596.038C1244.39 599.538 1251.34 608.272 1262.5 607.538C1271.62 606.938 1277.21 605.056 1284.5 599.538C1298.19 589.176 1299 565.538 1299 565.538C1299 565.538 1300.26 586.192 1300.5 599.538C1301.07 630.9 1293.65 648.536 1284.5 678.538C1277.75 700.665 1256.5 733.538 1256.5 733.538C1256.5 733.538 1227.32 739.364 1202.5 738.038C1184.41 737.071 1172 727.544 1154 725.538C1130.32 722.9 1116.3 734.483 1094 725.538C1066.37 714.454 1054 695.808 1054 666.038C1054 631.038 1065 564.038 1065 564.038C1065 564.038 1063.72 569.39 1067.5 572.538C1073.5 577.538 1079.98 584.725 1094 587.538C1104 589.544 1113.63 580.041 1129.5 564.038Z" fill="url(#paint18_linear_46_190)"/>
<defs>
<linearGradient id="paint0_linear_46_190" x1="2421.5" y1="2594.5" x2="2422" y2="2713" gradientUnits="userSpaceOnUse">
<stop stop-color="#050302"/>
<stop offset="1" stop-color="#5B341E" stop-opacity="0"/>
</linearGradient>
<linearGradient id="paint1_linear_46_190" x1="1574.5" y1="1407" x2="1483" y2="1163" gradientUnits="userSpaceOnUse">
<stop offset="0.110419"/>
<stop offset="0.491021" stop-opacity="0"/>
</linearGradient>
<radialGradient id="paint2_radial_46_190" cx="0" cy="0" r="1" gradientUnits="userSpaceOnUse" gradientTransform="translate(1411.21 880.653) rotate(87.1446) scale(48.4992 27.3219)">
<stop stop-color="#DAD4D4"/>
<stop offset="1" stop-color="#DAD4D4" stop-opacity="0"/>
</radialGradient>
<linearGradient id="paint3_linear_46_190" x1="1636.92" y1="575.967" x2="1602.61" y2="1048.98" gradientUnits="userSpaceOnUse">
<stop/>
<stop offset="0.817311" stop-opacity="0.15"/>
</linearGradient>
<radialGradient id="paint4_radial_46_190" cx="0" cy="0" r="1" gradientUnits="userSpaceOnUse" gradientTransform="translate(1659.04 880.708) rotate(72.6489) scale(48.4992 27.3219)">
<stop stop-color="#DAD4D4"/>
<stop offset="1" stop-color="#DAD4D4" stop-opacity="0"/>
</radialGradient>
<linearGradient id="paint5_linear_46_190" x1="1506.52" y1="907.704" x2="1496.52" y2="814.765" gradientUnits="userSpaceOnUse">
<stop stop-color="#4D1515"/>
<stop offset="1" stop-color="#4D1515" stop-opacity="0"/>
</linearGradient>
<linearGradient id="paint6_linear_46_190" x1="1504.5" y1="813.906" x2="1504.5" y2="903.397" gradientUnits="userSpaceOnUse">
<stop stop-color="#C97373"/>
<stop offset="1" stop-color="#C97373" stop-opacity="0"/>
</linearGradient>
<linearGradient id="paint7_linear_46_190" x1="622.5" y1="725" x2="622" y2="825" gradientUnits="userSpaceOnUse">
<stop stop-color="#B67648" stop-opacity="0.51"/>
<stop offset="1" stop-color="#B67648" stop-opacity="0"/>
</linearGradient>
<linearGradient id="paint8_linear_46_190" x1="694.5" y1="1372.59" x2="639.459" y2="1353.14" gradientUnits="userSpaceOnUse">
<stop stop-color="#815230"/>
<stop offset="0.936626" stop-color="#815230" stop-opacity="0"/>
</linearGradient>
<linearGradient id="paint9_linear_46_190" x1="511.5" y1="1007" x2="622" y2="1060" gradientUnits="userSpaceOnUse">
<stop stop-color="#945F39"/>
<stop offset="0.383899" stop-color="#945F39" stop-opacity="0.4"/>
<stop offset="1" stop-color="#945F39" stop-opacity="0"/>
</linearGradient>
<linearGradient id="paint10_linear_46_190" x1="318" y1="734.5" x2="364.5" y2="814.5" gradientUnits="userSpaceOnUse">
<stop stop-color="#6D4727"/>
<stop offset="0.709114" stop-color="#6D4727" stop-opacity="0"/>
</linearGradient>
<radialGradient id="paint11_radial_46_190" cx="0" cy="0" r="1" gradientUnits="userSpaceOnUse" gradientTransform="translate(441.878 765.523) rotate(92.0319) scale(70.4331 104.413)">
<stop stop-color="#C6C1C1"/>
<stop offset="1" stop-color="#C6C1C1" stop-opacity="0"/>
</radialGradient>
<linearGradient id="paint12_linear_46_190" x1="732.25" y1="944" x2="732" y2="1131" gradientUnits="userSpaceOnUse">
<stop stop-color="#414141" stop-opacity="0.9"/>
<stop offset="1" stop-color="#414141" stop-opacity="0"/>
</linearGradient>
<linearGradient id="paint13_linear_46_190" x1="1131" y1="926" x2="1025.05" y2="1154.16" gradientUnits="userSpaceOnUse">
<stop stop-color="#A06B51"/>
<stop offset="0.677877" stop-color="#9B654C" stop-opacity="0"/>
</linearGradient>
<linearGradient id="paint14_linear_46_190" x1="1373" y1="1141.5" x2="1398" y2="1268.5" gradientUnits="userSpaceOnUse">
<stop offset="0.131943" stop-color="#353535" stop-opacity="0.7"/>
<stop offset="1" stop-color="#525252" stop-opacity="0"/>
</linearGradient>
<radialGradient id="paint15_radial_46_190" cx="0" cy="0" r="1" gradientUnits="userSpaceOnUse" gradientTransform="translate(1126.14 487.9) rotate(89.5217) scale(38.8926 45.3453)">
<stop stop-color="#B17979"/>
<stop offset="1" stop-color="#B17979" stop-opacity="0"/>
</radialGradient>
<radialGradient id="paint16_radial_46_190" cx="0" cy="0" r="1" gradientUnits="userSpaceOnUse" gradientTransform="translate(1248.14 497.891) rotate(-89.5217) scale(38.8926 45.3453)">
<stop stop-color="#B17979"/>
<stop offset="1" stop-color="#B17979" stop-opacity="0"/>
</radialGradient>
<radialGradient id="paint17_radial_46_190" cx="0" cy="0" r="1" gradientUnits="userSpaceOnUse" gradientTransform="translate(1248.14 497.891) rotate(-89.5217) scale(38.8926 45.3453)">
<stop stop-color="#B17979"/>
<stop offset="1" stop-color="#B17979" stop-opacity="0"/>
</radialGradient>
<linearGradient id="paint18_linear_46_190" x1="1184.26" y1="542" x2="1177.01" y2="738.696" gradientUnits="userSpaceOnUse">
<stop offset="0.276042" stop-color="#532C0B" stop-opacity="0"/>
<stop offset="0.84375" stop-color="#432307"/>
</linearGradient>
</defs>
</svg>
