<svg width="794" height="1254" viewBox="0 0 794 1254" fill="none" xmlns="http://www.w3.org/2000/svg">
<rect width="794" height="1254" fill="#CCFFED"/>
<path d="M731 1140.94L109.5 1039L62 1104.5V1184H731V1140.94Z" fill="#8F4141"/>
<path d="M160 1110H119.5L190 1077.5L216 1056L240.5 1061C240.5 1061 220.577 1072.06 211.5 1083C206.068 1089.55 201.775 1092.76 195.5 1098.5C183.719 1109.28 160 1110 160 1110Z" fill="url(#paint0_linear_54_363)" fill-opacity="0.72"/>
<path d="M484 951L486.5 949.5L485 969.5L475.5 979.5L476 972.5L479 958L484 951Z" fill="#534B21"/>
<path d="M507 777.5C506.555 764.937 503.5 745.5 503.5 745.5C503.5 745.5 510.228 748.083 515 749.5C522.123 751.616 527.07 752.073 534.5 752C540.76 751.938 552.375 750.794 558.5 749.5C563.756 748.389 580.5 739 580.5 739C580.5 739 555.596 806.44 552.5 845C551.873 852.807 551.909 857.439 551 865C550.278 871 543.821 890.5 541 897.5C538.179 904.5 508.767 957.664 508.5 960C508.233 962.336 508.636 963.912 508 966C507.364 968.088 503 973.731 503 975.5C503 977.5 502.865 979.161 503 981.5C503.086 983 508.5 998.5 508.5 1002V1026C508.5 1026 507.502 1029.86 506 1031.5C504.821 1032.79 503.681 1033.03 502 1033.5C501.5 1033.64 499.038 1034 496.5 1034C493.766 1034 492.216 1033.81 489.5 1033.5C486.3 1033.14 484.243 1033.19 481.5 1031.5C478.668 1029.76 477.889 1027.74 476 1025C474.11 1022.26 474.975 978.292 476 975.5C477.025 972.708 477.939 971.285 479 968.5C480.536 964.469 480.111 961.602 481 958C481.889 954.398 484.791 952 486 949.5C487.911 945.55 488.481 943.093 490 939C491.519 934.907 491.79 919.392 492 906.5C492.245 891.467 490.854 873.5 492 868C493.939 858.69 496.803 853.956 500 845C502.305 838.543 506 832.5 506 828.5C506 825.545 506.291 823.94 506 821C505.461 815.556 505.5 810 505.5 807C505.5 802.998 506.59 798.508 507 793C507.449 786.964 507.214 783.549 507 777.5Z" fill="#CFAB89"/>
<path d="M209 1040L236.5 1011.5L249 1007.5L243.5 1021L226 1043L204.5 1066L209 1040Z" fill="#423F3F"/>
<path d="M433 696L462.5 741.5C462.5 741.5 439.76 748.088 424.5 750.5C404.248 753.701 392.516 752.253 372 752C338.794 751.591 287 753 287 753V757.5C287 779.76 291.689 791.314 287 814.5C283.356 832.52 278.066 844.145 272 861.5C266.23 878.008 263.219 887.412 259.5 904.5C256.264 919.369 253.025 935 253.5 943C253.886 949.506 254.655 957.5 256 959.5C257.928 962.366 260.263 963.514 262 966.5C263.335 968.796 263.706 970.04 264 973C264.385 976.872 263.353 979.352 262 983C260.331 987.5 250.533 1006.04 239.5 1018.5C232.072 1026.89 225.16 1029.12 218.5 1038.5C214.1 1044.69 212.78 1049.41 209 1056L208.903 1056.17C206.44 1060.46 205.392 1062.29 202 1066C197.941 1070.44 195.115 1073.84 189.5 1076C185.782 1077.43 183.478 1078.19 179.5 1078C174.501 1077.76 171.864 1075.9 167.5 1073.5C163.889 1071.52 161.057 1070.57 159 1067C156.855 1063.28 158 1058 158 1056C158 1052.97 159.44 1051.1 161 1048.5C162.5 1046 167.139 1042.71 170.5 1038.5C172.896 1035.5 178.558 1020.12 185.5 1008.5C188.112 1004.13 190.415 1000.89 193 996.5C195.484 992.284 197.427 990.134 199 985.5C200.572 980.866 198.732 971.173 199 962C199.527 943.976 203.579 934.023 203 916C202.577 902.831 200.131 895.627 199 882.5C196.05 848.261 195.275 828.86 199 794.5C201.72 769.41 210.475 740.445 211 730.5C211.525 720.555 209.876 708.5 211 705C213.222 698.081 215.832 694.569 220.5 689C225.168 683.431 252.257 675.175 273.5 669C293.248 663.26 304.581 660.456 325 658L325.201 657.976C341.186 656.053 350.376 654.948 366.5 656C385.377 657.232 414 665.5 414 665.5L433 696Z" fill="#CFAB89"/>
<path d="M491.5 739C480.987 735.496 462.5 742 462.5 742C462.5 742 460.85 740.253 459.5 739C456.681 736.383 454.5 731.5 452.5 728C449.126 722.095 442.337 712.384 436 701.5C430.979 692.876 428.476 689.463 423.5 682.5C418.442 675.422 412 665 412 665C412 665 410.049 660.818 411 658C413.083 651.825 412.172 648.515 412 642C411.854 636.448 414.5 628.5 414.5 628.5H424L461.5 640H530.5L566 635.5L577.5 650L575 666L567 703.5C567 703.5 587.5 726 587.5 729C587.5 732 579.927 740.157 576.5 742.5C569.614 747.208 563.701 749.973 555.5 751.5C546.862 753.109 545.287 753 536.5 753C530.642 753 522.093 752.743 516.5 751C511.381 749.405 508.062 748.317 503.5 745.5C501.88 744.5 494.5 740 491.5 739Z" fill="#F09851"/>
<path d="M491.761 738.5C481.248 734.996 462.761 741.5 462.761 741.5C462.761 741.5 461.111 739.753 459.761 738.5C456.942 735.883 454.761 731 452.761 727.5C449.387 721.595 442.598 711.884 436.261 701C431.24 692.376 428.737 688.963 423.761 682C418.703 674.922 412.261 664.5 412.261 664.5C412.261 664.5 410.31 660.318 411.261 657.5C413.344 651.325 412.433 648.015 412.261 641.5C412.115 635.948 414.761 628 414.761 628H424.261L461.761 639.5H530.761L566.261 635L577.761 649.5L575.261 665.5L567.261 703C567.261 703 587.761 725.5 587.761 728.5C587.761 731.5 580.188 739.657 576.761 742C569.875 746.708 563.962 749.473 555.761 751C547.123 752.609 545.548 752.5 536.761 752.5C530.903 752.5 522.354 752.243 516.761 750.5C511.642 748.905 508.323 747.817 503.761 745C502.142 744 494.761 739.5 491.761 738.5Z" fill="url(#paint1_linear_54_363)"/>
<path d="M479.5 955C481.443 951.815 486 949.5 486 949.5C486 949.5 481.774 953.871 480.5 957.5C479.229 961.12 479.54 962.807 478.5 966.5C477.655 969.5 475.5 977 475.5 977V1007C475.5 1007 475.571 1024 477 1026C478.429 1028 483 1032.5 486.5 1032.5C489.541 1032.5 501.214 1033 502 1032.5C502.786 1032 505.567 1030.55 507 1028.5C509.263 1025.26 507.914 1022.41 508.5 1018.5C507.914 1009.71 508.586 1007.79 508 999C506.5 996 502.5 981 502.5 979.5C502.5 977.7 503 975 503 975C503 975 506.633 990.604 508 999C508.586 1007.79 507.914 1009.71 508.5 1018.5C509.281 1027.09 511.5 1037.5 511.5 1040.5C511.5 1044 507.994 1049.86 505 1055.5C501.495 1062.1 496.5 1071.3 494.5 1071.5C493.529 1071.6 492.97 1071.61 492 1071.5C491.03 1071.39 486.061 1064.61 482.5 1060C478.823 1055.24 474.756 1049 474 1047C473.244 1045 473.385 1034.51 473.5 1026.5C473.609 1018.88 474.267 1014.62 474.5 1007C474.847 995.68 475.5 977 475.5 977C475.5 977 475 970 475.5 966.5C475.854 964.025 476.762 959.488 479.5 955Z" fill="#BCAB52"/>
<path d="M262 1032.5V1014L253.5 1019V1037.5H257.5L262 1032.5Z" fill="#5E3C3C"/>
<path d="M262.5 969.5C261.573 966.841 258.5 962.5 258.5 962.5L258 962C258 962 259.418 961.932 260 962C261 962.117 262.79 963.788 265 965.5C267.997 967.821 270.351 969.586 272 973C273.855 976.84 274.318 979.29 275 983.5C276.094 990.249 276.158 997 274.5 1001C273.359 1003.75 272.335 1005.15 270.5 1007.5C267.765 1011 261.618 1014.9 256 1019.5C246.923 1026.94 242.23 1031.63 234 1040C226.64 1047.48 222.706 1051.92 216 1060C210.112 1067.09 205.096 1073.5 203.5 1077C202.371 1079.47 199.17 1085.35 197.5 1087.5C195.167 1090.5 192.869 1093.85 187.5 1097.5C181.35 1101.68 175.772 1103.91 169 1106.5C157.513 1110.88 151.756 1111.01 139.5 1112C129.184 1112.83 113.5 1112.5 113.5 1112.5C113.5 1112.5 112.973 1105 113.5 1102.5C114.027 1100 120.979 1092.34 126 1086L126.133 1085.83C131.733 1078.77 134.921 1074.74 141 1068C146.456 1061.95 149.619 1058.64 155.5 1053C161.891 1046.87 168.5 1041 168.5 1041C168.5 1041 159.116 1051.61 158.5 1054.5C157.728 1058.13 157.616 1062 158.5 1064C159.673 1066.66 161.934 1068.96 164 1071C166.5 1073.47 169.655 1074.41 174.5 1076.5C177.632 1077.85 179.5 1078 181.5 1078C184.837 1078 187.96 1076.53 190 1075C192 1073.5 207.864 1060.42 217.5 1048.5C224.108 1040.33 227.385 1035.69 233.5 1027C242.167 1014.69 248.36 1008.25 255.5 995C258.689 989.08 262.387 981.951 263 979.5C263.5 977.5 263.721 973.003 262.5 969.5Z" fill="#BCAB52"/>
<path d="M616.5 591.5C624.914 567 629.5 558 629.5 558C629.5 558 619.272 542.568 614 533C608.728 523.432 604.5 510 604.5 510L652.5 494C652.5 494 667.5 553.5 667.5 558C667.5 562.5 668.144 569.191 667.5 573.5C663.5 588.5 651.357 611.635 641.5 629.5C625.5 658.5 608 686 608 686L591.5 668C591.5 668 612.894 602 616.5 591.5Z" fill="#D9A87B"/>
<path d="M629 560L602 511L652 496C652 496 667 555.5 667 560C667 564.5 667.644 571.191 667 575.5C663 590.5 650.857 613.635 641 631.5C625 660.5 607.5 688 607.5 688L591 670C591 670 598.288 645.324 607.5 618.5C614.052 599.421 629 560 629 560Z" fill="url(#paint2_linear_54_363)"/>
<path d="M378 657.5C369.548 656.732 360.5 649.5 360.5 649.5L383.5 648.5L405.5 663.5L394.5 660.5C388.539 659.244 380.943 657.768 378 657.5Z" fill="#B38964"/>
<path d="M570 598.5C559 603.5 546.5 607.5 531.5 612.5C526.18 614.273 507.016 619.792 499.5 620C514.333 620.996 557.7 625.5 564.5 623.5C568.1 617.9 578.5 616.667 582 616C587.5 604 582.2 595.7 581 596.5C579.8 597.3 573.599 596.864 570 598.5Z" fill="#C7AF9D"/>
<path d="M438 633.5C427.817 630.202 411.5 626.5 411.5 626.5L361.5 649.5C361.5 649.5 356.927 649.388 354 649.5C345.114 649.839 340.1 650.736 331.5 653C326.126 654.415 323.078 655.243 318 657.5C313.5 659.5 262 670.722 253 674C242.881 677.685 237.296 680.025 227.5 684.5C222.575 686.75 219.615 687.667 215 690.5C210.84 693.054 208.829 694.972 205 698C183.875 714.707 157.5 748 157.5 748C157.5 748 174 756 177 756.5C182.556 757.426 183.169 767 185 768.5C187.442 770.5 199 772 199 773.5C199 776.531 196.875 777.971 197 781C197.226 786.466 204.718 791 205 792.5C205.282 794 201.774 801.177 201 807C200.254 812.613 199.028 816.192 201 821.5C202.51 825.564 206.504 826.281 207.5 830.5C208.6 835.159 206 839.5 206 841C206 844.359 208.237 845.286 212 847.5C216 849.853 232.916 881.029 252 894.5C260.5 900.5 286.208 915.919 309.5 927C331.503 937.468 344.251 942.706 367.5 950C393 958 465 948.056 485 950C505 951.944 525 935.833 527 927C527 927 529 920.5 530 919.5C531.442 918.058 545 888.5 545 888.5C545 888.5 541 910 542.5 913.5C543.98 916.952 551 917 551 918C551 919.197 549.625 927.5 551 929C552 930.091 556.5 931 558 931.5C559.5 932 567.5 933.013 570 931.5C571 930.895 570 912.5 570 912.5C570 912.5 573.66 916.271 576.5 918C581.197 920.859 588.5 922.932 590 922C591.5 921.068 590 906 590 906C590 906 602.22 911.029 610 909.5C615.058 908.506 620.714 907 622 904C623.5 900.5 611.5 718.5 611.5 718.5L602.5 715L587.5 744L562.5 707.5V699.5L575 665L578.5 652.5L572.5 640L562.5 636.5L503.5 644C503.5 644 471.397 644.389 452 638.5C446.445 636.813 443.523 635.289 438 633.5Z" fill="#F5C4C2" fill-opacity="0.37"/>
<path d="M426 607C424.8 605.8 413.5 608.5 410.5 609V628.5L418.5 629.5L428 632L453 640.5C463.333 641.333 485.636 645.5 495 645.5C501 645.5 545 647 564.5 637.5C566.281 640.224 567.612 641.498 571 643C571.758 647.662 572.752 649.325 575 651.5C575 651.5 574.414 653 573.5 654.5C572 656.962 572.5 665 572.5 665C572.5 665 562 691.5 560.5 695.5C558.927 699.693 559.145 702.469 559.493 706.912L559.5 707C559.852 711.494 569.324 724.894 577.5 735C583.06 741.873 589.876 752.638 593 751.5C596.124 750.362 598.073 749.003 599.5 746C600.273 744.374 599.926 743.206 600.5 741.5C601.419 738.767 603.116 737.744 604 735C605.497 730.354 604 722.5 604 722.5C604 722.5 609.234 723.094 612.5 722.5C616.46 721.78 618.723 720.838 622 718.5C624 717.073 627 711.354 627 708C627 705.5 625.828 696.026 625 694C624.172 691.975 616.624 682.399 615.5 679C614.376 675.601 603 659.5 603 659.5C603 659.5 597.545 641.5 597 637.5C595.5 626.5 590 622 590 621C597 608.5 587 597.5 583 598.5C584.2 601.7 582.5 611.833 581.5 616.5C576 614.5 568 619 564.5 622.5C551.7 626.5 496 617.333 469.5 614C445 613.5 427.5 608.5 426 607Z" fill="#DFB3B3"/>
<path d="M589 646C597 667 606 714.5 604 722.5" stroke="url(#paint3_radial_54_363)"/>
<path d="M565.5 696.5C566.5 692 571.5 681.5 571.5 681.5C569.5 693.5 583.167 721.5 587.5 732C584 728 574 714.7 568 709.5C562 704.3 564.5 701 565.5 696.5Z" fill="url(#paint4_linear_54_363)"/>
<path d="M571 643C575.025 642.463 583.649 639.422 590.198 633.666C592.634 631.142 594.5 629 594.5 629C593.251 630.717 591.786 632.271 590.198 633.666C588.274 635.661 585.994 637.895 584 639.5C579.823 642.861 572 647 572 647C572 647 571.189 645.852 571 645C570.831 644.238 571 643 571 643Z" fill="url(#paint5_linear_54_363)"/>
<path d="M590.5 921.5V747.5L583 739.5C578 794.833 569.1 906.1 573.5 908.5C577.9 910.9 586.667 918.167 590.5 921.5Z" fill="url(#paint6_linear_54_363)" fill-opacity="0.94"/>
<path d="M569.5 932.5L573.5 726.5L569.5 715.5C563 784.167 550.5 923.2 552.5 930C554.5 936.8 564.667 934.5 569.5 932.5Z" fill="url(#paint7_linear_54_363)" fill-opacity="0.94"/>
<path d="M481.035 863.691C481.141 864.472 481.101 865.094 481 865.5L481.035 863.691C480.791 861.904 479.783 859.283 477 856.5C472 851.5 477 837 477 827C477 819.323 480.991 766.517 483.228 737.965H483.434L481.035 863.691Z" fill="url(#paint8_linear_54_363)" fill-opacity="0.94"/>
<path d="M416.5 869C416.5 830.5 417 756.3 417 751.5L403.5 752.5L399.5 856.5C407.373 859.466 411.082 862.222 416.5 869Z" fill="url(#paint9_linear_54_363)" fill-opacity="0.94"/>
<path d="M374.5 848.5L388.5 752.5H403C400.833 789.833 396.6 855.7 395 852.5C393 848.5 395.5 848.5 384 841.5C374.8 835.9 375.5 846.5 374.5 848.5Z" fill="url(#paint10_linear_54_363)" fill-opacity="0.94"/>
<path d="M256 674.5C263.667 674 297 672.313 329.5 697.5C353.655 716.22 386.833 725.667 395.5 725" stroke="url(#paint11_linear_54_363)" stroke-linecap="round"/>
<path d="M184 766C176.4 764 177.5 755.833 179 752C179 752 200.027 713.408 212.5 695C216.116 689.663 221.5 687.5 221.5 687.5C221.5 687.5 216 693.5 213.5 697.5C211.449 700.782 207.747 713.997 208 720.5C208.609 736.134 199.833 755.833 200.5 769C198.167 768.833 191.6 768 184 766Z" fill="url(#paint12_linear_54_363)"/>
<path d="M350 752H358C358 752 354.318 769.854 350 781.5C343.687 798.526 331 825.5 331 825.5C331 825.5 344.669 789.618 347.5 778C350.331 766.382 350 752 350 752Z" fill="url(#paint13_linear_54_363)"/>
<path d="M374 752H368C368 752 362.346 787.963 356.5 810.5C351.306 830.525 340.5 861 340.5 861C340.5 861 354.626 831.429 361 811.5C368.246 788.846 374 752 374 752Z" fill="url(#paint14_linear_54_363)"/>
<path d="M234.5 757C237.739 746.5 251.5 708.5 251.5 708.5C251.5 708.5 239.017 731.241 234.5 744C231.007 753.866 230.681 759.883 228 770C220.515 798.239 206 841.5 206 841.5C206 841.5 212.785 839.318 215.5 836C220 830.5 225.204 787.14 234.5 757Z" fill="url(#paint15_linear_54_363)"/>
<path d="M239.5 723.5C234.5 730.5 229.641 741.122 223.913 754.5C219.033 765.897 214.402 777.075 211 783.5C203.8 797.1 202.333 802.5 202.5 803.5" stroke="url(#paint16_linear_54_363)" stroke-linecap="round"/>
<path d="M483 688.5C483 688.5 453.5 741.533 405 748C376.638 751.782 336 720 336 720" stroke="url(#paint17_radial_54_363)" stroke-linecap="round"/>
<path d="M516 691.5C515.5 702.833 507.3 734.3 478.5 769.5C449.7 804.7 438.833 825.833 437 832" stroke="url(#paint18_radial_54_363)" stroke-linecap="round"/>
<path d="M420 608.5C416.5 607.5 411 608 411 608C411 608 410.5 608.5 410 612C409.57 615.011 410.5 619 410.5 619C410.5 619 416.453 615.337 420 615C430.368 614.016 436.183 616.575 446.5 618C455.118 619.19 459.82 620.917 468.5 621.5C472 621.735 485 621.5 485 621.5C485 621.5 477.363 621.074 472.5 620.5C463.22 619.405 449 616 449 616C449 616 423.876 609.608 420 608.5Z" fill="url(#paint19_linear_54_363)"/>
<path d="M444.5 624C436.299 622.633 431.802 627.047 423.5 627.5C419.406 627.723 413 627.5 413 627.5V621.5C413 621.5 432.409 619.233 444.5 621.5C452.5 623 479.5 626.5 479.5 626.5C479.5 626.5 450.5 625 444.5 624Z" fill="url(#paint20_linear_54_363)"/>
<path d="M293.5 527.5C296.5 519 316 484 316 484L331 497.5L334 504.5L338.5 510.5L347 511.5L354 519.5C354 519.5 350 527.5 346.5 531C344.792 532.708 340.939 539.275 340 541.5C338.221 545.715 334.5 548.5 334.5 548.5C334.5 548.5 336.624 553.934 338.5 556.5C341.335 560.377 341.782 563.714 344 567.5C350.935 579.338 351.851 586.29 359 598C363.518 605.401 367.465 609.325 373 616C376.354 620.044 381 626 381 626C381 626 383.645 625.5 385.5 625.5C387.355 625.5 391 626 391 626C391 626 398.304 621.84 403.5 620C413.323 616.522 418.938 613.658 429.5 614C432.647 614.102 434.271 613.205 437.5 614C440.388 614.711 442.5 616 442.5 616C442.5 616 443.256 619.297 441.5 621C439.744 622.703 433.629 621.218 428.5 622.5C424.5 623.5 420.5 623.768 419 624.5C416.368 625.784 413 629 413 629C413 629 421.307 630.164 426.5 631.5C434.579 633.578 443.5 638.5 443.5 638.5C443.5 638.5 451.215 640.5 451.5 642C451.69 643 452 644.055 451 645.5C449.757 647.295 448.726 647.461 446.5 647.5C444.274 647.539 438 644.5 438 644.5C438 644.5 427.813 640.822 421 640.5C417.289 640.325 411.5 641 411.5 641C411.5 641 418.66 647.75 424 651C428.776 653.907 435 656 437 657C439.223 658.111 442 660 442.5 661.5C443 663 441.5 666.5 440 666.5C438 666.5 429.269 663.462 422 660C416.638 657.447 410.5 652.5 408.5 653C407.817 653.171 407 654 407 654C407 654 411.826 658.024 415 660.5C422.177 666.099 432.5 672 434 674C434.82 675.093 434.863 676.44 434 677.5C433.5 678.114 432.5 678.5 431.5 678.5C428.15 678.5 418.122 671.327 409.5 666.5C402.103 662.359 398.427 658.505 390.5 655.5C384.831 653.351 381.447 652.679 375.5 651.5C369.703 650.35 360.5 649.5 360.5 649.5C360.5 649.5 337.949 626.27 325.5 609.5C317.688 598.977 313.317 592.693 306.5 581.5C299.634 570.226 291.5 557.5 291.5 552.5C291.5 548.852 290.756 545.071 291.5 541.5C292.661 535.927 291.605 532.868 293.5 527.5Z" fill="#D9A87B"/>
<path d="M377.5 629C378.339 627.269 379.5 624 379.5 624L381 626C381 626 379.728 628.782 378.5 630.5C376.16 633.775 372 638.5 372 638.5C372 638.5 375.631 632.858 377.5 629Z" fill="#8F643D" fill-opacity="0.42"/>
<path d="M453.5 339C453.333 335.167 453.1 327.3 453.5 326.5L472 335L494 337H513.5V358.5C513.5 362.449 513.33 364.922 515 368.5C516.123 370.907 516.899 372.376 519 374C521.152 375.663 522.819 376.04 525.5 376.5C527.809 376.896 531.5 376.5 531.5 376.5C531.5 376.5 528.947 380.604 527 383C522.459 388.589 519.901 392.731 513 395C509.615 396.113 506.535 396.549 503 397C493.12 398.26 487.134 397.584 477.5 396C472.126 395.116 469.194 394.763 464.5 392C460.216 389.479 458.381 387.06 455.5 383C452.458 378.712 450 369.5 450 369.5C450 369.5 451.14 366.396 452 364C453.319 360.324 453.5 357.905 453.5 354C453.5 348.142 453.667 342.833 453.5 339Z" fill="#E7B385"/>
<path d="M453.5 339.5C453.333 335.667 453.1 327.8 453.5 327L472 335.5L494 337.5H513.5V359C513.5 362.949 513.33 365.422 515 369C516.123 371.407 516.899 372.876 519 374.5C521.152 376.163 522.819 376.54 525.5 377C527.809 377.396 531.5 377 531.5 377C531.5 377 528.947 381.104 527 383.5C522.459 389.089 519.901 393.231 513 395.5C509.615 396.613 506.535 397.049 503 397.5C493.12 398.76 487.134 398.084 477.5 396.5C472.126 395.616 469.194 395.263 464.5 392.5C460.216 389.979 458.381 387.56 455.5 383.5C452.458 379.212 450 370 450 370C450 370 451.14 366.896 452 364.5C453.319 360.824 453.5 358.405 453.5 354.5C453.5 348.642 453.667 343.333 453.5 339.5Z" fill="url(#paint21_linear_54_363)"/>
<path d="M451.5 277.5L442.5 267.5L436 277.5L429.5 310.5L451.5 317V277.5Z" fill="#D3A277"/>
<path d="M496 226.5C498.5 226.336 502.545 223.856 507 224C512.273 224.171 516.799 225.258 520.5 230C522.451 232.5 523.852 235.11 525.5 239C527.881 244.62 529.551 249.413 530 255.5C530.603 263.679 530 271 530 276.5C530 283.725 531.089 289.137 530 296.5C529.061 302.854 526.765 309 526 312.5C525.235 316 525.867 321.934 524 327.5C522.806 331.061 521.562 333.861 519.5 337C517.29 340.364 515.987 342.001 513 343.5C510.013 344.999 508.329 345.303 505 345C501.311 344.664 499.673 343.985 496 343.5C491.724 342.935 488.814 343.5 484.5 343.5C481.5 343.5 474.513 341.808 468.5 339.5C462.956 337.372 459.643 336.254 455.5 332C452.205 328.617 451.33 325.854 449.5 321.5C447.462 316.653 447.634 314 446.5 308.5C443.618 294.528 445 271.5 445 271.5L449 257L462 233L481 222C481 222 492.5 226.729 496 226.5Z" fill="#DDAC81"/>
<path d="M508 265.5C508 265.5 505.476 268.149 504.5 270.5C503.524 272.851 506.5 286.5 507.5 289C508.37 291.176 508.161 294.788 507.5 296C506.839 297.212 504.5 298.5 504.5 298.5" stroke="url(#paint22_radial_54_363)"/>
<path d="M492.5 323C488.595 322.024 483 317 483 317C483 317 487.429 316.218 489.762 316C491.936 315.797 493.822 314.651 496 314.5C497.364 314.405 498.14 314.362 499.5 314.5C502.142 314.768 502.937 317.304 505.5 318C507.054 318.422 510 319 510 319C510 319 504.683 322.765 501 323.5C499.5 323.799 494.5 323.5 492.5 323Z" fill="#9F4E38"/>
<circle cx="498" cy="317" r="2" fill="url(#paint23_radial_54_363)"/>
<circle cx="498" cy="317" r="1.5" stroke="#7E6B6B" stroke-opacity="0.51"/>
<path d="M494.5 308C492 308 485.5 313 484 315C483.329 315.894 483 317 483 317C483 317 486.964 317.117 489.5 317C493.033 316.837 494.779 315.491 498.5 316C501.625 316.427 504.5 318 506.5 318.5C507.637 318.784 510 319 510 319C510 319 510 316 509 314.5C508 313 505 308.065 502.5 308C500.89 307.958 499.5 309 498.5 309C497.5 309 496.352 308 494.5 308Z" fill="#772F1C"/>
<path d="M489.5 262.5C492.483 264.488 488 271.5 488 271.5C488 271.5 486.872 270.178 486 269.5C484.621 268.428 482 267.5 482 267.5C480.5 267.333 477.4 266.5 477 266.5C476.6 266.5 472.167 267.833 470 268.5H466.5C466.5 268.5 464.251 268.175 463 267.5C462.141 267.036 461.476 266.853 461 266C460.429 264.977 463.35 262.475 464 261.5C465 260 466.642 256.367 472 255C474.838 254.276 477.089 256.177 480 256.5C484.5 257 488 261.5 489.5 262.5Z" fill="url(#paint24_linear_54_363)"/>
<path d="M506.5 268.5C506.5 269.987 507 273.5 507 273.5C507 273.5 510.198 271.018 512.5 270.5C514.977 269.943 516.502 270.053 519 270.5C521.677 270.979 526.5 273.5 526.5 273.5C526.5 273.5 527.658 271.703 528 270.5C528.441 268.951 527 265.5 526.5 264.5C526 263.5 521.982 260.515 518.5 260C515.077 259.493 511.5 263 509.5 264.5C507.5 266 506.5 267.5 506.5 268.5Z" fill="url(#paint25_linear_54_363)"/>
<path d="M470.947 269.184C473.751 271.418 479.632 272.973 487.328 271.218C482.031 266.248 478.367 266.341 470.947 269.184Z" fill="#E3E3E3"/>
<path fill-rule="evenodd" clip-rule="evenodd" d="M479.629 272.044C480.923 271.569 481.872 270.498 481.995 269.176C482.038 268.725 481.98 268.284 481.838 267.871C479.522 267.129 477.123 267.356 474.046 268.298C474.04 268.342 474.034 268.387 474.03 268.431C473.929 269.512 474.401 270.53 475.223 271.252C476.518 271.628 477.994 271.918 479.629 272.044Z" fill="#7A9F99"/>
<ellipse cx="478.013" cy="268.804" rx="2" ry="1.5" transform="rotate(5.34388 478.013 268.804)" fill="#242B29"/>
<path d="M470.589 267.644C480.594 263.759 486.519 269.134 488.231 272.307C486.519 269.134 480.408 265.75 470.402 269.635C468.376 270.422 461.598 267.918 461.238 265.934C461.228 265.878 461.222 265.821 461.223 265.763C461.222 265.82 461.228 265.877 461.238 265.934C461.59 267.82 468.058 268.626 470.589 267.644Z" fill="#0A0909"/>
<path d="M486.429 270.093C486.429 270.093 484.126 267.869 482.633 267.73C479.939 267.478 473.721 267.88 473.721 267.88L471.992 268.743C471.992 268.743 476.971 268.707 479.506 268.944C482.041 269.181 486.429 270.093 486.429 270.093Z" fill="black" fill-opacity="0.46"/>
<path d="M524.408 274.059C521.241 275.74 515.175 276.187 507.931 273.049C514.052 269.136 517.636 269.901 524.408 274.059Z" fill="#E3E3E3"/>
<path fill-rule="evenodd" clip-rule="evenodd" d="M513.146 274.931C512.556 274.252 512.237 273.391 512.32 272.485C512.372 271.923 512.572 271.406 512.885 270.961C515.286 270.386 517.506 270.757 520.137 271.941C520.272 272.345 520.327 272.775 520.287 273.216C520.209 274.064 519.792 274.809 519.162 275.36C517.386 275.477 515.357 275.383 513.146 274.931Z" fill="#7A9F99"/>
<path d="M514.371 272.37C514.296 273.195 515.126 273.946 516.226 274.047C517.326 274.147 518.279 273.561 518.355 272.736C518.43 271.911 517.6 271.16 516.5 271.059C515.4 270.958 514.447 271.545 514.371 272.37Z" fill="#242B29"/>
<path d="M524 272C514.879 266.343 509.11 271.148 506.844 273.953C509.11 271.148 515.739 268.945 524.86 274.602C526.76 275.781 528.559 274 529 271.5C528.651 273.476 525.612 273 524 272Z" fill="#0A0909"/>
<path d="M509.022 272.108C509.022 272.108 511.694 270.345 513.188 270.482C515.882 270.729 521.92 272.267 521.92 272.267L523.461 273.433C523.461 273.433 518.573 272.483 516.038 272.25C513.503 272.017 509.022 272.108 509.022 272.108Z" fill="black" fill-opacity="0.46"/>
<path d="M506 263.5C506 262.855 507.836 261.628 509.5 260.5C511.285 259.29 513.682 258.354 515.5 258C517.318 257.646 521 258.5 522 259C523.259 259.63 524.829 260.606 525.5 261.5C527 263.5 528 267.5 528 267.5C528 267.5 525.06 262.707 522.5 262C519.652 261.213 515.28 261.339 513.5 262C510.498 263.115 506.5 267.5 506.5 267.5C506.5 267.5 506 264.5 506 263.5Z" fill="url(#paint26_linear_54_363)"/>
<path d="M491 259.645C491 259 489.164 257.773 487.5 256.645C485.715 255.435 483.318 254.498 481.5 254.145C479.682 253.791 474.5 254.145 473 254.561C471.643 254.938 468 256.228 465.5 258.145C463.516 259.666 461 265.061 461 265.061C461 265.061 466 260.5 470.5 258.561C473.214 257.392 475 256.645 480.5 257.561C483.659 258.088 490.5 264.561 490.5 264.561C490.5 264.561 491 260.645 491 259.645Z" fill="url(#paint27_linear_54_363)"/>
<path d="M466 308.5C456.8 305.3 446 296.833 445 294.5C445 294.5 444.714 289.224 444.5 285.5C444.243 281.016 445 273.5 445 273.5C445 273.5 448.547 285.178 451.5 291.5C454.321 297.538 466 308.5 466 308.5Z" fill="url(#paint28_linear_54_363)"/>
<path d="M459.5 386C453.92 380.588 449.5 369.5 449.5 369.5C449.5 369.5 439.547 371.782 432.5 376C428.444 378.428 424.278 381.489 420 383.5C416.357 385.212 413.848 384.817 410 386C402.312 388.365 397.943 386.779 390 389.5C385.784 390.944 382.749 390.589 379 393C371.661 397.72 366.902 400.281 362 407.5C359.547 411.112 357 417.5 357 417.5C357 417.5 343.565 430.66 336 440C324.989 453.593 316 469.5 311.5 477.5C310.447 479.372 311.193 480.874 311.5 483C312.904 492.727 324.64 491.611 330.5 499.5C332.956 502.807 334.914 508.271 338 511C341.613 514.195 343.674 510.064 347.5 513C350.694 515.45 350.455 519.092 354 521C356.787 522.5 358.804 522.5 361.958 522.5H362C365.179 522.5 367.225 522.55 370 521C374.067 518.729 374.185 516.552 376.5 511C379.447 503.935 381 489 381 489V499.5C381 499.5 381.277 515.051 384 524.5C387.216 535.66 397.5 551 397.5 551C397.5 551 397.368 555.879 397.5 559C397.972 570.134 403 578 403 587C403 592.99 399.5 594.5 397.5 599C396.329 601.635 399.037 603.389 401 605.5C402.963 607.611 411.698 607.152 418.5 608.5C429.138 610.609 435.69 614.124 446.5 615C452.144 615.458 458.341 617.806 464 618C475.379 618.39 477.631 617.377 489 618C501.868 618.705 509.22 619.656 522 618C535.859 616.204 543.505 613.641 556.5 608.5C564.54 605.319 569.075 603.431 576.5 599C581.802 595.836 589.701 596.171 589.5 590C589.426 587.716 587.5 584.5 587.5 584.5C587.5 584.5 587.658 582.358 587.5 581C586.984 576.573 582 571 582 571C582 571 585.198 562.693 584 557.5C583.156 553.84 580.423 552.641 579.5 549L579.469 548.878C578.525 545.156 577.85 542.493 579.5 539C580.622 536.625 584.414 536.594 584 534C583.778 532.609 582.453 532.333 582 531C581.435 529.336 582 526.5 582 526.5C582 526.5 586.361 517.321 587.5 511C588.746 504.082 587.5 493 587.5 493C587.5 493 592.139 509.832 599.5 518.5C603.849 523.621 601.407 527.707 608 529C611.066 529.601 614.996 527.358 618 526.5C623.31 524.983 623.148 524.4 627.5 521C631.643 517.763 635.674 518.51 640.5 516C649.483 511.328 660.5 504.5 660.5 499.5C660.5 495.464 652.908 486.989 648 479C642.951 470.782 637.971 464.179 635 458C630.376 448.384 623.311 443.449 617.5 434.5C611.153 424.726 609.401 418.002 602 409C596.915 402.814 595.494 399.318 587.5 394.5C582.741 391.631 578.745 386.647 574 385.5C568.819 384.248 560 379 560 379C560 379 550.264 374.256 544.5 374C539.193 373.764 531.5 376.5 531.5 376.5C531.5 376.5 528.742 380.081 527 382.5C523.128 387.878 521.292 389.779 515.5 393C508.57 396.854 502.927 396.324 495 396.5C485.917 396.702 483.056 397.556 474.5 394.5C468.496 392.356 464.077 390.438 459.5 386Z" fill="#DFDCB4"/>
<path d="M598.5 478.5C598.5 478.5 600.394 469.429 605 468C612.02 465.822 600.5 478.5 617.5 486C623.753 488.759 607.822 497.213 610.5 503.5C613.596 510.768 632.633 512.208 626 516.5C622.23 518.94 618.991 516.5 614.5 516.5C610.79 516.5 609.88 515.029 606.5 513.5C601.329 511.16 599.237 505.717 597 500.5C594.154 493.86 590.061 492.8 592.5 486C593.767 482.469 598.5 478.5 598.5 478.5Z" fill="url(#paint29_linear_54_363)"/>
<path d="M336 475C335.601 484.966 357.5 450.5 358.5 465C358.823 469.675 367.51 462.542 371.5 465C378.608 469.379 348.5 492.5 367.5 486C375.218 483.36 365 507.5 371.5 506.5C377.495 505.578 368.692 517.404 363 519.5C359.702 520.714 357.241 520.86 354 519.5C349.894 517.777 350.653 513.107 346.5 511.5C343.587 510.372 342.215 512.165 339.5 511C336.785 509.835 334.038 501.422 329.5 497C326.703 494.274 323.21 493.925 322 490.5C321.285 488.475 322.04 487.707 322.5 486C324.269 479.434 337 450 336 475Z" fill="url(#paint30_radial_54_363)" fill-opacity="0.7"/>
<path d="M533.532 534.323L537 545.5L539.848 552.417C540.271 553.443 540.357 554.59 539.916 555.608C539.347 556.921 538.367 558.62 537 559C520.69 563.531 541.327 570.114 545.346 571.31C545.779 571.439 546.229 571.5 546.682 571.5H556C558.762 571.5 561 569.261 561 566.5V565.576C561 564.55 561.316 563.549 561.904 562.709L566.525 556.108C567.146 555.22 566.511 554 565.427 554C563.866 554 563.191 550.732 564.449 549.808C566.069 548.618 567.427 547.18 568 545.5C571.965 533.87 571.738 528.807 570.643 526.618C569.743 524.82 567.266 523.918 566.137 522.254L561.48 515.391C559.864 513.009 556.575 512.481 554.294 514.236L535.258 528.878C533.6 530.154 532.912 532.326 533.532 534.323Z" fill="url(#paint31_radial_54_363)"/>
<path d="M406.344 389.557L412 387.5L421 383.5L436.696 376.616C443.895 373.458 452.307 376.439 455.912 383.424C456.957 385.448 458.452 387.205 460.282 388.561L466.232 392.968C469.359 395.285 473.025 396.739 476.856 397.427C485.443 398.969 497.357 402.037 467 403.5C465.692 403.563 464.193 404.313 463.02 405.047C461.899 405.748 461.861 407.289 462.836 408.183C464.313 409.537 463.355 412 461.351 412H460.14C457.807 412 456.598 414.783 458.19 416.489L466.936 425.86C470.848 430.051 469.159 436.609 463.427 436.505C455.449 436.361 445.279 432.86 439.5 418C435.333 407.285 425.657 434.329 418.266 425.523C417.479 424.585 416.719 423.579 416 422.5C414.204 419.806 410.293 425.139 408.471 427.937C407.802 428.963 407.095 429.965 406.291 430.889L399.757 438.39C396.56 442.061 391.012 442.498 387.279 439.373C381.444 434.488 383.994 425.011 391.493 423.713L397.335 422.702C398.108 422.568 398.856 422.322 399.558 421.971C403.81 419.845 405.643 413.476 401.113 412.034C401.075 412.022 401.038 412.011 401 412C385.5 407.5 412 407.704 412 412C412 419.181 413.871 413.967 415.054 409.954C415.645 407.946 414.668 405.834 412.796 404.898L406.61 401.805C405.027 401.013 405.283 398.679 407 398.25C408.717 397.821 408.974 395.487 407.39 394.695L406.086 394.043C404.166 393.083 404.326 390.291 406.344 389.557Z" fill="url(#paint32_radial_54_363)"/>
<path d="M541.5 431C536.424 430.922 530.464 439.171 526.5 436C494 410 468 436 487.5 439.5C497.598 441.313 517.5 427.784 517.5 439.5C517.5 447 495.907 475.545 497 483C498.148 490.829 511.886 476.766 522 475.5C529.556 474.554 534.579 478.676 541.5 475.5C547.273 472.851 547.108 466.372 553 464C555.847 462.854 559.791 462.87 562.988 463.164C566.239 463.463 568.5 466.315 568.5 469.58V471.088C568.5 473.784 570.048 476.24 572.48 477.403L578.87 480.459C579.617 480.817 580.291 481.302 580.893 481.871C584.087 484.884 595.084 494.391 601.5 489C604.773 486.25 602.301 483.404 598.368 481.038C593.676 478.216 594.047 468.846 591.5 464C589.764 460.698 587.478 459.788 585 457C578.071 449.205 578.387 439.321 568.5 436C562.762 434.072 558.898 437.362 553 436C548.228 434.898 546.397 431.075 541.5 431Z" fill="url(#paint33_radial_54_363)"/>
<path d="M593.488 446.554L588.35 441.639C585.64 439.047 585.46 434.779 587.94 431.968C589.795 429.865 592.728 429.076 595.388 429.963L600.602 431.701C602.189 432.23 603.677 433.021 605.004 434.041L616 442.5L629.607 452.505C631.826 454.137 633.553 456.348 634.599 458.896L640.497 473.275C640.832 474.09 641.238 474.874 641.71 475.618L650.906 490.109C654.74 496.15 653.773 504.057 648.598 508.997L647.756 509.801C646.921 510.598 645.998 511.295 645.004 511.88L639.786 514.95C638.636 515.626 637.277 515.855 635.968 515.594C634.123 515.225 632.218 515.837 630.935 517.213L630.061 518.149C625.624 522.903 617.658 520.385 616.76 513.945L616 508.5L613.838 489.474C613.615 487.511 613.006 485.611 612.046 483.883L602.753 467.155C601.614 465.105 601.157 462.746 601.448 460.419L602.267 453.862C602.656 450.749 600.229 448 597.093 448C595.75 448 594.458 447.482 593.488 446.554Z" fill="url(#paint34_linear_54_363)"/>
<path d="M542.5 392.402V381.239C542.5 378.582 544.582 376.4 547.235 376.555C550.898 376.77 555.932 377.459 559.5 379.5L559.606 379.561C562.796 381.386 564.635 382.438 568 384C574.022 386.795 577.338 387.216 581.5 391C587 396 594.242 398.05 596.5 404.5C598.328 409.721 601.455 420.576 602.581 424.524C602.856 425.487 602.831 426.508 602.514 427.458L599.641 436.078C598.577 439.269 594.729 440.52 591.991 438.565L587.574 435.41C587.193 435.138 586.856 434.819 586.569 434.45C584.749 432.115 577.626 422.833 574 416C573.243 414.573 572.508 412.896 571.826 411.166C570.183 406.995 564.182 406.3 561.987 410.21L556.868 419.33C554.657 423.268 549.151 423.34 547.655 419.078C545.899 414.078 545.174 408.3 549.5 405.5C552.471 403.578 547.567 399.003 544.565 396.576C543.299 395.552 542.5 394.031 542.5 392.402Z" fill="url(#paint35_radial_54_363)" fill-opacity="0.67"/>
<path d="M523 617.5L540 614C543.667 612.833 552.223 609.759 554.5 609C557.5 608 564.5 605.333 567.5 603C570.5 600.667 564.289 600.618 563.5 599C562.132 596.191 565.851 593.057 563.5 591C561.443 589.2 556.557 583.7 554.5 585.5C552.149 587.557 556.5 595 556.5 595C556.5 595 554.809 594.745 553 592.5C548.56 586.988 534.5 588.5 534.5 588.5C534.5 588.5 544.637 589.86 546 596.5C546.55 599.178 547.576 600.221 545.5 602C543.156 604.009 541.478 599.316 538.5 598.5C534.659 597.447 530.468 591.344 527.5 594C524.735 596.474 533.7 608.35 530.5 610C528.591 610.984 523 609.5 523 609.5V617.5Z" fill="url(#paint36_linear_54_363)" fill-opacity="0.74"/>
<path d="M337.181 460.55C340.241 458.499 352.826 449.788 358.5 441.5C365.721 430.953 369 410.5 369 410.5C369 410.5 365.153 446.726 369 451.5C372.847 456.274 381.5 461 381.5 461L353 475C353 475 362.857 462.65 358.5 456.5C354.038 450.202 340.39 458.475 337.181 460.55C336.743 460.843 336.5 461 336.5 461C336.5 461 336.744 460.832 337.181 460.55Z" fill="url(#paint37_linear_54_363)" fill-opacity="0.62"/>
<path d="M380 490.5C381.712 485.633 383.147 483.92 386.5 480C390.308 475.548 396.544 468.778 400 473.5C402.076 476.336 401.5 479.11 403.5 482C405.501 484.89 424 469.5 415 482C406 494.5 434.125 475.774 442.5 482.5C455.03 492.562 409.189 485.75 406 501.5C405.186 505.519 395.5 513.5 406 512C416.5 510.5 412.46 523.668 417.5 521C426 516.5 439.625 502.03 442.5 512C444.816 520.03 420 521 429.5 529C434.429 533.151 409 522.5 413 529C416.072 533.992 394.44 534.647 400 536.5C406 538.5 404.205 541.996 406 546C411.192 557.582 403 578 403 578C403 578 400.349 570.137 398 563.5C395.857 557.445 396.954 551.936 394.5 546C390.296 535.831 384.057 529.703 381.5 519C379.05 508.745 376.761 499.71 380 490.5Z" fill="url(#paint38_linear_54_363)"/>
<path d="M493 409C498.309 407.029 509.5 397.583 503 397C495.415 396.319 488 397.5 484.5 397C480.278 396.397 479.05 405.509 481.5 409C484.08 412.676 488.79 410.563 493 409Z" fill="url(#paint39_linear_54_363)"/>
<path d="M523.5 412.5C518.814 410.938 509.5 401 507.5 398.5C505.5 396 512.895 396.118 517 393C520.191 390.577 523.497 387.629 526 384.5C528 382 532.626 382.879 535 385.5C538.542 389.41 530.149 392.189 526.5 396C523.92 398.695 528.186 414.062 523.5 412.5Z" fill="url(#paint40_linear_54_363)"/>
<path d="M538 427C535.653 424.653 544.527 423.669 546.5 421C549.17 417.388 553.588 421.839 558 421C564.434 419.777 551 402.5 574 410.5C577.226 411.622 570.714 418.399 568.5 421C564.462 425.744 561.114 428.304 555 429.5C551.742 430.137 540.347 429.347 538 427Z" fill="url(#paint41_linear_54_363)"/>
<path d="M576 440C576.686 434.835 567.803 427.365 573 427C576.351 426.764 576.682 431.476 580 432C581.157 432.183 581.833 431.9 583 432C590.872 432.674 603.515 438.895 598.5 445C595.554 448.586 591.048 445.73 587 448C583.86 449.761 583.601 454 580 454C576.4 454 573.804 451.51 573 448C572.255 444.748 575.561 443.308 576 440Z" fill="url(#paint42_linear_54_363)"/>
<path d="M453.5 423C460.691 417.98 466.809 417.332 475.5 418.5C479.115 418.986 480.961 421.885 484.5 421C506.5 415.5 478.116 427.715 473 432C469.137 435.235 465.4 427.544 461 430C454.993 433.352 445.565 434.561 443.5 428C441.623 422.037 448.374 426.579 453.5 423Z" fill="url(#paint43_linear_54_363)"/>
<path d="M439.5 562C434.862 556.136 432.277 551.214 425 549.5C421.389 548.65 418.933 548.092 415.5 549.5C406.917 553.02 424.266 561.12 431 567.5C437.465 573.625 444.224 595.818 450.5 589.5C456.47 583.49 444.755 568.644 439.5 562Z" fill="url(#paint44_linear_54_363)"/>
<path fill-rule="evenodd" clip-rule="evenodd" d="M506.145 428.449C508.629 429.298 511.201 430.177 514.209 431C515.466 431.344 516.472 431.55 517.444 431.749C518.873 432.042 520.23 432.32 522.209 433C527.178 434.707 533.209 442 535.209 444.5C538.836 449.033 539.709 451.5 539.709 451.5L567.209 452C567.209 452 568.076 454.7 567.209 456C566.775 456.651 565.905 457.201 564.921 457.822C563.639 458.632 563.455 459.063 562.5 460.5C562.199 460.953 560.779 461.913 560.656 462.351C560.483 462.966 560.321 463.541 559.709 464C558.303 465.054 557.498 464.419 556 463.5C554.8 462.764 554 460.5 554 460.5C554 460.5 552.741 465.666 552 468.5C551.534 470.28 550.919 471.976 550 473C548.89 474.237 547.209 474.777 547.209 477C547.209 480.5 549.709 502 549.709 502L547.209 493.5V515L544.209 502C544.209 502 543.709 506.681 543.709 510C543.709 513.319 544.209 519 544.209 519L542.209 515C542.209 515 540.534 519.525 539.709 522.5C538.696 526.153 537.709 532 537.709 532V525L532.209 544.5V536C532.209 536 530 540.5 529 543.5C528 546.5 529 554.5 529 554.5C529 554.5 527.309 549.396 527 546C526.646 542.101 527.709 536 527.709 536L524.209 552V541.5C524.209 541.5 521.609 546.189 521 549.5C520.184 553.934 522 561 522 561L518.209 550.5L513.709 567V558.5C513.709 558.5 511.333 563.848 510.709 567.5C510.019 571.542 514 577.5 514 577.5C514 577.5 508.834 570.5 509.209 567.5C509.746 563.198 509.209 561 509.209 561L503.209 572V546L498.209 561L495.709 550.5C495.709 550.5 491 559.59 491 567C491 571.014 491.709 586.5 491.709 586.5C491.709 586.5 489.918 570.75 489.709 569.5C489.5 568.25 489.709 557 489.709 557L484.709 578V557C484.709 557 479.715 565.7 479 570.5C478.158 576.154 482 583 482 583C482 583 475.83 573.284 476.709 568.5C477.588 563.716 478.709 558.5 478.709 558.5L475 563L472.5 574L474.209 558.5V554.5C474.209 554.5 470.085 556.159 469.5 558.5C469 560.5 469.5 572 469.5 572C469.5 572 466.551 562 467 560.5C467.847 557.669 467.209 552 467.209 552L466.209 546C466.209 546 464.186 549.331 462.709 552C461.429 554.314 460.016 554.861 459.5 557C459.082 558.732 458.954 560.929 459.5 563C460.291 566 463 571 463 571C463 571 457.459 564.561 457.209 560.5C457.004 557.17 458.353 553.736 458.5 552.5C459.444 544.541 457.209 542.5 457.209 542.5C457.209 542.5 455.209 545.077 455.209 547C455.209 548.5 453.5 554.5 453.5 554.5C453.5 554.5 455.479 543.532 455.209 536C455.051 531.598 452.709 525 452.709 525V536L449.709 521L448.209 527C448.209 527 446.339 512.338 445.709 502.5C445.492 499.116 445.451 495.367 445.412 491.901C445.355 486.785 445.305 482.288 444.709 480.5C443.989 478.34 442.5 476 442.5 476C442.5 476 439.941 477.135 438.5 477.5C437.345 477.793 435.946 477.639 435 477.5C434.085 477.366 433.333 477.248 432.209 477.5C431.167 477.734 430.199 477.762 429.5 478C428.313 478.405 427.524 478.477 425.709 478.5C422.189 478.545 421.381 477.429 420.209 474.5C419.209 472 419.655 469.907 420.209 467.5C420.708 465.33 422.462 464.738 424.182 464.158C425.1 463.848 426.008 463.542 426.709 463C429.551 460.806 432.209 457.5 432.209 457.5H425.709C423.171 457.5 422.357 456.673 422.209 455C422.081 453.559 423.083 453.067 424.296 452.471C424.592 452.325 424.901 452.173 425.209 452C427.479 450.722 428.499 450.5 432.209 450.5H444.709C444.709 450.5 446.207 445.261 448.209 442.5C450.823 438.895 455.209 435.837 457.209 435.5C458.004 435.366 458.5 435.304 459.006 435.241C459.481 435.182 459.963 435.122 460.709 435C463.404 434.56 465.084 432.805 466.459 431.369C467.267 430.525 467.969 429.791 468.709 429.5C469.33 429.256 470.256 428.963 471.159 428.678C471.926 428.435 472.677 428.198 473.209 428C474.5 427.52 475.637 427.166 476.804 426.802C478.005 426.427 479.24 426.042 480.709 425.5C485.826 423.612 487.893 423.976 493.569 424.975L493.709 425C498.543 425.851 502.236 427.113 506.145 428.449ZM513.709 514C515.07 513.14 516.05 512.882 517.209 514C518.193 514.949 517.654 516.109 517.209 517C516.209 519 515.83 519.249 514.709 520.5C514.156 521.117 513.209 522 513.209 522C513.209 522 513.529 522.29 513.709 522.5C514.277 523.163 514.029 523.646 514.209 524.5C514.838 527.484 511.284 530.84 508.709 529.5C507.6 528.923 506.709 527 506.709 527C506.709 527 507.538 528.859 507.209 530C506.938 530.938 506.551 531.506 505.709 532C504.867 532.494 503.709 526 503.709 526C503.709 526 504.46 532.785 503.709 533C502.958 533.215 502.058 532.699 501.709 532C500.709 530 500.709 527 500.709 527L499.209 533L498.209 534L495.709 525.5C495.709 525.5 495.709 533.5 495.709 534C495.709 534.781 493.709 534.781 493.709 534C493.709 533 492.709 526 492.709 526C492.709 526 492.664 536.555 491.709 536C490.754 535.445 489.709 534 489.709 534L488.709 526V534C488.209 535.5 487.209 535 486.209 534L485.209 526L483.209 534L482.709 526L480.709 532L479.209 524.5L478.209 529.5L475.709 523.5V529C475.709 529 472.448 528.471 471.209 527C469.803 525.33 471.095 523.495 470.209 521.5C469.305 519.465 467.146 519.183 466.709 517C466.518 516.043 466.709 514.5 466.709 514.5C466.709 514.5 468.59 514.817 470.209 515.5C472.708 516.554 474.709 520.5 474.709 520.5L475.709 514L477.209 520L477.709 514.5L479.209 519L480.709 515.5L483.209 521.5C483.209 521.5 482.161 516.024 483.209 515.5C484.257 514.976 484.117 515.077 485.209 515.5C486.302 515.923 488.709 520.5 488.709 520.5C488.709 520.5 488.607 518.059 488.709 516.5C488.865 514.13 487.48 509.68 489.709 510.5C490.882 510.932 491.049 511.938 491.709 513C493.014 515.097 493.709 519 493.709 519L495.709 513L497.209 514L498.209 521.5C498.209 521.5 498.258 518.25 499.209 516.5C499.675 515.642 500.709 514.5 500.709 514.5L502.209 525.5C502.209 525.5 502.209 520 502.209 516.5C502.209 515.25 503.709 514.5 503.709 514.5C503.709 514.5 505.709 516.127 505.709 517C505.709 520 506.709 523.5 506.709 523.5C506.709 523.5 507.209 519.5 507.209 516.5C507.209 515.695 507.905 514.038 508.709 514C509.704 513.953 509.709 514.5 510.209 515.5C511.261 517.603 510.709 520.5 510.709 520.5C510.709 520.5 512.348 514.86 513.709 514Z" fill="black"/>
<path d="M479 454.5L473 453L465.399 450.044C464.474 449.684 463.491 449.5 462.499 449.5H455.779C454.609 449.5 453.455 449.772 452.408 450.296L450.197 451.401C448.329 452.335 447.36 454.442 447.867 456.468V456.468C447.955 456.821 448 457.184 448 457.549V461.018C448 461.998 447.82 462.969 447.468 463.883L446.577 466.2C445.928 467.887 444.307 469 442.5 469V469H437H433.5V469C432.355 469 431.758 467.637 432.535 466.796L438.873 459.93C440.714 457.935 440.189 454.739 437.805 453.439V453.439C437.275 453.15 436.688 452.979 436.085 452.939L431.667 452.644C430.248 452.55 428.829 452.835 427.557 453.471L426.079 454.211C425.436 454.532 425.665 455.5 426.383 455.5H433.274C434.474 455.5 435.215 456.809 434.598 457.837V457.837C434.533 457.945 434.455 458.045 434.366 458.134L427.89 464.61C427.306 465.194 426.584 465.619 425.79 465.846V465.846C424.346 466.258 423.173 467.317 422.615 468.711L422.513 468.968C421.401 471.747 422.753 474.901 425.532 476.013L425.928 476.171C427.262 476.705 428.747 476.729 430.097 476.237L431.989 475.55C432.971 475.192 434.041 475.155 435.046 475.442V475.442C436.298 475.8 437.641 475.651 438.784 475.027L439.617 474.573C441.45 473.573 443.624 473.409 445.587 474.122L446.675 474.518C447.552 474.837 448.477 475 449.409 475H450.5M479 454.5L481.642 453.509C482.54 453.173 483.491 453 484.451 453H493.5H499L509.592 451.676C510.523 451.56 511.468 451.608 512.383 451.819L516.461 452.76C517.143 452.918 517.778 453.238 518.31 453.694V453.694C519.875 455.036 520.281 457.295 519.279 459.097L519.102 459.416C518.707 460.127 518.5 460.927 518.5 461.74V463.849C518.5 464.923 518.835 465.97 519.459 466.843V466.843C520.426 468.197 521.987 469 523.651 469H523.832C524.602 469 525.373 468.834 526.077 468.521V468.521C528.14 467.605 529.5 465.545 529.5 463.288V462.805C529.5 461.318 528.968 459.879 528 458.75L526.939 457.513C526.656 457.182 526.5 456.761 526.5 456.325V456.325C526.5 455.317 527.317 454.5 528.325 454.5H541.294C542.077 454.5 542.839 454.246 543.465 453.776V453.776C544.134 453.274 544.957 453.02 545.793 453.056L564.442 453.867C565.408 453.909 565.758 455.162 564.953 455.698L564.22 456.187C563.413 456.724 562.711 457.404 562.148 458.193L560.756 460.142C560.587 460.379 560.376 460.583 560.134 460.744L558.992 461.505C557.783 462.311 556.178 461.365 556.299 459.917V459.917C556.397 458.731 555.302 457.8 554.147 458.088L553.756 458.186C552.99 458.377 552.405 458.996 552.258 459.772L550.655 468.186C550.553 468.723 550.339 469.232 550.028 469.681L547.947 472.688C547.1 473.911 545.239 473.724 544.653 472.357V472.357C544.552 472.121 544.5 471.868 544.5 471.612V462.354C544.5 460.766 542.877 459.696 541.417 460.321V460.321C541.142 460.439 540.846 460.5 540.546 460.5H538.811C538.612 460.5 538.421 460.421 538.28 460.28V460.28C537.808 459.808 537 460.142 537 460.811V462.902C537 463.288 537.138 463.661 537.389 463.954L539.003 465.837C539.657 466.6 540.103 467.517 540.3 468.502L540.564 469.818C540.832 471.158 540.33 472.536 539.263 473.39V473.39C538.763 473.79 538.167 474.051 537.535 474.149L532 475L518.306 475.944C517.77 475.981 517.232 475.964 516.699 475.893L511.902 475.254C510.712 475.095 509.679 474.357 509.142 473.284V473.284C508.73 472.459 508.648 471.508 508.913 470.625L509.663 468.125C509.886 467.379 510 466.604 510 465.826V462.151C510 461.077 509.665 460.03 509.041 459.157V459.157C508.074 457.803 506.513 457 504.849 457H499V457C497.936 457 497.777 458.532 498.818 458.751L499.765 458.95C499.919 458.983 500.064 459.052 500.186 459.152L505.5 463.5V463.5C506.781 464.781 507.5 466.517 507.5 468.328V469.288C507.5 470.087 507.332 470.877 507.008 471.608V471.608C506.091 473.671 504.045 475 501.788 475H500H492.922C491.343 475 489.799 474.532 488.485 473.656L486.603 472.402C486.21 472.14 485.748 472 485.275 472V472C483.219 472 482.119 474.422 483.474 475.97L489.482 482.836C490.075 483.515 490.113 484.516 489.572 485.237V485.237C489.212 485.717 488.647 486 488.046 486H487.26C486.446 486 485.657 485.715 485.032 485.193L480.82 481.683C480.276 481.23 479.794 480.706 479.388 480.125L477.18 476.971C476.729 476.327 476.186 475.753 475.568 475.268L469.5 470.5L462.291 465.994C461.814 465.696 461.204 465.722 460.754 466.059V466.059C460.092 466.556 460.023 467.523 460.609 468.109L460.731 468.231C461.19 468.69 461.304 469.392 461.013 469.973L460.279 471.442C459.785 472.431 458.883 473.154 457.81 473.423L455.5 474L454.43 474.428C453.486 474.806 452.477 475 451.459 475H450.5M479 454.5L480 460.5M480 460.5L481.571 461.548C482.513 462.175 483.577 462.596 484.694 462.782L488.347 463.391C488.782 463.464 489.221 463.5 489.662 463.5H494.31C495.072 463.5 495.803 463.803 496.341 464.341L496.75 464.75C497.883 465.883 497.628 467.784 496.237 468.579V468.579C495.76 468.852 495.204 468.955 494.661 468.871L489.605 468.093C489.202 468.031 488.795 468 488.388 468H477.303C476.784 468 476.28 467.82 475.878 467.491V467.491C474.242 466.152 475.236 463.5 477.351 463.5V463.5C478.328 463.5 479.209 462.874 479.518 461.947L480 460.5ZM454.5 456V463.884C454.5 464.951 454.287 466.006 453.873 466.989L450.5 475M465.737 459H469.172C470.215 459 470.582 457.618 469.677 457.101V457.101C469.56 457.034 469.431 456.991 469.298 456.975L462.675 456.147C462.051 456.069 461.5 456.555 461.5 457.184V457.184C461.5 457.664 461.826 458.082 462.292 458.198L465.27 458.942C465.423 458.981 465.58 459 465.737 459Z" stroke="#F4F78E"/>
<path d="M435.5 616C436.72 614.676 440 615 440 615L444.5 616C444.799 618.036 445.056 618.92 444 620.409L440 620.5C440 620.5 434.253 620.347 434.5 618C434.591 617.132 434.908 616.642 435.5 616Z" fill="#FFAC6C"/>
<path d="M444.5 641C446 640.005 449.5 641 449.5 641L452.5 642.5C452.304 644.548 452.381 645.306 451 646.5L447.5 645.5C447.5 645.5 442.792 644.158 443.592 641.938C443.888 641.116 443.772 641.483 444.5 641Z" fill="#FFAC6C"/>
<path d="M436 660.321C437.5 659.326 440 660.321 440 660.321L443.5 662.5C443.304 664.548 442.881 665.806 441.5 667L438 665.5C438 665.5 434.201 664.22 435 662C435.296 661.178 435.272 660.803 436 660.321Z" fill="#FFAC6C"/>
<path d="M428.617 672.999C429.966 672.105 432.213 672.999 432.213 672.999L435.359 674.958C435.183 676.8 434.803 677.93 433.561 679.003L430.415 677.655C430.415 677.655 427 676.504 427.718 674.509C427.984 673.77 427.963 673.433 428.617 672.999Z" fill="#FFAC6C"/>
<path d="M231.5 934.2L230 934.5C230 934.5 229 932.408 229 931C229 928.5 232.5 928 232.5 928C232.5 928 234.5 925 236.5 925C239.05 925 240.5 927.5 240.5 927.5C240.5 927.5 243.568 927.102 244.5 928.5C245.5 930 245 931.5 245 931.5L243.625 931.775M231.5 934.2L231 953M231.5 934.2L235 933.5M235 933.5L233.5 956.5M235 933.5L237.5 933M237.5 933L236.5 950.5M237.5 933L239.5 932.6M239.5 932.6L239 952.5M239.5 932.6L242.25 932.05M242.25 932.05V950.5M242.25 932.05L243.625 931.775M243.625 931.775L245 950.5" stroke="url(#paint45_linear_54_363)" stroke-opacity="0.95"/>
<path d="M231.5 934.2L230 934.5C230 934.5 229 932.408 229 931C229 928.5 232.5 928 232.5 928C232.5 928 234.5 925 236.5 925C239.05 925 240.5 927.5 240.5 927.5C240.5 927.5 243.568 927.102 244.5 928.5C245.5 930 245 931.5 245 931.5L243.625 931.775M231.5 934.2L231 953M231.5 934.2L235 933.5M235 933.5L233.5 956.5M235 933.5L237.5 933M237.5 933L236.5 950.5M237.5 933L239.5 932.6M239.5 932.6L239 952.5M239.5 932.6L242.25 932.05M242.25 932.05V950.5M242.25 932.05L243.625 931.775M243.625 931.775L245 950.5" stroke="url(#paint46_radial_54_363)" stroke-opacity="0.2"/>
<path d="M311.5 554.5L311.418 554.993L311.5 554.5ZM316.5 560L316.126 560.332L316.5 560ZM323.5 575L323.841 574.634L323.5 575ZM323.5 584.5L323.466 584.999L323.5 584.5ZM312.5 580.5L312.807 580.106L312.5 580.5ZM306 571L306.475 570.845L306 571ZM305 564.5L305.499 564.467L305 564.5ZM305.5 559.5L305.976 559.652L305.5 559.5ZM309.5 554.5L309.6 554.99L309.5 554.5ZM330.5 562L330.146 562.354L330.5 562ZM331 564L330.521 563.856L331 564ZM329 565.5L329.108 565.988L329 565.5ZM324.5 564.5L324.96 564.303L324.5 564.5ZM324.5 562L324.045 561.793L324.5 562ZM330.5 555.5L330.5 555L330.5 555.5ZM336 559.5L335.653 559.86L336 559.5ZM340 564.5L340.442 564.266L340 564.5ZM342 572L342.419 571.727L342 572ZM309.235 564.076C309.001 564.222 308.93 564.531 309.076 564.765C309.222 564.999 309.531 565.07 309.765 564.924L309.235 564.076ZM313.765 562.424C313.999 562.278 314.07 561.969 313.924 561.735C313.778 561.501 313.469 561.43 313.235 561.576L313.765 562.424ZM311.418 554.993C312.572 555.185 313.261 555.899 313.914 556.915C314.249 557.438 314.541 557.984 314.899 558.588C315.246 559.174 315.636 559.78 316.126 560.332L316.874 559.668C316.448 559.187 316.095 558.646 315.759 558.078C315.433 557.527 315.1 556.913 314.755 556.375C314.047 555.272 313.152 554.268 311.582 554.007L311.418 554.993ZM316.126 560.332C316.633 560.904 317.874 562.268 318.997 563.563C319.558 564.21 320.083 564.831 320.466 565.319C320.658 565.564 320.808 565.767 320.908 565.919C320.959 565.996 320.99 566.05 321.007 566.084C321.035 566.141 321 566.095 321 566H322C322 565.842 321.934 565.704 321.903 565.641C321.861 565.555 321.805 565.463 321.744 565.37C321.621 565.183 321.451 564.954 321.253 564.701C320.854 564.194 320.317 563.558 319.753 562.908C318.626 561.61 317.367 560.224 316.874 559.668L316.126 560.332ZM321 566C321 565.916 321.094 565.954 320.843 566.046C320.605 566.134 320.256 566.191 319.804 566.255C319.378 566.316 318.877 566.382 318.421 566.5C317.973 566.617 317.492 566.801 317.146 567.146L317.854 567.854C318.008 567.699 318.277 567.571 318.672 567.468C319.061 567.368 319.497 567.309 319.946 567.245C320.369 567.184 320.832 567.116 321.188 566.985C321.531 566.859 322 566.584 322 566H321ZM317.146 567.146C316.873 567.42 316.874 567.782 316.929 568.046C316.985 568.317 317.119 568.607 317.285 568.895C317.62 569.478 318.162 570.179 318.796 570.914C320.068 572.391 321.781 574.082 323.159 575.366L323.841 574.634C322.474 573.361 320.792 571.698 319.553 570.261C318.931 569.539 318.438 568.895 318.151 568.396C318.006 568.144 317.932 567.961 317.908 567.843C317.882 567.718 317.929 567.778 317.854 567.854L317.146 567.146ZM323.159 575.366C324.602 576.71 326.539 577.74 328.114 578.596C328.915 579.031 329.614 579.417 330.145 579.783C330.701 580.166 330.958 580.455 331.026 580.658L331.974 580.342C331.792 579.795 331.271 579.345 330.713 578.96C330.13 578.558 329.381 578.146 328.592 577.717C326.985 576.844 325.172 575.874 323.841 574.634L323.159 575.366ZM331.026 580.658C331.201 581.183 331.283 581.602 331.285 582.005C331.287 582.406 331.21 582.82 331.028 583.334L331.971 583.666C332.18 583.075 332.288 582.545 332.285 582C332.282 581.457 332.17 580.928 331.974 580.342L331.026 580.658ZM331.028 583.334C331.03 583.33 331.014 583.375 330.9 583.45C330.787 583.524 330.616 583.601 330.379 583.675C329.906 583.822 329.253 583.928 328.487 583.996C326.963 584.132 325.088 584.107 323.534 584.001L323.466 584.999C325.053 585.107 326.983 585.134 328.576 584.992C329.369 584.922 330.103 584.807 330.675 584.63C330.961 584.541 331.228 584.43 331.447 584.287C331.663 584.146 331.873 583.946 331.971 583.666L331.028 583.334ZM323.534 584.001C321.277 583.848 319.478 583.556 317.808 582.967C316.14 582.379 314.578 581.486 312.807 580.106L312.192 580.894C314.027 582.325 315.683 583.278 317.475 583.91C319.264 584.54 321.162 584.842 323.466 584.999L323.534 584.001ZM312.807 580.106C312.378 579.771 311.794 579.127 311.137 578.29C310.487 577.463 309.789 576.478 309.133 575.488C308.477 574.498 307.867 573.509 307.39 572.674C306.906 571.825 306.582 571.175 306.475 570.845L305.524 571.155C305.667 571.594 306.041 572.328 306.522 573.17C307.011 574.026 307.633 575.035 308.3 576.04C308.966 577.046 309.679 578.054 310.35 578.908C311.014 579.752 311.66 580.479 312.192 580.894L312.807 580.106ZM306.475 570.845C305.704 568.472 305.669 567.039 305.499 564.467L304.501 564.533C304.67 567.086 304.708 568.643 305.524 571.155L306.475 570.845ZM305.499 564.467C305.373 562.565 305.519 561.078 305.976 559.652L305.024 559.347C304.52 560.921 304.369 562.539 304.501 564.533L305.499 564.467ZM305.976 559.652C306.356 558.466 307.005 557.336 307.709 556.476C308.06 556.047 308.418 555.693 308.753 555.436C309.094 555.174 309.384 555.034 309.6 554.99L309.4 554.01C308.977 554.096 308.548 554.333 308.145 554.643C307.735 554.956 307.323 555.368 306.935 555.843C306.158 556.792 305.445 558.032 305.024 559.347L305.976 559.652ZM309.6 554.99C310.287 554.85 310.687 554.871 311.418 554.993L311.582 554.007C310.773 553.872 310.243 553.838 309.4 554.01L309.6 554.99ZM326 560.5C325.97 560.999 325.97 560.999 325.97 560.999C325.97 560.999 325.97 560.999 325.97 560.999C325.97 560.999 325.97 560.999 325.97 560.999C325.97 560.999 325.971 560.999 325.971 560.999C325.972 560.999 325.974 560.999 325.976 560.999C325.981 561 325.989 561 326 561.001C326.022 561.003 326.054 561.005 326.097 561.009C326.182 561.016 326.306 561.028 326.459 561.047C326.767 561.084 327.191 561.146 327.651 561.247C328.603 561.456 329.601 561.808 330.146 562.354L330.854 561.646C330.089 560.882 328.837 560.484 327.866 560.27C327.366 560.16 326.909 560.093 326.578 560.054C326.413 560.034 326.277 560.021 326.183 560.013C326.135 560.008 326.098 560.006 326.072 560.004C326.059 560.003 326.049 560.002 326.042 560.002C326.038 560.001 326.036 560.001 326.034 560.001C326.033 560.001 326.032 560.001 326.031 560.001C326.031 560.001 326.03 560.001 326.03 560.001C326.03 560.001 326.03 560.001 326.03 560.001C326.03 560.001 326.03 560.001 326 560.5ZM330.146 562.354C330.379 562.586 330.511 562.765 330.575 562.963C330.635 563.152 330.652 563.419 330.521 563.856L331.479 564.144C331.65 563.573 331.666 563.091 331.527 562.657C331.39 562.231 331.121 561.914 330.854 561.646L330.146 562.354ZM330.521 563.856C330.38 564.325 330.214 564.522 330.022 564.647C329.791 564.797 329.467 564.884 328.891 565.012L329.108 565.988C329.644 565.869 330.157 565.752 330.566 565.486C331.014 565.195 331.293 564.765 331.479 564.144L330.521 563.856ZM328.891 565.012C327.982 565.214 327.115 565.369 326.399 565.292C326.05 565.254 325.761 565.163 325.529 565.012C325.303 564.865 325.106 564.644 324.96 564.303L324.04 564.697C324.259 565.207 324.581 565.588 324.984 565.85C325.382 566.109 325.833 566.237 326.292 566.286C327.192 566.384 328.21 566.188 329.108 565.988L328.891 565.012ZM324.96 564.303C324.785 563.896 324.706 563.56 324.704 563.244C324.702 562.929 324.776 562.601 324.955 562.207L324.045 561.793C323.82 562.288 323.701 562.761 323.704 563.25C323.707 563.737 323.83 564.207 324.04 564.697L324.96 564.303ZM324.955 562.207C325.077 561.938 325.377 561.623 325.701 561.349C325.855 561.219 325.999 561.111 326.105 561.035C326.158 560.997 326.201 560.967 326.23 560.948C326.244 560.938 326.255 560.931 326.262 560.926C326.266 560.924 326.268 560.922 326.27 560.921C326.27 560.921 326.271 560.92 326.271 560.92C326.271 560.92 326.271 560.92 326.271 560.92C326.271 560.92 326.271 560.92 326.271 560.92C326.271 560.92 326.271 560.92 326.271 560.92C326.271 560.92 326.271 560.92 326 560.5C325.729 560.08 325.729 560.08 325.729 560.08C325.729 560.08 325.729 560.08 325.729 560.08C325.729 560.08 325.728 560.08 325.728 560.08C325.728 560.08 325.728 560.081 325.727 560.081C325.726 560.082 325.725 560.082 325.724 560.083C325.721 560.085 325.717 560.088 325.712 560.091C325.701 560.098 325.687 560.107 325.669 560.119C325.634 560.144 325.583 560.178 325.522 560.222C325.401 560.309 325.234 560.434 325.056 560.585C324.716 560.873 324.265 561.308 324.045 561.793L324.955 562.207ZM326 560.5C326.5 560.5 326.5 560.5 326.5 560.5C326.5 560.5 326.5 560.5 326.5 560.5C326.5 560.5 326.5 560.5 326.5 560.5C326.5 560.5 326.5 560.499 326.5 560.499C326.5 560.498 326.5 560.496 326.5 560.493C326.5 560.489 326.5 560.481 326.5 560.471C326.5 560.452 326.5 560.422 326.501 560.385C326.502 560.309 326.504 560.2 326.508 560.066C326.515 559.798 326.531 559.435 326.561 559.053C326.591 558.668 326.636 558.273 326.702 557.938C326.771 557.58 326.85 557.37 326.907 557.29L326.093 556.71C325.899 556.981 325.791 557.383 325.72 557.747C325.645 558.134 325.596 558.571 325.564 558.973C325.532 559.378 325.516 559.759 325.508 560.037C325.504 560.177 325.502 560.292 325.501 560.372C325.5 560.412 325.5 560.444 325.5 560.465C325.5 560.476 325.5 560.485 325.5 560.49C325.5 560.493 325.5 560.496 325.5 560.497C325.5 560.498 325.5 560.499 325.5 560.499C325.5 560.499 325.5 560.5 325.5 560.5C325.5 560.5 325.5 560.5 325.5 560.5C325.5 560.5 325.5 560.5 326 560.5ZM326.907 557.29C327.07 557.061 327.54 556.73 328.245 556.452C328.927 556.183 329.739 556 330.5 556L330.5 555C329.592 555 328.655 555.216 327.878 555.522C327.126 555.818 326.429 556.238 326.093 556.71L326.907 557.29ZM330.5 556C330.76 556 331.089 556.096 331.489 556.308C331.885 556.518 332.318 556.823 332.78 557.197C333.707 557.95 334.685 558.928 335.653 559.86L336.347 559.14C335.402 558.23 334.38 557.208 333.41 556.421C332.923 556.026 332.434 555.676 331.957 555.424C331.485 555.174 330.989 555 330.5 555L330.5 556ZM335.653 559.86C337.442 561.583 338.424 562.596 339.558 564.734L340.442 564.266C339.232 561.986 338.16 560.886 336.347 559.14L335.653 559.86ZM339.558 564.734C340.215 565.971 340.297 567.112 340.413 568.349C340.529 569.581 340.681 570.894 341.581 572.273L342.419 571.727C341.662 570.568 341.523 569.47 341.409 568.255C341.295 567.047 341.206 565.706 340.442 564.266L339.558 564.734ZM341.581 572.273C342.479 573.648 343.876 575.297 345.034 576.589C345.616 577.238 346.143 577.803 346.524 578.205C346.714 578.407 346.869 578.567 346.976 578.678C347.029 578.733 347.071 578.776 347.099 578.805C347.113 578.82 347.124 578.831 347.132 578.839C347.135 578.842 347.138 578.845 347.14 578.847C347.141 578.848 347.142 578.849 347.142 578.849C347.143 578.85 347.143 578.85 347.143 578.85C347.143 578.85 347.143 578.85 347.143 578.85C347.143 578.85 347.143 578.85 347.5 578.5C347.857 578.15 347.857 578.15 347.857 578.15C347.857 578.15 347.857 578.15 347.857 578.15C347.857 578.15 347.856 578.149 347.856 578.149C347.856 578.149 347.855 578.148 347.854 578.147C347.853 578.146 347.85 578.143 347.847 578.139C347.84 578.132 347.829 578.122 347.816 578.108C347.788 578.079 347.747 578.038 347.695 577.983C347.59 577.875 347.438 577.716 347.25 577.518C346.873 577.12 346.353 576.563 345.779 575.922C344.625 574.634 343.272 573.033 342.419 571.727L341.581 572.273ZM309.765 564.924L313.765 562.424L313.235 561.576L309.235 564.076L309.765 564.924Z" fill="url(#paint47_radial_54_363)"/>
<path d="M407 323C413.323 321.419 409.5 306.5 409.5 306.5L415 317.5C415 317.5 414.187 324.347 411 326.5C408.841 327.958 406.894 329.026 404.5 328C397.5 325 386 325 386 325C386 325 403 324 407 323Z" fill="#A1B49A"/>
<path d="M519 232.5C519 228.218 510.5 225 510.5 225C510.5 225 499.5 228 495.5 227C489.226 225.431 494.714 233.737 488.5 237.5C482.569 241.092 475.112 237.771 468 241C463.5 243.043 455.232 248.081 451.5 257C448.627 263.866 446.323 267.064 446 274.5C445.5 286 437 295 437 300C437 302.981 437.364 307.109 440 308.5C442.418 309.775 446.5 308.5 446.5 308.5C446.5 308.5 447.8 315.857 449 320C450.014 323.5 453.5 329.5 453.5 329.5C453.5 329.5 456.209 349.406 453.5 360C451.702 367.03 452.575 370.367 448 376C444.501 380.308 435 384.5 435 384.5C435 384.5 428.328 390.436 430 395.5C431.445 399.876 434.392 403.966 439 404C444.125 404.037 447.492 400.715 449 395.5C450.139 391.561 447.5 382.5 447.5 382.5C447.5 382.5 450.791 387.08 451.5 390.5C453.166 398.539 448.867 405.323 442.5 409.5C438.177 412.336 436.027 408.393 431 411C423.757 414.756 420.939 425 422 428C423.061 431 431.5 439.5 431.5 439.5C431.5 439.5 420 432.5 419 425.5C418 418.5 422.14 415 421.5 411C421.1 408.5 417.154 402.69 416 397C415.026 392.201 417.147 389.379 417 384.5C416.823 378.632 416.406 375.131 417 369.5C417.522 364.549 420.5 362.939 420.5 357.5C420.5 356 415.822 355.691 414 353C410.295 347.529 422.481 343.333 421.5 336.5C420.891 332.257 421.15 331.209 419 327.5C414.129 319.098 409.132 315.349 406.5 306C403.643 295.85 403.953 289.232 406.5 279C408.589 270.609 415.719 263 416 259C416.319 254.453 416.052 253.058 416 248.5C415.878 237.804 420.865 232.384 426 223C430.838 214.159 433.539 208.775 441 202C445.252 198.139 447.718 195.753 453 193.5C460.578 190.268 465.589 193.252 474 191.5C479.259 190.404 481.829 189.224 488 189C495.837 188.716 502.075 191.32 509 195C513.352 197.313 515.686 199.149 518 203.5C520.292 207.81 518 213.84 519.5 214.5C521.466 215.365 522.88 214.152 525 214.5C529.137 215.179 530.318 219.208 534.5 219.5C537.713 219.724 538.23 218.862 541 216C542.452 214.5 542.825 207.942 540 202.5C537.175 197.058 529.698 189.498 519.5 188.5C512.982 187.862 503 191.5 503 191.5C503 191.5 505.534 188.52 507.5 187C515.146 181.089 522.379 182.584 532 183.5C537.799 184.052 541.455 184.088 546.5 187C552.997 190.75 554.832 195.456 558.5 202C561.674 207.662 562.957 213.094 564 219.5C565.293 227.439 564.958 231.181 562.5 238C559.666 245.862 556.478 250.4 549.5 255C544.959 257.994 536.5 260 536.5 260C536.5 260 540.067 265.051 542 268.5C545.811 275.301 547.664 279.423 549.5 287C552.443 299.145 558.172 310.002 549.5 319C545.014 323.654 538.025 320.581 534.5 326C532.408 329.216 532.595 331.71 532 335.5C531.092 341.287 533.513 344.841 532 350.5C530.555 355.905 524.46 357.431 525 363C525.287 365.96 525.426 368.51 528 370C530.951 371.708 535.415 369.724 538 367.5C540.949 364.962 541.033 362.076 539.5 358.5C538 355 534.5 347 534.5 347C534.5 347 540.206 352.882 542 355C545.952 359.667 548.898 364.374 546.5 370C544.034 375.784 538.231 376.154 532 377C529.291 377.368 527.65 377.67 525 377C519.242 375.545 517.605 374.837 515 369.5C511.231 361.779 513.5 343 513.5 343C513.5 343 518 339.5 520 335.5C524.894 325.712 522.782 320.959 526 310.5C528 304 528.607 298.145 529.5 291C531.375 276 528.5 272.5 528.5 272.5C528.5 272.5 529.998 260.483 529.5 255C528.669 245.858 519 236 519 232.5Z" fill="#829F76"/>
<path d="M566 229.5C549.5 252 554.5 253.5 536.5 255.5L530 258.5C530 258.5 546.119 263.682 554 255.5C561.899 247.3 566 229.5 566 229.5Z" fill="#A1B49A"/>
<path d="M513 225L517.5 214.5C517.5 214.5 519.112 209.42 518 206.5C517.012 203.907 516.462 201.963 514.5 200C510.824 196.323 507.262 194.586 502.5 192.5C496.677 189.949 492.226 189.216 486 190.5C481.208 191.488 457.5 200 457.5 200C457.5 200 483.646 192.45 490.5 193.5C498.281 194.692 506.826 196.827 511 203.5C514.066 208.403 513 225 513 225Z" fill="#A1B49A"/>
<path d="M446 306C446 308.761 443.761 311 441 311C438.239 311 436 308.761 436 306C436 303.239 438.239 301 441 301C443.761 301 446 303.239 446 306Z" fill="#D2CACA"/>
<path d="M446 306C446 308.761 443.761 311 441 311C438.239 311 436 308.761 436 306C436 303.239 438.239 301 441 301C443.761 301 446 303.239 446 306Z" fill="url(#paint48_radial_54_363)"/>
<path d="M445.5 306C445.5 308.485 443.485 310.5 441 310.5C438.515 310.5 436.5 308.485 436.5 306C436.5 303.515 438.515 301.5 441 301.5C443.485 301.5 445.5 303.515 445.5 306Z" stroke="#686868"/>
<path d="M443.518 280.5C444.788 274.876 446.5 270 446.5 270C446.386 270.5 446.018 275 446.018 278.5C446.018 282 445.515 282.957 445.018 285C444.187 288.415 444.818 292.5 445.018 293.5C445.518 296 449.5 302.631 449.5 305C451.648 309.381 441.518 323.5 441.518 323.5C441.518 323.5 448.86 308.736 446.018 304C443.018 299 442.024 295.951 441.518 294C439.996 288.128 442.183 286.417 443.518 280.5Z" fill="#A1B49A"/>
<defs>
<linearGradient id="paint0_linear_54_363" x1="155" y1="1098" x2="309" y2="1064.5" gradientUnits="userSpaceOnUse">
<stop/>
<stop offset="1" stop-opacity="0"/>
</linearGradient>
<linearGradient id="paint1_linear_54_363" x1="407.5" y1="638" x2="513" y2="690" gradientUnits="userSpaceOnUse">
<stop stop-color="#B36324"/>
<stop offset="0.346186" stop-color="#B36324" stop-opacity="0"/>
<stop offset="0.985891" stop-color="#B36324" stop-opacity="0"/>
</linearGradient>
<linearGradient id="paint2_linear_54_363" x1="597" y1="718.5" x2="652" y2="661.5" gradientUnits="userSpaceOnUse">
<stop stop-color="#9F866E" stop-opacity="0.85"/>
<stop offset="1" stop-color="#A57E5B" stop-opacity="0"/>
</linearGradient>
<radialGradient id="paint3_radial_54_363" cx="0" cy="0" r="1" gradientUnits="userSpaceOnUse" gradientTransform="translate(598.5 687.5) rotate(81.1932) scale(35.9235 7.12988)">
<stop stop-color="#CE9694"/>
<stop offset="1" stop-color="#AA7A78" stop-opacity="0"/>
</radialGradient>
<linearGradient id="paint4_linear_54_363" x1="570.5" y1="678.5" x2="582" y2="730" gradientUnits="userSpaceOnUse">
<stop stop-color="#A87979"/>
<stop offset="1" stop-color="#A87979" stop-opacity="0"/>
</linearGradient>
<linearGradient id="paint5_linear_54_363" x1="571" y1="647" x2="589.5" y2="638" gradientUnits="userSpaceOnUse">
<stop stop-color="#C0918F"/>
<stop offset="1" stop-color="#CF9C9A" stop-opacity="0"/>
</linearGradient>
<linearGradient id="paint6_linear_54_363" x1="512" y1="652.5" x2="527" y2="935" gradientUnits="userSpaceOnUse">
<stop stop-color="#DFB2B2"/>
<stop offset="1" stop-color="#DFB2B2" stop-opacity="0"/>
</linearGradient>
<linearGradient id="paint7_linear_54_363" x1="512" y1="652.5" x2="527" y2="935" gradientUnits="userSpaceOnUse">
<stop stop-color="#DFB2B2"/>
<stop offset="1" stop-color="#DFB2B2" stop-opacity="0"/>
</linearGradient>
<linearGradient id="paint8_linear_54_363" x1="512" y1="652.5" x2="527" y2="935" gradientUnits="userSpaceOnUse">
<stop stop-color="#DFB2B2"/>
<stop offset="1" stop-color="#DFB2B2" stop-opacity="0"/>
</linearGradient>
<linearGradient id="paint9_linear_54_363" x1="512" y1="652.5" x2="527" y2="935" gradientUnits="userSpaceOnUse">
<stop stop-color="#DFB2B2"/>
<stop offset="1" stop-color="#DFB2B2" stop-opacity="0"/>
</linearGradient>
<linearGradient id="paint10_linear_54_363" x1="512" y1="652.5" x2="527" y2="935" gradientUnits="userSpaceOnUse">
<stop stop-color="#DFB2B2"/>
<stop offset="1" stop-color="#DFB2B2" stop-opacity="0"/>
</linearGradient>
<linearGradient id="paint11_linear_54_363" x1="292.5" y1="670.5" x2="387.5" y2="747.5" gradientUnits="userSpaceOnUse">
<stop stop-color="#ECC8C8"/>
<stop offset="1" stop-color="#EDE9E9" stop-opacity="0"/>
</linearGradient>
<linearGradient id="paint12_linear_54_363" x1="234.5" y1="664" x2="184.5" y2="763.5" gradientUnits="userSpaceOnUse">
<stop stop-color="#D29D9A"/>
<stop offset="1" stop-color="#D29D9A" stop-opacity="0"/>
</linearGradient>
<linearGradient id="paint13_linear_54_363" x1="367.5" y1="732.5" x2="331" y2="844.5" gradientUnits="userSpaceOnUse">
<stop stop-color="#EAC8C8"/>
<stop offset="1" stop-color="#EAC8C8" stop-opacity="0"/>
</linearGradient>
<linearGradient id="paint14_linear_54_363" x1="367.5" y1="732.5" x2="331" y2="844.5" gradientUnits="userSpaceOnUse">
<stop stop-color="#EAC8C8"/>
<stop offset="1" stop-color="#EAC8C8" stop-opacity="0"/>
</linearGradient>
<linearGradient id="paint15_linear_54_363" x1="256.5" y1="699" x2="293.555" y2="721.629" gradientUnits="userSpaceOnUse">
<stop stop-color="#ECC8C8"/>
<stop offset="1" stop-color="#EDE9E9" stop-opacity="0"/>
</linearGradient>
<linearGradient id="paint16_linear_54_363" x1="227.5" y1="734" x2="202" y2="802.5" gradientUnits="userSpaceOnUse">
<stop stop-color="#E7C6C4"/>
<stop offset="1" stop-color="#E7C6C4" stop-opacity="0"/>
</linearGradient>
<radialGradient id="paint17_radial_54_363" cx="0" cy="0" r="1" gradientUnits="userSpaceOnUse" gradientTransform="translate(415.5 744) rotate(177.469) scale(90.5884 35.275)">
<stop stop-color="#E7C6C4"/>
<stop offset="1" stop-color="#E7C6C4" stop-opacity="0"/>
</radialGradient>
<radialGradient id="paint18_radial_54_363" cx="0" cy="0" r="1" gradientUnits="userSpaceOnUse" gradientTransform="translate(516 783) rotate(158.091) scale(99.1615 102.001)">
<stop stop-color="#E7C6C4"/>
<stop offset="1" stop-color="#E7C6C4" stop-opacity="0"/>
</radialGradient>
<linearGradient id="paint19_linear_54_363" x1="414" y1="621.5" x2="481.5" y2="630" gradientUnits="userSpaceOnUse">
<stop offset="0.0251225" stop-color="#B18A80"/>
<stop offset="1" stop-color="#B18A80" stop-opacity="0"/>
</linearGradient>
<linearGradient id="paint20_linear_54_363" x1="414" y1="621.5" x2="481.5" y2="630" gradientUnits="userSpaceOnUse">
<stop offset="0.0251225" stop-color="#B18A80"/>
<stop offset="1" stop-color="#B18A80" stop-opacity="0"/>
</linearGradient>
<linearGradient id="paint21_linear_54_363" x1="490.75" y1="327" x2="486.5" y2="404" gradientUnits="userSpaceOnUse">
<stop stop-color="#BF8D61" stop-opacity="0.74"/>
<stop offset="0.568834" stop-color="#A87E59" stop-opacity="0"/>
</linearGradient>
<radialGradient id="paint22_radial_54_363" cx="0" cy="0" r="1" gradientUnits="userSpaceOnUse" gradientTransform="translate(503 281) rotate(90) scale(21 8.5345)">
<stop stop-color="#9E744A"/>
<stop offset="1" stop-color="#9E744A" stop-opacity="0"/>
</radialGradient>
<radialGradient id="paint23_radial_54_363" cx="0" cy="0" r="1" gradientUnits="userSpaceOnUse" gradientTransform="translate(498 317) rotate(90) scale(2)">
<stop stop-color="#C4C4C4"/>
<stop offset="1" stop-color="#C4C4C4" stop-opacity="0"/>
</radialGradient>
<linearGradient id="paint24_linear_54_363" x1="477.5" y1="269.5" x2="477.5" y2="251" gradientUnits="userSpaceOnUse">
<stop stop-color="#B97373"/>
<stop offset="1" stop-color="#B97373" stop-opacity="0"/>
</linearGradient>
<linearGradient id="paint25_linear_54_363" x1="518.5" y1="273" x2="525.5" y2="263.5" gradientUnits="userSpaceOnUse">
<stop stop-color="#B97373"/>
<stop offset="1" stop-color="#915A5A" stop-opacity="0"/>
</linearGradient>
<linearGradient id="paint26_linear_54_363" x1="517" y1="257.917" x2="496" y2="270" gradientUnits="userSpaceOnUse">
<stop offset="0.278566" stop-color="#714F37"/>
<stop offset="1" stop-color="#714F37" stop-opacity="0"/>
</linearGradient>
<linearGradient id="paint27_linear_54_363" x1="476" y1="254" x2="498" y2="268" gradientUnits="userSpaceOnUse">
<stop offset="0.365382" stop-color="#714F37"/>
<stop offset="1" stop-color="#714F37" stop-opacity="0"/>
</linearGradient>
<linearGradient id="paint28_linear_54_363" x1="439" y1="273" x2="462" y2="311" gradientUnits="userSpaceOnUse">
<stop stop-color="#D09073"/>
<stop offset="1" stop-color="#CF967C" stop-opacity="0"/>
</linearGradient>
<linearGradient id="paint29_linear_54_363" x1="622" y1="505" x2="592" y2="481" gradientUnits="userSpaceOnUse">
<stop stop-color="#FFDC84"/>
<stop offset="1" stop-color="#FFDC84" stop-opacity="0"/>
</linearGradient>
<radialGradient id="paint30_radial_54_363" cx="0" cy="0" r="1" gradientUnits="userSpaceOnUse" gradientTransform="translate(322 508.5) rotate(-28.3422) scale(93.7363 84.2767)">
<stop stop-color="#E73A2F"/>
<stop offset="1" stop-color="#FFF7F7" stop-opacity="0"/>
</radialGradient>
<radialGradient id="paint31_radial_54_363" cx="0" cy="0" r="1" gradientUnits="userSpaceOnUse" gradientTransform="translate(550.25 541.25) rotate(75.0897) scale(43.7221 21.9463)">
<stop stop-color="#CE5252" stop-opacity="0.58"/>
<stop offset="1" stop-color="#CE5252" stop-opacity="0"/>
</radialGradient>
<radialGradient id="paint32_radial_54_363" cx="0" cy="0" r="1" gradientUnits="userSpaceOnUse" gradientTransform="translate(423 388.5) rotate(86.3861) scale(47.5947 62.6856)">
<stop stop-color="#E6544F"/>
<stop offset="0.974686" stop-color="#C0B0AF" stop-opacity="0"/>
</radialGradient>
<radialGradient id="paint33_radial_54_363" cx="0" cy="0" r="1" gradientUnits="userSpaceOnUse" gradientTransform="translate(515 528.5) rotate(-58.0188) scale(125.557 186.898)">
<stop stop-color="#E39797"/>
<stop offset="1" stop-color="#DE6969" stop-opacity="0"/>
</radialGradient>
<linearGradient id="paint34_linear_54_363" x1="644" y1="509" x2="589" y2="469.5" gradientUnits="userSpaceOnUse">
<stop stop-color="#FF4646" stop-opacity="0.66"/>
<stop offset="1" stop-color="#DC7373" stop-opacity="0"/>
</linearGradient>
<radialGradient id="paint35_radial_54_363" cx="0" cy="0" r="1" gradientUnits="userSpaceOnUse" gradientTransform="translate(572.75 409.5) rotate(90) scale(33 30.25)">
<stop stop-color="#D85255"/>
<stop offset="1" stop-color="#D85255" stop-opacity="0"/>
</radialGradient>
<linearGradient id="paint36_linear_54_363" x1="557" y1="619.5" x2="551" y2="593" gradientUnits="userSpaceOnUse">
<stop stop-color="#AF3E47"/>
<stop offset="1" stop-color="#AF3E47" stop-opacity="0"/>
</linearGradient>
<linearGradient id="paint37_linear_54_363" x1="354.5" y1="447" x2="384" y2="461.5" gradientUnits="userSpaceOnUse">
<stop stop-color="#FFFA79"/>
<stop offset="1" stop-color="#FFFA79" stop-opacity="0"/>
</linearGradient>
<linearGradient id="paint38_linear_54_363" x1="388" y1="516" x2="467.5" y2="483" gradientUnits="userSpaceOnUse">
<stop stop-color="#EEDF88"/>
<stop offset="1" stop-color="#EEDF88" stop-opacity="0"/>
</linearGradient>
<linearGradient id="paint39_linear_54_363" x1="521.411" y1="383.016" x2="521.411" y2="454" gradientUnits="userSpaceOnUse">
<stop stop-color="#FFF38A"/>
<stop offset="1" stop-color="#FFF38A" stop-opacity="0"/>
</linearGradient>
<linearGradient id="paint40_linear_54_363" x1="521.411" y1="383.016" x2="521.411" y2="454" gradientUnits="userSpaceOnUse">
<stop stop-color="#FFF38A"/>
<stop offset="1" stop-color="#FFF38A" stop-opacity="0"/>
</linearGradient>
<linearGradient id="paint41_linear_54_363" x1="521.411" y1="383.016" x2="521.411" y2="454" gradientUnits="userSpaceOnUse">
<stop stop-color="#FFF38A"/>
<stop offset="1" stop-color="#FFF38A" stop-opacity="0"/>
</linearGradient>
<linearGradient id="paint42_linear_54_363" x1="521.411" y1="383.016" x2="521.411" y2="454" gradientUnits="userSpaceOnUse">
<stop stop-color="#FFF38A"/>
<stop offset="1" stop-color="#FFF38A" stop-opacity="0"/>
</linearGradient>
<linearGradient id="paint43_linear_54_363" x1="521.411" y1="383.016" x2="521.411" y2="454" gradientUnits="userSpaceOnUse">
<stop stop-color="#FFF38A"/>
<stop offset="1" stop-color="#FFF38A" stop-opacity="0"/>
</linearGradient>
<linearGradient id="paint44_linear_54_363" x1="433" y1="526" x2="452" y2="597" gradientUnits="userSpaceOnUse">
<stop stop-color="#EE6E6E"/>
<stop offset="1" stop-color="#EE6E6E" stop-opacity="0"/>
</linearGradient>
<linearGradient id="paint45_linear_54_363" x1="230.5" y1="921.5" x2="235.5" y2="951" gradientUnits="userSpaceOnUse">
<stop stop-color="#5A5A5A"/>
<stop offset="1" stop-color="#5A5A5A" stop-opacity="0"/>
</linearGradient>
<radialGradient id="paint46_radial_54_363" cx="0" cy="0" r="1" gradientUnits="userSpaceOnUse" gradientTransform="translate(237.062 940.75) rotate(90.191) scale(18.7501 28.5945)">
<stop/>
<stop offset="1" stop-opacity="0"/>
</radialGradient>
<radialGradient id="paint47_radial_54_363" cx="0" cy="0" r="1" gradientUnits="userSpaceOnUse" gradientTransform="translate(324 566) rotate(75.6773) scale(24.2539 34.1718)">
<stop stop-color="#5A5A5A"/>
<stop offset="1" stop-color="#5A5A5A" stop-opacity="0"/>
</radialGradient>
<radialGradient id="paint48_radial_54_363" cx="0" cy="0" r="1" gradientUnits="userSpaceOnUse" gradientTransform="translate(441 306) rotate(90) scale(10)">
<stop stop-color="#3F3F3F"/>
<stop offset="1" stop-color="#6C6969" stop-opacity="0"/>
</radialGradient>
</defs>
</svg>
